G04 #@! TF.GenerationSoftware,KiCad,Pcbnew,(5.1.4-0-10_14)*
G04 #@! TF.CreationDate,2020-02-23T16:46:41+00:00*
G04 #@! TF.ProjectId,Bottom PCB,426f7474-6f6d-4205-9043-422e6b696361,rev?*
G04 #@! TF.SameCoordinates,Original*
G04 #@! TF.FileFunction,Soldermask,Top*
G04 #@! TF.FilePolarity,Negative*
%FSLAX46Y46*%
G04 Gerber Fmt 4.6, Leading zero omitted, Abs format (unit mm)*
G04 Created by KiCad (PCBNEW (5.1.4-0-10_14)) date 2020-02-23 16:46:41*
%MOMM*%
%LPD*%
G04 APERTURE LIST*
%ADD10O,1.900000X1.900000*%
%ADD11R,1.900000X1.900000*%
%ADD12O,1.800000X1.800000*%
%ADD13R,1.800000X1.800000*%
%ADD14C,2.200000*%
G04 APERTURE END LIST*
D10*
X159004000Y-93472000D03*
X156464000Y-93472000D03*
X153924000Y-93472000D03*
D11*
X151384000Y-93472000D03*
D10*
X151638000Y-111506000D03*
X154178000Y-111506000D03*
X156718000Y-111506000D03*
D11*
X159258000Y-111506000D03*
D12*
X136271000Y-97282000D03*
X136271000Y-82042000D03*
X171831000Y-97282000D03*
X138811000Y-82042000D03*
X169291000Y-97282000D03*
X141351000Y-82042000D03*
X166751000Y-97282000D03*
X143891000Y-82042000D03*
X164211000Y-97282000D03*
X146431000Y-82042000D03*
X161671000Y-97282000D03*
X148971000Y-82042000D03*
X159131000Y-97282000D03*
X151511000Y-82042000D03*
X156591000Y-97282000D03*
X154051000Y-82042000D03*
X154051000Y-97282000D03*
X156591000Y-82042000D03*
X151511000Y-97282000D03*
X159131000Y-82042000D03*
X148971000Y-97282000D03*
X161671000Y-82042000D03*
X146431000Y-97282000D03*
X164211000Y-82042000D03*
X143891000Y-97282000D03*
X166751000Y-82042000D03*
X141351000Y-97282000D03*
X169291000Y-82042000D03*
X138811000Y-97282000D03*
D13*
X171831000Y-82042000D03*
D10*
X163258500Y-113601500D03*
X165798500Y-113601500D03*
X168338500Y-113601500D03*
D11*
X170878500Y-113601500D03*
D10*
X122301000Y-70104000D03*
X122301000Y-72644000D03*
D11*
X122301000Y-75184000D03*
D10*
X127508000Y-93472000D03*
X127508000Y-90932000D03*
X127508000Y-88392000D03*
D11*
X127508000Y-85852000D03*
D10*
X128143000Y-103632000D03*
X128143000Y-106172000D03*
X128143000Y-108712000D03*
X128143000Y-111252000D03*
D11*
X128143000Y-113792000D03*
D10*
X123571000Y-103632000D03*
X123571000Y-106172000D03*
X123571000Y-108712000D03*
X123571000Y-111252000D03*
D11*
X123571000Y-113792000D03*
D10*
X126111000Y-70104000D03*
X126111000Y-72644000D03*
D11*
X126111000Y-75184000D03*
D10*
X129921000Y-70104000D03*
X129921000Y-72644000D03*
D11*
X129921000Y-75184000D03*
D10*
X133731000Y-70104000D03*
X133731000Y-72644000D03*
D11*
X133731000Y-75184000D03*
D10*
X174371000Y-75374500D03*
X171831000Y-75374500D03*
X169291000Y-75374500D03*
X166751000Y-75374500D03*
X164211000Y-75374500D03*
X161671000Y-75374500D03*
X159131000Y-75374500D03*
D11*
X156591000Y-75374500D03*
D14*
X118745000Y-103505000D03*
X118745000Y-108585000D03*
X118745000Y-113665000D03*
X118745000Y-65405000D03*
X118745000Y-70485000D03*
X118745000Y-75565000D03*
M02*
