G04 #@! TF.GenerationSoftware,KiCad,Pcbnew,(5.1.4-0-10_14)*
G04 #@! TF.CreationDate,2020-02-23T16:46:41+00:00*
G04 #@! TF.ProjectId,Bottom PCB,426f7474-6f6d-4205-9043-422e6b696361,rev?*
G04 #@! TF.SameCoordinates,Original*
G04 #@! TF.FileFunction,Soldermask,Bot*
G04 #@! TF.FilePolarity,Negative*
%FSLAX46Y46*%
G04 Gerber Fmt 4.6, Leading zero omitted, Abs format (unit mm)*
G04 Created by KiCad (PCBNEW (5.1.4-0-10_14)) date 2020-02-23 16:46:41*
%MOMM*%
%LPD*%
G04 APERTURE LIST*
%ADD10O,1.900000X1.900000*%
%ADD11R,1.900000X1.900000*%
%ADD12O,1.800000X1.800000*%
%ADD13R,1.800000X1.800000*%
%ADD14C,0.100000*%
%ADD15C,0.800000*%
%ADD16R,0.650000X1.950000*%
%ADD17C,1.625000*%
%ADD18R,0.800000X1.700000*%
%ADD19C,2.200000*%
G04 APERTURE END LIST*
D10*
X159004000Y-93472000D03*
X156464000Y-93472000D03*
X153924000Y-93472000D03*
D11*
X151384000Y-93472000D03*
D10*
X151638000Y-111506000D03*
X154178000Y-111506000D03*
X156718000Y-111506000D03*
D11*
X159258000Y-111506000D03*
D12*
X136271000Y-97282000D03*
X136271000Y-82042000D03*
X171831000Y-97282000D03*
X138811000Y-82042000D03*
X169291000Y-97282000D03*
X141351000Y-82042000D03*
X166751000Y-97282000D03*
X143891000Y-82042000D03*
X164211000Y-97282000D03*
X146431000Y-82042000D03*
X161671000Y-97282000D03*
X148971000Y-82042000D03*
X159131000Y-97282000D03*
X151511000Y-82042000D03*
X156591000Y-97282000D03*
X154051000Y-82042000D03*
X154051000Y-97282000D03*
X156591000Y-82042000D03*
X151511000Y-97282000D03*
X159131000Y-82042000D03*
X148971000Y-97282000D03*
X161671000Y-82042000D03*
X146431000Y-97282000D03*
X164211000Y-82042000D03*
X143891000Y-97282000D03*
X166751000Y-82042000D03*
X141351000Y-97282000D03*
X169291000Y-82042000D03*
X138811000Y-97282000D03*
D13*
X171831000Y-82042000D03*
D14*
G36*
X139157603Y-119603963D02*
G01*
X139177018Y-119606843D01*
X139196057Y-119611612D01*
X139214537Y-119618224D01*
X139232279Y-119626616D01*
X139249114Y-119636706D01*
X139264879Y-119648398D01*
X139279421Y-119661579D01*
X139292602Y-119676121D01*
X139304294Y-119691886D01*
X139314384Y-119708721D01*
X139322776Y-119726463D01*
X139329388Y-119744943D01*
X139334157Y-119763982D01*
X139337037Y-119783397D01*
X139338000Y-119803000D01*
X139338000Y-121653000D01*
X139337037Y-121672603D01*
X139334157Y-121692018D01*
X139329388Y-121711057D01*
X139322776Y-121729537D01*
X139314384Y-121747279D01*
X139304294Y-121764114D01*
X139292602Y-121779879D01*
X139279421Y-121794421D01*
X139264879Y-121807602D01*
X139249114Y-121819294D01*
X139232279Y-121829384D01*
X139214537Y-121837776D01*
X139196057Y-121844388D01*
X139177018Y-121849157D01*
X139157603Y-121852037D01*
X139138000Y-121853000D01*
X138738000Y-121853000D01*
X138718397Y-121852037D01*
X138698982Y-121849157D01*
X138679943Y-121844388D01*
X138661463Y-121837776D01*
X138643721Y-121829384D01*
X138626886Y-121819294D01*
X138611121Y-121807602D01*
X138596579Y-121794421D01*
X138583398Y-121779879D01*
X138571706Y-121764114D01*
X138561616Y-121747279D01*
X138553224Y-121729537D01*
X138546612Y-121711057D01*
X138541843Y-121692018D01*
X138538963Y-121672603D01*
X138538000Y-121653000D01*
X138538000Y-119803000D01*
X138538963Y-119783397D01*
X138541843Y-119763982D01*
X138546612Y-119744943D01*
X138553224Y-119726463D01*
X138561616Y-119708721D01*
X138571706Y-119691886D01*
X138583398Y-119676121D01*
X138596579Y-119661579D01*
X138611121Y-119648398D01*
X138626886Y-119636706D01*
X138643721Y-119626616D01*
X138661463Y-119618224D01*
X138679943Y-119611612D01*
X138698982Y-119606843D01*
X138718397Y-119603963D01*
X138738000Y-119603000D01*
X139138000Y-119603000D01*
X139157603Y-119603963D01*
X139157603Y-119603963D01*
G37*
D15*
X138938000Y-120728000D03*
D14*
G36*
X140427603Y-119603963D02*
G01*
X140447018Y-119606843D01*
X140466057Y-119611612D01*
X140484537Y-119618224D01*
X140502279Y-119626616D01*
X140519114Y-119636706D01*
X140534879Y-119648398D01*
X140549421Y-119661579D01*
X140562602Y-119676121D01*
X140574294Y-119691886D01*
X140584384Y-119708721D01*
X140592776Y-119726463D01*
X140599388Y-119744943D01*
X140604157Y-119763982D01*
X140607037Y-119783397D01*
X140608000Y-119803000D01*
X140608000Y-121653000D01*
X140607037Y-121672603D01*
X140604157Y-121692018D01*
X140599388Y-121711057D01*
X140592776Y-121729537D01*
X140584384Y-121747279D01*
X140574294Y-121764114D01*
X140562602Y-121779879D01*
X140549421Y-121794421D01*
X140534879Y-121807602D01*
X140519114Y-121819294D01*
X140502279Y-121829384D01*
X140484537Y-121837776D01*
X140466057Y-121844388D01*
X140447018Y-121849157D01*
X140427603Y-121852037D01*
X140408000Y-121853000D01*
X140008000Y-121853000D01*
X139988397Y-121852037D01*
X139968982Y-121849157D01*
X139949943Y-121844388D01*
X139931463Y-121837776D01*
X139913721Y-121829384D01*
X139896886Y-121819294D01*
X139881121Y-121807602D01*
X139866579Y-121794421D01*
X139853398Y-121779879D01*
X139841706Y-121764114D01*
X139831616Y-121747279D01*
X139823224Y-121729537D01*
X139816612Y-121711057D01*
X139811843Y-121692018D01*
X139808963Y-121672603D01*
X139808000Y-121653000D01*
X139808000Y-119803000D01*
X139808963Y-119783397D01*
X139811843Y-119763982D01*
X139816612Y-119744943D01*
X139823224Y-119726463D01*
X139831616Y-119708721D01*
X139841706Y-119691886D01*
X139853398Y-119676121D01*
X139866579Y-119661579D01*
X139881121Y-119648398D01*
X139896886Y-119636706D01*
X139913721Y-119626616D01*
X139931463Y-119618224D01*
X139949943Y-119611612D01*
X139968982Y-119606843D01*
X139988397Y-119603963D01*
X140008000Y-119603000D01*
X140408000Y-119603000D01*
X140427603Y-119603963D01*
X140427603Y-119603963D01*
G37*
D15*
X140208000Y-120728000D03*
D14*
G36*
X141697603Y-119603963D02*
G01*
X141717018Y-119606843D01*
X141736057Y-119611612D01*
X141754537Y-119618224D01*
X141772279Y-119626616D01*
X141789114Y-119636706D01*
X141804879Y-119648398D01*
X141819421Y-119661579D01*
X141832602Y-119676121D01*
X141844294Y-119691886D01*
X141854384Y-119708721D01*
X141862776Y-119726463D01*
X141869388Y-119744943D01*
X141874157Y-119763982D01*
X141877037Y-119783397D01*
X141878000Y-119803000D01*
X141878000Y-121653000D01*
X141877037Y-121672603D01*
X141874157Y-121692018D01*
X141869388Y-121711057D01*
X141862776Y-121729537D01*
X141854384Y-121747279D01*
X141844294Y-121764114D01*
X141832602Y-121779879D01*
X141819421Y-121794421D01*
X141804879Y-121807602D01*
X141789114Y-121819294D01*
X141772279Y-121829384D01*
X141754537Y-121837776D01*
X141736057Y-121844388D01*
X141717018Y-121849157D01*
X141697603Y-121852037D01*
X141678000Y-121853000D01*
X141278000Y-121853000D01*
X141258397Y-121852037D01*
X141238982Y-121849157D01*
X141219943Y-121844388D01*
X141201463Y-121837776D01*
X141183721Y-121829384D01*
X141166886Y-121819294D01*
X141151121Y-121807602D01*
X141136579Y-121794421D01*
X141123398Y-121779879D01*
X141111706Y-121764114D01*
X141101616Y-121747279D01*
X141093224Y-121729537D01*
X141086612Y-121711057D01*
X141081843Y-121692018D01*
X141078963Y-121672603D01*
X141078000Y-121653000D01*
X141078000Y-119803000D01*
X141078963Y-119783397D01*
X141081843Y-119763982D01*
X141086612Y-119744943D01*
X141093224Y-119726463D01*
X141101616Y-119708721D01*
X141111706Y-119691886D01*
X141123398Y-119676121D01*
X141136579Y-119661579D01*
X141151121Y-119648398D01*
X141166886Y-119636706D01*
X141183721Y-119626616D01*
X141201463Y-119618224D01*
X141219943Y-119611612D01*
X141238982Y-119606843D01*
X141258397Y-119603963D01*
X141278000Y-119603000D01*
X141678000Y-119603000D01*
X141697603Y-119603963D01*
X141697603Y-119603963D01*
G37*
D15*
X141478000Y-120728000D03*
D14*
G36*
X142967603Y-119603963D02*
G01*
X142987018Y-119606843D01*
X143006057Y-119611612D01*
X143024537Y-119618224D01*
X143042279Y-119626616D01*
X143059114Y-119636706D01*
X143074879Y-119648398D01*
X143089421Y-119661579D01*
X143102602Y-119676121D01*
X143114294Y-119691886D01*
X143124384Y-119708721D01*
X143132776Y-119726463D01*
X143139388Y-119744943D01*
X143144157Y-119763982D01*
X143147037Y-119783397D01*
X143148000Y-119803000D01*
X143148000Y-121653000D01*
X143147037Y-121672603D01*
X143144157Y-121692018D01*
X143139388Y-121711057D01*
X143132776Y-121729537D01*
X143124384Y-121747279D01*
X143114294Y-121764114D01*
X143102602Y-121779879D01*
X143089421Y-121794421D01*
X143074879Y-121807602D01*
X143059114Y-121819294D01*
X143042279Y-121829384D01*
X143024537Y-121837776D01*
X143006057Y-121844388D01*
X142987018Y-121849157D01*
X142967603Y-121852037D01*
X142948000Y-121853000D01*
X142548000Y-121853000D01*
X142528397Y-121852037D01*
X142508982Y-121849157D01*
X142489943Y-121844388D01*
X142471463Y-121837776D01*
X142453721Y-121829384D01*
X142436886Y-121819294D01*
X142421121Y-121807602D01*
X142406579Y-121794421D01*
X142393398Y-121779879D01*
X142381706Y-121764114D01*
X142371616Y-121747279D01*
X142363224Y-121729537D01*
X142356612Y-121711057D01*
X142351843Y-121692018D01*
X142348963Y-121672603D01*
X142348000Y-121653000D01*
X142348000Y-119803000D01*
X142348963Y-119783397D01*
X142351843Y-119763982D01*
X142356612Y-119744943D01*
X142363224Y-119726463D01*
X142371616Y-119708721D01*
X142381706Y-119691886D01*
X142393398Y-119676121D01*
X142406579Y-119661579D01*
X142421121Y-119648398D01*
X142436886Y-119636706D01*
X142453721Y-119626616D01*
X142471463Y-119618224D01*
X142489943Y-119611612D01*
X142508982Y-119606843D01*
X142528397Y-119603963D01*
X142548000Y-119603000D01*
X142948000Y-119603000D01*
X142967603Y-119603963D01*
X142967603Y-119603963D01*
G37*
D15*
X142748000Y-120728000D03*
D14*
G36*
X144237603Y-119603963D02*
G01*
X144257018Y-119606843D01*
X144276057Y-119611612D01*
X144294537Y-119618224D01*
X144312279Y-119626616D01*
X144329114Y-119636706D01*
X144344879Y-119648398D01*
X144359421Y-119661579D01*
X144372602Y-119676121D01*
X144384294Y-119691886D01*
X144394384Y-119708721D01*
X144402776Y-119726463D01*
X144409388Y-119744943D01*
X144414157Y-119763982D01*
X144417037Y-119783397D01*
X144418000Y-119803000D01*
X144418000Y-121653000D01*
X144417037Y-121672603D01*
X144414157Y-121692018D01*
X144409388Y-121711057D01*
X144402776Y-121729537D01*
X144394384Y-121747279D01*
X144384294Y-121764114D01*
X144372602Y-121779879D01*
X144359421Y-121794421D01*
X144344879Y-121807602D01*
X144329114Y-121819294D01*
X144312279Y-121829384D01*
X144294537Y-121837776D01*
X144276057Y-121844388D01*
X144257018Y-121849157D01*
X144237603Y-121852037D01*
X144218000Y-121853000D01*
X143818000Y-121853000D01*
X143798397Y-121852037D01*
X143778982Y-121849157D01*
X143759943Y-121844388D01*
X143741463Y-121837776D01*
X143723721Y-121829384D01*
X143706886Y-121819294D01*
X143691121Y-121807602D01*
X143676579Y-121794421D01*
X143663398Y-121779879D01*
X143651706Y-121764114D01*
X143641616Y-121747279D01*
X143633224Y-121729537D01*
X143626612Y-121711057D01*
X143621843Y-121692018D01*
X143618963Y-121672603D01*
X143618000Y-121653000D01*
X143618000Y-119803000D01*
X143618963Y-119783397D01*
X143621843Y-119763982D01*
X143626612Y-119744943D01*
X143633224Y-119726463D01*
X143641616Y-119708721D01*
X143651706Y-119691886D01*
X143663398Y-119676121D01*
X143676579Y-119661579D01*
X143691121Y-119648398D01*
X143706886Y-119636706D01*
X143723721Y-119626616D01*
X143741463Y-119618224D01*
X143759943Y-119611612D01*
X143778982Y-119606843D01*
X143798397Y-119603963D01*
X143818000Y-119603000D01*
X144218000Y-119603000D01*
X144237603Y-119603963D01*
X144237603Y-119603963D01*
G37*
D15*
X144018000Y-120728000D03*
D14*
G36*
X145507603Y-119603963D02*
G01*
X145527018Y-119606843D01*
X145546057Y-119611612D01*
X145564537Y-119618224D01*
X145582279Y-119626616D01*
X145599114Y-119636706D01*
X145614879Y-119648398D01*
X145629421Y-119661579D01*
X145642602Y-119676121D01*
X145654294Y-119691886D01*
X145664384Y-119708721D01*
X145672776Y-119726463D01*
X145679388Y-119744943D01*
X145684157Y-119763982D01*
X145687037Y-119783397D01*
X145688000Y-119803000D01*
X145688000Y-121653000D01*
X145687037Y-121672603D01*
X145684157Y-121692018D01*
X145679388Y-121711057D01*
X145672776Y-121729537D01*
X145664384Y-121747279D01*
X145654294Y-121764114D01*
X145642602Y-121779879D01*
X145629421Y-121794421D01*
X145614879Y-121807602D01*
X145599114Y-121819294D01*
X145582279Y-121829384D01*
X145564537Y-121837776D01*
X145546057Y-121844388D01*
X145527018Y-121849157D01*
X145507603Y-121852037D01*
X145488000Y-121853000D01*
X145088000Y-121853000D01*
X145068397Y-121852037D01*
X145048982Y-121849157D01*
X145029943Y-121844388D01*
X145011463Y-121837776D01*
X144993721Y-121829384D01*
X144976886Y-121819294D01*
X144961121Y-121807602D01*
X144946579Y-121794421D01*
X144933398Y-121779879D01*
X144921706Y-121764114D01*
X144911616Y-121747279D01*
X144903224Y-121729537D01*
X144896612Y-121711057D01*
X144891843Y-121692018D01*
X144888963Y-121672603D01*
X144888000Y-121653000D01*
X144888000Y-119803000D01*
X144888963Y-119783397D01*
X144891843Y-119763982D01*
X144896612Y-119744943D01*
X144903224Y-119726463D01*
X144911616Y-119708721D01*
X144921706Y-119691886D01*
X144933398Y-119676121D01*
X144946579Y-119661579D01*
X144961121Y-119648398D01*
X144976886Y-119636706D01*
X144993721Y-119626616D01*
X145011463Y-119618224D01*
X145029943Y-119611612D01*
X145048982Y-119606843D01*
X145068397Y-119603963D01*
X145088000Y-119603000D01*
X145488000Y-119603000D01*
X145507603Y-119603963D01*
X145507603Y-119603963D01*
G37*
D15*
X145288000Y-120728000D03*
D14*
G36*
X146777603Y-119603963D02*
G01*
X146797018Y-119606843D01*
X146816057Y-119611612D01*
X146834537Y-119618224D01*
X146852279Y-119626616D01*
X146869114Y-119636706D01*
X146884879Y-119648398D01*
X146899421Y-119661579D01*
X146912602Y-119676121D01*
X146924294Y-119691886D01*
X146934384Y-119708721D01*
X146942776Y-119726463D01*
X146949388Y-119744943D01*
X146954157Y-119763982D01*
X146957037Y-119783397D01*
X146958000Y-119803000D01*
X146958000Y-121653000D01*
X146957037Y-121672603D01*
X146954157Y-121692018D01*
X146949388Y-121711057D01*
X146942776Y-121729537D01*
X146934384Y-121747279D01*
X146924294Y-121764114D01*
X146912602Y-121779879D01*
X146899421Y-121794421D01*
X146884879Y-121807602D01*
X146869114Y-121819294D01*
X146852279Y-121829384D01*
X146834537Y-121837776D01*
X146816057Y-121844388D01*
X146797018Y-121849157D01*
X146777603Y-121852037D01*
X146758000Y-121853000D01*
X146358000Y-121853000D01*
X146338397Y-121852037D01*
X146318982Y-121849157D01*
X146299943Y-121844388D01*
X146281463Y-121837776D01*
X146263721Y-121829384D01*
X146246886Y-121819294D01*
X146231121Y-121807602D01*
X146216579Y-121794421D01*
X146203398Y-121779879D01*
X146191706Y-121764114D01*
X146181616Y-121747279D01*
X146173224Y-121729537D01*
X146166612Y-121711057D01*
X146161843Y-121692018D01*
X146158963Y-121672603D01*
X146158000Y-121653000D01*
X146158000Y-119803000D01*
X146158963Y-119783397D01*
X146161843Y-119763982D01*
X146166612Y-119744943D01*
X146173224Y-119726463D01*
X146181616Y-119708721D01*
X146191706Y-119691886D01*
X146203398Y-119676121D01*
X146216579Y-119661579D01*
X146231121Y-119648398D01*
X146246886Y-119636706D01*
X146263721Y-119626616D01*
X146281463Y-119618224D01*
X146299943Y-119611612D01*
X146318982Y-119606843D01*
X146338397Y-119603963D01*
X146358000Y-119603000D01*
X146758000Y-119603000D01*
X146777603Y-119603963D01*
X146777603Y-119603963D01*
G37*
D15*
X146558000Y-120728000D03*
D14*
G36*
X148047603Y-119603963D02*
G01*
X148067018Y-119606843D01*
X148086057Y-119611612D01*
X148104537Y-119618224D01*
X148122279Y-119626616D01*
X148139114Y-119636706D01*
X148154879Y-119648398D01*
X148169421Y-119661579D01*
X148182602Y-119676121D01*
X148194294Y-119691886D01*
X148204384Y-119708721D01*
X148212776Y-119726463D01*
X148219388Y-119744943D01*
X148224157Y-119763982D01*
X148227037Y-119783397D01*
X148228000Y-119803000D01*
X148228000Y-121653000D01*
X148227037Y-121672603D01*
X148224157Y-121692018D01*
X148219388Y-121711057D01*
X148212776Y-121729537D01*
X148204384Y-121747279D01*
X148194294Y-121764114D01*
X148182602Y-121779879D01*
X148169421Y-121794421D01*
X148154879Y-121807602D01*
X148139114Y-121819294D01*
X148122279Y-121829384D01*
X148104537Y-121837776D01*
X148086057Y-121844388D01*
X148067018Y-121849157D01*
X148047603Y-121852037D01*
X148028000Y-121853000D01*
X147628000Y-121853000D01*
X147608397Y-121852037D01*
X147588982Y-121849157D01*
X147569943Y-121844388D01*
X147551463Y-121837776D01*
X147533721Y-121829384D01*
X147516886Y-121819294D01*
X147501121Y-121807602D01*
X147486579Y-121794421D01*
X147473398Y-121779879D01*
X147461706Y-121764114D01*
X147451616Y-121747279D01*
X147443224Y-121729537D01*
X147436612Y-121711057D01*
X147431843Y-121692018D01*
X147428963Y-121672603D01*
X147428000Y-121653000D01*
X147428000Y-119803000D01*
X147428963Y-119783397D01*
X147431843Y-119763982D01*
X147436612Y-119744943D01*
X147443224Y-119726463D01*
X147451616Y-119708721D01*
X147461706Y-119691886D01*
X147473398Y-119676121D01*
X147486579Y-119661579D01*
X147501121Y-119648398D01*
X147516886Y-119636706D01*
X147533721Y-119626616D01*
X147551463Y-119618224D01*
X147569943Y-119611612D01*
X147588982Y-119606843D01*
X147608397Y-119603963D01*
X147628000Y-119603000D01*
X148028000Y-119603000D01*
X148047603Y-119603963D01*
X148047603Y-119603963D01*
G37*
D15*
X147828000Y-120728000D03*
D14*
G36*
X149317603Y-119603963D02*
G01*
X149337018Y-119606843D01*
X149356057Y-119611612D01*
X149374537Y-119618224D01*
X149392279Y-119626616D01*
X149409114Y-119636706D01*
X149424879Y-119648398D01*
X149439421Y-119661579D01*
X149452602Y-119676121D01*
X149464294Y-119691886D01*
X149474384Y-119708721D01*
X149482776Y-119726463D01*
X149489388Y-119744943D01*
X149494157Y-119763982D01*
X149497037Y-119783397D01*
X149498000Y-119803000D01*
X149498000Y-121653000D01*
X149497037Y-121672603D01*
X149494157Y-121692018D01*
X149489388Y-121711057D01*
X149482776Y-121729537D01*
X149474384Y-121747279D01*
X149464294Y-121764114D01*
X149452602Y-121779879D01*
X149439421Y-121794421D01*
X149424879Y-121807602D01*
X149409114Y-121819294D01*
X149392279Y-121829384D01*
X149374537Y-121837776D01*
X149356057Y-121844388D01*
X149337018Y-121849157D01*
X149317603Y-121852037D01*
X149298000Y-121853000D01*
X148898000Y-121853000D01*
X148878397Y-121852037D01*
X148858982Y-121849157D01*
X148839943Y-121844388D01*
X148821463Y-121837776D01*
X148803721Y-121829384D01*
X148786886Y-121819294D01*
X148771121Y-121807602D01*
X148756579Y-121794421D01*
X148743398Y-121779879D01*
X148731706Y-121764114D01*
X148721616Y-121747279D01*
X148713224Y-121729537D01*
X148706612Y-121711057D01*
X148701843Y-121692018D01*
X148698963Y-121672603D01*
X148698000Y-121653000D01*
X148698000Y-119803000D01*
X148698963Y-119783397D01*
X148701843Y-119763982D01*
X148706612Y-119744943D01*
X148713224Y-119726463D01*
X148721616Y-119708721D01*
X148731706Y-119691886D01*
X148743398Y-119676121D01*
X148756579Y-119661579D01*
X148771121Y-119648398D01*
X148786886Y-119636706D01*
X148803721Y-119626616D01*
X148821463Y-119618224D01*
X148839943Y-119611612D01*
X148858982Y-119606843D01*
X148878397Y-119603963D01*
X148898000Y-119603000D01*
X149298000Y-119603000D01*
X149317603Y-119603963D01*
X149317603Y-119603963D01*
G37*
D15*
X149098000Y-120728000D03*
D14*
G36*
X149317603Y-110303963D02*
G01*
X149337018Y-110306843D01*
X149356057Y-110311612D01*
X149374537Y-110318224D01*
X149392279Y-110326616D01*
X149409114Y-110336706D01*
X149424879Y-110348398D01*
X149439421Y-110361579D01*
X149452602Y-110376121D01*
X149464294Y-110391886D01*
X149474384Y-110408721D01*
X149482776Y-110426463D01*
X149489388Y-110444943D01*
X149494157Y-110463982D01*
X149497037Y-110483397D01*
X149498000Y-110503000D01*
X149498000Y-112353000D01*
X149497037Y-112372603D01*
X149494157Y-112392018D01*
X149489388Y-112411057D01*
X149482776Y-112429537D01*
X149474384Y-112447279D01*
X149464294Y-112464114D01*
X149452602Y-112479879D01*
X149439421Y-112494421D01*
X149424879Y-112507602D01*
X149409114Y-112519294D01*
X149392279Y-112529384D01*
X149374537Y-112537776D01*
X149356057Y-112544388D01*
X149337018Y-112549157D01*
X149317603Y-112552037D01*
X149298000Y-112553000D01*
X148898000Y-112553000D01*
X148878397Y-112552037D01*
X148858982Y-112549157D01*
X148839943Y-112544388D01*
X148821463Y-112537776D01*
X148803721Y-112529384D01*
X148786886Y-112519294D01*
X148771121Y-112507602D01*
X148756579Y-112494421D01*
X148743398Y-112479879D01*
X148731706Y-112464114D01*
X148721616Y-112447279D01*
X148713224Y-112429537D01*
X148706612Y-112411057D01*
X148701843Y-112392018D01*
X148698963Y-112372603D01*
X148698000Y-112353000D01*
X148698000Y-110503000D01*
X148698963Y-110483397D01*
X148701843Y-110463982D01*
X148706612Y-110444943D01*
X148713224Y-110426463D01*
X148721616Y-110408721D01*
X148731706Y-110391886D01*
X148743398Y-110376121D01*
X148756579Y-110361579D01*
X148771121Y-110348398D01*
X148786886Y-110336706D01*
X148803721Y-110326616D01*
X148821463Y-110318224D01*
X148839943Y-110311612D01*
X148858982Y-110306843D01*
X148878397Y-110303963D01*
X148898000Y-110303000D01*
X149298000Y-110303000D01*
X149317603Y-110303963D01*
X149317603Y-110303963D01*
G37*
D15*
X149098000Y-111428000D03*
D14*
G36*
X148047603Y-110303963D02*
G01*
X148067018Y-110306843D01*
X148086057Y-110311612D01*
X148104537Y-110318224D01*
X148122279Y-110326616D01*
X148139114Y-110336706D01*
X148154879Y-110348398D01*
X148169421Y-110361579D01*
X148182602Y-110376121D01*
X148194294Y-110391886D01*
X148204384Y-110408721D01*
X148212776Y-110426463D01*
X148219388Y-110444943D01*
X148224157Y-110463982D01*
X148227037Y-110483397D01*
X148228000Y-110503000D01*
X148228000Y-112353000D01*
X148227037Y-112372603D01*
X148224157Y-112392018D01*
X148219388Y-112411057D01*
X148212776Y-112429537D01*
X148204384Y-112447279D01*
X148194294Y-112464114D01*
X148182602Y-112479879D01*
X148169421Y-112494421D01*
X148154879Y-112507602D01*
X148139114Y-112519294D01*
X148122279Y-112529384D01*
X148104537Y-112537776D01*
X148086057Y-112544388D01*
X148067018Y-112549157D01*
X148047603Y-112552037D01*
X148028000Y-112553000D01*
X147628000Y-112553000D01*
X147608397Y-112552037D01*
X147588982Y-112549157D01*
X147569943Y-112544388D01*
X147551463Y-112537776D01*
X147533721Y-112529384D01*
X147516886Y-112519294D01*
X147501121Y-112507602D01*
X147486579Y-112494421D01*
X147473398Y-112479879D01*
X147461706Y-112464114D01*
X147451616Y-112447279D01*
X147443224Y-112429537D01*
X147436612Y-112411057D01*
X147431843Y-112392018D01*
X147428963Y-112372603D01*
X147428000Y-112353000D01*
X147428000Y-110503000D01*
X147428963Y-110483397D01*
X147431843Y-110463982D01*
X147436612Y-110444943D01*
X147443224Y-110426463D01*
X147451616Y-110408721D01*
X147461706Y-110391886D01*
X147473398Y-110376121D01*
X147486579Y-110361579D01*
X147501121Y-110348398D01*
X147516886Y-110336706D01*
X147533721Y-110326616D01*
X147551463Y-110318224D01*
X147569943Y-110311612D01*
X147588982Y-110306843D01*
X147608397Y-110303963D01*
X147628000Y-110303000D01*
X148028000Y-110303000D01*
X148047603Y-110303963D01*
X148047603Y-110303963D01*
G37*
D15*
X147828000Y-111428000D03*
D14*
G36*
X146777603Y-110303963D02*
G01*
X146797018Y-110306843D01*
X146816057Y-110311612D01*
X146834537Y-110318224D01*
X146852279Y-110326616D01*
X146869114Y-110336706D01*
X146884879Y-110348398D01*
X146899421Y-110361579D01*
X146912602Y-110376121D01*
X146924294Y-110391886D01*
X146934384Y-110408721D01*
X146942776Y-110426463D01*
X146949388Y-110444943D01*
X146954157Y-110463982D01*
X146957037Y-110483397D01*
X146958000Y-110503000D01*
X146958000Y-112353000D01*
X146957037Y-112372603D01*
X146954157Y-112392018D01*
X146949388Y-112411057D01*
X146942776Y-112429537D01*
X146934384Y-112447279D01*
X146924294Y-112464114D01*
X146912602Y-112479879D01*
X146899421Y-112494421D01*
X146884879Y-112507602D01*
X146869114Y-112519294D01*
X146852279Y-112529384D01*
X146834537Y-112537776D01*
X146816057Y-112544388D01*
X146797018Y-112549157D01*
X146777603Y-112552037D01*
X146758000Y-112553000D01*
X146358000Y-112553000D01*
X146338397Y-112552037D01*
X146318982Y-112549157D01*
X146299943Y-112544388D01*
X146281463Y-112537776D01*
X146263721Y-112529384D01*
X146246886Y-112519294D01*
X146231121Y-112507602D01*
X146216579Y-112494421D01*
X146203398Y-112479879D01*
X146191706Y-112464114D01*
X146181616Y-112447279D01*
X146173224Y-112429537D01*
X146166612Y-112411057D01*
X146161843Y-112392018D01*
X146158963Y-112372603D01*
X146158000Y-112353000D01*
X146158000Y-110503000D01*
X146158963Y-110483397D01*
X146161843Y-110463982D01*
X146166612Y-110444943D01*
X146173224Y-110426463D01*
X146181616Y-110408721D01*
X146191706Y-110391886D01*
X146203398Y-110376121D01*
X146216579Y-110361579D01*
X146231121Y-110348398D01*
X146246886Y-110336706D01*
X146263721Y-110326616D01*
X146281463Y-110318224D01*
X146299943Y-110311612D01*
X146318982Y-110306843D01*
X146338397Y-110303963D01*
X146358000Y-110303000D01*
X146758000Y-110303000D01*
X146777603Y-110303963D01*
X146777603Y-110303963D01*
G37*
D15*
X146558000Y-111428000D03*
D14*
G36*
X145507603Y-110303963D02*
G01*
X145527018Y-110306843D01*
X145546057Y-110311612D01*
X145564537Y-110318224D01*
X145582279Y-110326616D01*
X145599114Y-110336706D01*
X145614879Y-110348398D01*
X145629421Y-110361579D01*
X145642602Y-110376121D01*
X145654294Y-110391886D01*
X145664384Y-110408721D01*
X145672776Y-110426463D01*
X145679388Y-110444943D01*
X145684157Y-110463982D01*
X145687037Y-110483397D01*
X145688000Y-110503000D01*
X145688000Y-112353000D01*
X145687037Y-112372603D01*
X145684157Y-112392018D01*
X145679388Y-112411057D01*
X145672776Y-112429537D01*
X145664384Y-112447279D01*
X145654294Y-112464114D01*
X145642602Y-112479879D01*
X145629421Y-112494421D01*
X145614879Y-112507602D01*
X145599114Y-112519294D01*
X145582279Y-112529384D01*
X145564537Y-112537776D01*
X145546057Y-112544388D01*
X145527018Y-112549157D01*
X145507603Y-112552037D01*
X145488000Y-112553000D01*
X145088000Y-112553000D01*
X145068397Y-112552037D01*
X145048982Y-112549157D01*
X145029943Y-112544388D01*
X145011463Y-112537776D01*
X144993721Y-112529384D01*
X144976886Y-112519294D01*
X144961121Y-112507602D01*
X144946579Y-112494421D01*
X144933398Y-112479879D01*
X144921706Y-112464114D01*
X144911616Y-112447279D01*
X144903224Y-112429537D01*
X144896612Y-112411057D01*
X144891843Y-112392018D01*
X144888963Y-112372603D01*
X144888000Y-112353000D01*
X144888000Y-110503000D01*
X144888963Y-110483397D01*
X144891843Y-110463982D01*
X144896612Y-110444943D01*
X144903224Y-110426463D01*
X144911616Y-110408721D01*
X144921706Y-110391886D01*
X144933398Y-110376121D01*
X144946579Y-110361579D01*
X144961121Y-110348398D01*
X144976886Y-110336706D01*
X144993721Y-110326616D01*
X145011463Y-110318224D01*
X145029943Y-110311612D01*
X145048982Y-110306843D01*
X145068397Y-110303963D01*
X145088000Y-110303000D01*
X145488000Y-110303000D01*
X145507603Y-110303963D01*
X145507603Y-110303963D01*
G37*
D15*
X145288000Y-111428000D03*
D14*
G36*
X144237603Y-110303963D02*
G01*
X144257018Y-110306843D01*
X144276057Y-110311612D01*
X144294537Y-110318224D01*
X144312279Y-110326616D01*
X144329114Y-110336706D01*
X144344879Y-110348398D01*
X144359421Y-110361579D01*
X144372602Y-110376121D01*
X144384294Y-110391886D01*
X144394384Y-110408721D01*
X144402776Y-110426463D01*
X144409388Y-110444943D01*
X144414157Y-110463982D01*
X144417037Y-110483397D01*
X144418000Y-110503000D01*
X144418000Y-112353000D01*
X144417037Y-112372603D01*
X144414157Y-112392018D01*
X144409388Y-112411057D01*
X144402776Y-112429537D01*
X144394384Y-112447279D01*
X144384294Y-112464114D01*
X144372602Y-112479879D01*
X144359421Y-112494421D01*
X144344879Y-112507602D01*
X144329114Y-112519294D01*
X144312279Y-112529384D01*
X144294537Y-112537776D01*
X144276057Y-112544388D01*
X144257018Y-112549157D01*
X144237603Y-112552037D01*
X144218000Y-112553000D01*
X143818000Y-112553000D01*
X143798397Y-112552037D01*
X143778982Y-112549157D01*
X143759943Y-112544388D01*
X143741463Y-112537776D01*
X143723721Y-112529384D01*
X143706886Y-112519294D01*
X143691121Y-112507602D01*
X143676579Y-112494421D01*
X143663398Y-112479879D01*
X143651706Y-112464114D01*
X143641616Y-112447279D01*
X143633224Y-112429537D01*
X143626612Y-112411057D01*
X143621843Y-112392018D01*
X143618963Y-112372603D01*
X143618000Y-112353000D01*
X143618000Y-110503000D01*
X143618963Y-110483397D01*
X143621843Y-110463982D01*
X143626612Y-110444943D01*
X143633224Y-110426463D01*
X143641616Y-110408721D01*
X143651706Y-110391886D01*
X143663398Y-110376121D01*
X143676579Y-110361579D01*
X143691121Y-110348398D01*
X143706886Y-110336706D01*
X143723721Y-110326616D01*
X143741463Y-110318224D01*
X143759943Y-110311612D01*
X143778982Y-110306843D01*
X143798397Y-110303963D01*
X143818000Y-110303000D01*
X144218000Y-110303000D01*
X144237603Y-110303963D01*
X144237603Y-110303963D01*
G37*
D15*
X144018000Y-111428000D03*
D14*
G36*
X142967603Y-110303963D02*
G01*
X142987018Y-110306843D01*
X143006057Y-110311612D01*
X143024537Y-110318224D01*
X143042279Y-110326616D01*
X143059114Y-110336706D01*
X143074879Y-110348398D01*
X143089421Y-110361579D01*
X143102602Y-110376121D01*
X143114294Y-110391886D01*
X143124384Y-110408721D01*
X143132776Y-110426463D01*
X143139388Y-110444943D01*
X143144157Y-110463982D01*
X143147037Y-110483397D01*
X143148000Y-110503000D01*
X143148000Y-112353000D01*
X143147037Y-112372603D01*
X143144157Y-112392018D01*
X143139388Y-112411057D01*
X143132776Y-112429537D01*
X143124384Y-112447279D01*
X143114294Y-112464114D01*
X143102602Y-112479879D01*
X143089421Y-112494421D01*
X143074879Y-112507602D01*
X143059114Y-112519294D01*
X143042279Y-112529384D01*
X143024537Y-112537776D01*
X143006057Y-112544388D01*
X142987018Y-112549157D01*
X142967603Y-112552037D01*
X142948000Y-112553000D01*
X142548000Y-112553000D01*
X142528397Y-112552037D01*
X142508982Y-112549157D01*
X142489943Y-112544388D01*
X142471463Y-112537776D01*
X142453721Y-112529384D01*
X142436886Y-112519294D01*
X142421121Y-112507602D01*
X142406579Y-112494421D01*
X142393398Y-112479879D01*
X142381706Y-112464114D01*
X142371616Y-112447279D01*
X142363224Y-112429537D01*
X142356612Y-112411057D01*
X142351843Y-112392018D01*
X142348963Y-112372603D01*
X142348000Y-112353000D01*
X142348000Y-110503000D01*
X142348963Y-110483397D01*
X142351843Y-110463982D01*
X142356612Y-110444943D01*
X142363224Y-110426463D01*
X142371616Y-110408721D01*
X142381706Y-110391886D01*
X142393398Y-110376121D01*
X142406579Y-110361579D01*
X142421121Y-110348398D01*
X142436886Y-110336706D01*
X142453721Y-110326616D01*
X142471463Y-110318224D01*
X142489943Y-110311612D01*
X142508982Y-110306843D01*
X142528397Y-110303963D01*
X142548000Y-110303000D01*
X142948000Y-110303000D01*
X142967603Y-110303963D01*
X142967603Y-110303963D01*
G37*
D15*
X142748000Y-111428000D03*
D14*
G36*
X141697603Y-110303963D02*
G01*
X141717018Y-110306843D01*
X141736057Y-110311612D01*
X141754537Y-110318224D01*
X141772279Y-110326616D01*
X141789114Y-110336706D01*
X141804879Y-110348398D01*
X141819421Y-110361579D01*
X141832602Y-110376121D01*
X141844294Y-110391886D01*
X141854384Y-110408721D01*
X141862776Y-110426463D01*
X141869388Y-110444943D01*
X141874157Y-110463982D01*
X141877037Y-110483397D01*
X141878000Y-110503000D01*
X141878000Y-112353000D01*
X141877037Y-112372603D01*
X141874157Y-112392018D01*
X141869388Y-112411057D01*
X141862776Y-112429537D01*
X141854384Y-112447279D01*
X141844294Y-112464114D01*
X141832602Y-112479879D01*
X141819421Y-112494421D01*
X141804879Y-112507602D01*
X141789114Y-112519294D01*
X141772279Y-112529384D01*
X141754537Y-112537776D01*
X141736057Y-112544388D01*
X141717018Y-112549157D01*
X141697603Y-112552037D01*
X141678000Y-112553000D01*
X141278000Y-112553000D01*
X141258397Y-112552037D01*
X141238982Y-112549157D01*
X141219943Y-112544388D01*
X141201463Y-112537776D01*
X141183721Y-112529384D01*
X141166886Y-112519294D01*
X141151121Y-112507602D01*
X141136579Y-112494421D01*
X141123398Y-112479879D01*
X141111706Y-112464114D01*
X141101616Y-112447279D01*
X141093224Y-112429537D01*
X141086612Y-112411057D01*
X141081843Y-112392018D01*
X141078963Y-112372603D01*
X141078000Y-112353000D01*
X141078000Y-110503000D01*
X141078963Y-110483397D01*
X141081843Y-110463982D01*
X141086612Y-110444943D01*
X141093224Y-110426463D01*
X141101616Y-110408721D01*
X141111706Y-110391886D01*
X141123398Y-110376121D01*
X141136579Y-110361579D01*
X141151121Y-110348398D01*
X141166886Y-110336706D01*
X141183721Y-110326616D01*
X141201463Y-110318224D01*
X141219943Y-110311612D01*
X141238982Y-110306843D01*
X141258397Y-110303963D01*
X141278000Y-110303000D01*
X141678000Y-110303000D01*
X141697603Y-110303963D01*
X141697603Y-110303963D01*
G37*
D15*
X141478000Y-111428000D03*
D14*
G36*
X140427603Y-110303963D02*
G01*
X140447018Y-110306843D01*
X140466057Y-110311612D01*
X140484537Y-110318224D01*
X140502279Y-110326616D01*
X140519114Y-110336706D01*
X140534879Y-110348398D01*
X140549421Y-110361579D01*
X140562602Y-110376121D01*
X140574294Y-110391886D01*
X140584384Y-110408721D01*
X140592776Y-110426463D01*
X140599388Y-110444943D01*
X140604157Y-110463982D01*
X140607037Y-110483397D01*
X140608000Y-110503000D01*
X140608000Y-112353000D01*
X140607037Y-112372603D01*
X140604157Y-112392018D01*
X140599388Y-112411057D01*
X140592776Y-112429537D01*
X140584384Y-112447279D01*
X140574294Y-112464114D01*
X140562602Y-112479879D01*
X140549421Y-112494421D01*
X140534879Y-112507602D01*
X140519114Y-112519294D01*
X140502279Y-112529384D01*
X140484537Y-112537776D01*
X140466057Y-112544388D01*
X140447018Y-112549157D01*
X140427603Y-112552037D01*
X140408000Y-112553000D01*
X140008000Y-112553000D01*
X139988397Y-112552037D01*
X139968982Y-112549157D01*
X139949943Y-112544388D01*
X139931463Y-112537776D01*
X139913721Y-112529384D01*
X139896886Y-112519294D01*
X139881121Y-112507602D01*
X139866579Y-112494421D01*
X139853398Y-112479879D01*
X139841706Y-112464114D01*
X139831616Y-112447279D01*
X139823224Y-112429537D01*
X139816612Y-112411057D01*
X139811843Y-112392018D01*
X139808963Y-112372603D01*
X139808000Y-112353000D01*
X139808000Y-110503000D01*
X139808963Y-110483397D01*
X139811843Y-110463982D01*
X139816612Y-110444943D01*
X139823224Y-110426463D01*
X139831616Y-110408721D01*
X139841706Y-110391886D01*
X139853398Y-110376121D01*
X139866579Y-110361579D01*
X139881121Y-110348398D01*
X139896886Y-110336706D01*
X139913721Y-110326616D01*
X139931463Y-110318224D01*
X139949943Y-110311612D01*
X139968982Y-110306843D01*
X139988397Y-110303963D01*
X140008000Y-110303000D01*
X140408000Y-110303000D01*
X140427603Y-110303963D01*
X140427603Y-110303963D01*
G37*
D15*
X140208000Y-111428000D03*
D14*
G36*
X139157603Y-110303963D02*
G01*
X139177018Y-110306843D01*
X139196057Y-110311612D01*
X139214537Y-110318224D01*
X139232279Y-110326616D01*
X139249114Y-110336706D01*
X139264879Y-110348398D01*
X139279421Y-110361579D01*
X139292602Y-110376121D01*
X139304294Y-110391886D01*
X139314384Y-110408721D01*
X139322776Y-110426463D01*
X139329388Y-110444943D01*
X139334157Y-110463982D01*
X139337037Y-110483397D01*
X139338000Y-110503000D01*
X139338000Y-112353000D01*
X139337037Y-112372603D01*
X139334157Y-112392018D01*
X139329388Y-112411057D01*
X139322776Y-112429537D01*
X139314384Y-112447279D01*
X139304294Y-112464114D01*
X139292602Y-112479879D01*
X139279421Y-112494421D01*
X139264879Y-112507602D01*
X139249114Y-112519294D01*
X139232279Y-112529384D01*
X139214537Y-112537776D01*
X139196057Y-112544388D01*
X139177018Y-112549157D01*
X139157603Y-112552037D01*
X139138000Y-112553000D01*
X138738000Y-112553000D01*
X138718397Y-112552037D01*
X138698982Y-112549157D01*
X138679943Y-112544388D01*
X138661463Y-112537776D01*
X138643721Y-112529384D01*
X138626886Y-112519294D01*
X138611121Y-112507602D01*
X138596579Y-112494421D01*
X138583398Y-112479879D01*
X138571706Y-112464114D01*
X138561616Y-112447279D01*
X138553224Y-112429537D01*
X138546612Y-112411057D01*
X138541843Y-112392018D01*
X138538963Y-112372603D01*
X138538000Y-112353000D01*
X138538000Y-110503000D01*
X138538963Y-110483397D01*
X138541843Y-110463982D01*
X138546612Y-110444943D01*
X138553224Y-110426463D01*
X138561616Y-110408721D01*
X138571706Y-110391886D01*
X138583398Y-110376121D01*
X138596579Y-110361579D01*
X138611121Y-110348398D01*
X138626886Y-110336706D01*
X138643721Y-110326616D01*
X138661463Y-110318224D01*
X138679943Y-110311612D01*
X138698982Y-110306843D01*
X138718397Y-110303963D01*
X138738000Y-110303000D01*
X139138000Y-110303000D01*
X139157603Y-110303963D01*
X139157603Y-110303963D01*
G37*
D15*
X138938000Y-111428000D03*
D10*
X163258500Y-113601500D03*
X165798500Y-113601500D03*
X168338500Y-113601500D03*
D11*
X170878500Y-113601500D03*
D10*
X122301000Y-70104000D03*
X122301000Y-72644000D03*
D11*
X122301000Y-75184000D03*
D16*
X170838000Y-101854000D03*
X170188000Y-101854000D03*
X169538000Y-101854000D03*
X168888000Y-101854000D03*
X168238000Y-101854000D03*
X167588000Y-101854000D03*
X166938000Y-101854000D03*
X166288000Y-101854000D03*
X165638000Y-101854000D03*
X164988000Y-101854000D03*
X164338000Y-101854000D03*
X163688000Y-101854000D03*
X163688000Y-109054000D03*
X164338000Y-109054000D03*
X164988000Y-109054000D03*
X165638000Y-109054000D03*
X166288000Y-109054000D03*
X166938000Y-109054000D03*
X167588000Y-109054000D03*
X168238000Y-109054000D03*
X168888000Y-109054000D03*
X169538000Y-109054000D03*
X170188000Y-109054000D03*
X170838000Y-109054000D03*
D10*
X127508000Y-93472000D03*
X127508000Y-90932000D03*
X127508000Y-88392000D03*
D11*
X127508000Y-85852000D03*
D10*
X128143000Y-103632000D03*
X128143000Y-106172000D03*
X128143000Y-108712000D03*
X128143000Y-111252000D03*
D11*
X128143000Y-113792000D03*
D10*
X123571000Y-103632000D03*
X123571000Y-106172000D03*
X123571000Y-108712000D03*
X123571000Y-111252000D03*
D11*
X123571000Y-113792000D03*
D14*
G36*
X162226356Y-91222873D02*
G01*
X162254030Y-91226978D01*
X162281169Y-91233776D01*
X162307510Y-91243201D01*
X162332802Y-91255163D01*
X162356798Y-91269546D01*
X162379270Y-91286212D01*
X162400000Y-91305000D01*
X162418788Y-91325730D01*
X162435454Y-91348202D01*
X162449837Y-91372198D01*
X162461799Y-91397490D01*
X162471224Y-91423831D01*
X162478022Y-91450970D01*
X162482127Y-91478644D01*
X162483500Y-91506588D01*
X162483500Y-93786412D01*
X162482127Y-93814356D01*
X162478022Y-93842030D01*
X162471224Y-93869169D01*
X162461799Y-93895510D01*
X162449837Y-93920802D01*
X162435454Y-93944798D01*
X162418788Y-93967270D01*
X162400000Y-93988000D01*
X162379270Y-94006788D01*
X162356798Y-94023454D01*
X162332802Y-94037837D01*
X162307510Y-94049799D01*
X162281169Y-94059224D01*
X162254030Y-94066022D01*
X162226356Y-94070127D01*
X162198412Y-94071500D01*
X161143588Y-94071500D01*
X161115644Y-94070127D01*
X161087970Y-94066022D01*
X161060831Y-94059224D01*
X161034490Y-94049799D01*
X161009198Y-94037837D01*
X160985202Y-94023454D01*
X160962730Y-94006788D01*
X160942000Y-93988000D01*
X160923212Y-93967270D01*
X160906546Y-93944798D01*
X160892163Y-93920802D01*
X160880201Y-93895510D01*
X160870776Y-93869169D01*
X160863978Y-93842030D01*
X160859873Y-93814356D01*
X160858500Y-93786412D01*
X160858500Y-91506588D01*
X160859873Y-91478644D01*
X160863978Y-91450970D01*
X160870776Y-91423831D01*
X160880201Y-91397490D01*
X160892163Y-91372198D01*
X160906546Y-91348202D01*
X160923212Y-91325730D01*
X160942000Y-91305000D01*
X160962730Y-91286212D01*
X160985202Y-91269546D01*
X161009198Y-91255163D01*
X161034490Y-91243201D01*
X161060831Y-91233776D01*
X161087970Y-91226978D01*
X161115644Y-91222873D01*
X161143588Y-91221500D01*
X162198412Y-91221500D01*
X162226356Y-91222873D01*
X162226356Y-91222873D01*
G37*
D17*
X161671000Y-92646500D03*
D14*
G36*
X165201356Y-91222873D02*
G01*
X165229030Y-91226978D01*
X165256169Y-91233776D01*
X165282510Y-91243201D01*
X165307802Y-91255163D01*
X165331798Y-91269546D01*
X165354270Y-91286212D01*
X165375000Y-91305000D01*
X165393788Y-91325730D01*
X165410454Y-91348202D01*
X165424837Y-91372198D01*
X165436799Y-91397490D01*
X165446224Y-91423831D01*
X165453022Y-91450970D01*
X165457127Y-91478644D01*
X165458500Y-91506588D01*
X165458500Y-93786412D01*
X165457127Y-93814356D01*
X165453022Y-93842030D01*
X165446224Y-93869169D01*
X165436799Y-93895510D01*
X165424837Y-93920802D01*
X165410454Y-93944798D01*
X165393788Y-93967270D01*
X165375000Y-93988000D01*
X165354270Y-94006788D01*
X165331798Y-94023454D01*
X165307802Y-94037837D01*
X165282510Y-94049799D01*
X165256169Y-94059224D01*
X165229030Y-94066022D01*
X165201356Y-94070127D01*
X165173412Y-94071500D01*
X164118588Y-94071500D01*
X164090644Y-94070127D01*
X164062970Y-94066022D01*
X164035831Y-94059224D01*
X164009490Y-94049799D01*
X163984198Y-94037837D01*
X163960202Y-94023454D01*
X163937730Y-94006788D01*
X163917000Y-93988000D01*
X163898212Y-93967270D01*
X163881546Y-93944798D01*
X163867163Y-93920802D01*
X163855201Y-93895510D01*
X163845776Y-93869169D01*
X163838978Y-93842030D01*
X163834873Y-93814356D01*
X163833500Y-93786412D01*
X163833500Y-91506588D01*
X163834873Y-91478644D01*
X163838978Y-91450970D01*
X163845776Y-91423831D01*
X163855201Y-91397490D01*
X163867163Y-91372198D01*
X163881546Y-91348202D01*
X163898212Y-91325730D01*
X163917000Y-91305000D01*
X163937730Y-91286212D01*
X163960202Y-91269546D01*
X163984198Y-91255163D01*
X164009490Y-91243201D01*
X164035831Y-91233776D01*
X164062970Y-91226978D01*
X164090644Y-91222873D01*
X164118588Y-91221500D01*
X165173412Y-91221500D01*
X165201356Y-91222873D01*
X165201356Y-91222873D01*
G37*
D17*
X164646000Y-92646500D03*
D14*
G36*
X156076356Y-86650873D02*
G01*
X156104030Y-86654978D01*
X156131169Y-86661776D01*
X156157510Y-86671201D01*
X156182802Y-86683163D01*
X156206798Y-86697546D01*
X156229270Y-86714212D01*
X156250000Y-86733000D01*
X156268788Y-86753730D01*
X156285454Y-86776202D01*
X156299837Y-86800198D01*
X156311799Y-86825490D01*
X156321224Y-86851831D01*
X156328022Y-86878970D01*
X156332127Y-86906644D01*
X156333500Y-86934588D01*
X156333500Y-89214412D01*
X156332127Y-89242356D01*
X156328022Y-89270030D01*
X156321224Y-89297169D01*
X156311799Y-89323510D01*
X156299837Y-89348802D01*
X156285454Y-89372798D01*
X156268788Y-89395270D01*
X156250000Y-89416000D01*
X156229270Y-89434788D01*
X156206798Y-89451454D01*
X156182802Y-89465837D01*
X156157510Y-89477799D01*
X156131169Y-89487224D01*
X156104030Y-89494022D01*
X156076356Y-89498127D01*
X156048412Y-89499500D01*
X154993588Y-89499500D01*
X154965644Y-89498127D01*
X154937970Y-89494022D01*
X154910831Y-89487224D01*
X154884490Y-89477799D01*
X154859198Y-89465837D01*
X154835202Y-89451454D01*
X154812730Y-89434788D01*
X154792000Y-89416000D01*
X154773212Y-89395270D01*
X154756546Y-89372798D01*
X154742163Y-89348802D01*
X154730201Y-89323510D01*
X154720776Y-89297169D01*
X154713978Y-89270030D01*
X154709873Y-89242356D01*
X154708500Y-89214412D01*
X154708500Y-86934588D01*
X154709873Y-86906644D01*
X154713978Y-86878970D01*
X154720776Y-86851831D01*
X154730201Y-86825490D01*
X154742163Y-86800198D01*
X154756546Y-86776202D01*
X154773212Y-86753730D01*
X154792000Y-86733000D01*
X154812730Y-86714212D01*
X154835202Y-86697546D01*
X154859198Y-86683163D01*
X154884490Y-86671201D01*
X154910831Y-86661776D01*
X154937970Y-86654978D01*
X154965644Y-86650873D01*
X154993588Y-86649500D01*
X156048412Y-86649500D01*
X156076356Y-86650873D01*
X156076356Y-86650873D01*
G37*
D17*
X155521000Y-88074500D03*
D14*
G36*
X159051356Y-86650873D02*
G01*
X159079030Y-86654978D01*
X159106169Y-86661776D01*
X159132510Y-86671201D01*
X159157802Y-86683163D01*
X159181798Y-86697546D01*
X159204270Y-86714212D01*
X159225000Y-86733000D01*
X159243788Y-86753730D01*
X159260454Y-86776202D01*
X159274837Y-86800198D01*
X159286799Y-86825490D01*
X159296224Y-86851831D01*
X159303022Y-86878970D01*
X159307127Y-86906644D01*
X159308500Y-86934588D01*
X159308500Y-89214412D01*
X159307127Y-89242356D01*
X159303022Y-89270030D01*
X159296224Y-89297169D01*
X159286799Y-89323510D01*
X159274837Y-89348802D01*
X159260454Y-89372798D01*
X159243788Y-89395270D01*
X159225000Y-89416000D01*
X159204270Y-89434788D01*
X159181798Y-89451454D01*
X159157802Y-89465837D01*
X159132510Y-89477799D01*
X159106169Y-89487224D01*
X159079030Y-89494022D01*
X159051356Y-89498127D01*
X159023412Y-89499500D01*
X157968588Y-89499500D01*
X157940644Y-89498127D01*
X157912970Y-89494022D01*
X157885831Y-89487224D01*
X157859490Y-89477799D01*
X157834198Y-89465837D01*
X157810202Y-89451454D01*
X157787730Y-89434788D01*
X157767000Y-89416000D01*
X157748212Y-89395270D01*
X157731546Y-89372798D01*
X157717163Y-89348802D01*
X157705201Y-89323510D01*
X157695776Y-89297169D01*
X157688978Y-89270030D01*
X157684873Y-89242356D01*
X157683500Y-89214412D01*
X157683500Y-86934588D01*
X157684873Y-86906644D01*
X157688978Y-86878970D01*
X157695776Y-86851831D01*
X157705201Y-86825490D01*
X157717163Y-86800198D01*
X157731546Y-86776202D01*
X157748212Y-86753730D01*
X157767000Y-86733000D01*
X157787730Y-86714212D01*
X157810202Y-86697546D01*
X157834198Y-86683163D01*
X157859490Y-86671201D01*
X157885831Y-86661776D01*
X157912970Y-86654978D01*
X157940644Y-86650873D01*
X157968588Y-86649500D01*
X159023412Y-86649500D01*
X159051356Y-86650873D01*
X159051356Y-86650873D01*
G37*
D17*
X158496000Y-88074500D03*
D14*
G36*
X165083856Y-86650873D02*
G01*
X165111530Y-86654978D01*
X165138669Y-86661776D01*
X165165010Y-86671201D01*
X165190302Y-86683163D01*
X165214298Y-86697546D01*
X165236770Y-86714212D01*
X165257500Y-86733000D01*
X165276288Y-86753730D01*
X165292954Y-86776202D01*
X165307337Y-86800198D01*
X165319299Y-86825490D01*
X165328724Y-86851831D01*
X165335522Y-86878970D01*
X165339627Y-86906644D01*
X165341000Y-86934588D01*
X165341000Y-89214412D01*
X165339627Y-89242356D01*
X165335522Y-89270030D01*
X165328724Y-89297169D01*
X165319299Y-89323510D01*
X165307337Y-89348802D01*
X165292954Y-89372798D01*
X165276288Y-89395270D01*
X165257500Y-89416000D01*
X165236770Y-89434788D01*
X165214298Y-89451454D01*
X165190302Y-89465837D01*
X165165010Y-89477799D01*
X165138669Y-89487224D01*
X165111530Y-89494022D01*
X165083856Y-89498127D01*
X165055912Y-89499500D01*
X164001088Y-89499500D01*
X163973144Y-89498127D01*
X163945470Y-89494022D01*
X163918331Y-89487224D01*
X163891990Y-89477799D01*
X163866698Y-89465837D01*
X163842702Y-89451454D01*
X163820230Y-89434788D01*
X163799500Y-89416000D01*
X163780712Y-89395270D01*
X163764046Y-89372798D01*
X163749663Y-89348802D01*
X163737701Y-89323510D01*
X163728276Y-89297169D01*
X163721478Y-89270030D01*
X163717373Y-89242356D01*
X163716000Y-89214412D01*
X163716000Y-86934588D01*
X163717373Y-86906644D01*
X163721478Y-86878970D01*
X163728276Y-86851831D01*
X163737701Y-86825490D01*
X163749663Y-86800198D01*
X163764046Y-86776202D01*
X163780712Y-86753730D01*
X163799500Y-86733000D01*
X163820230Y-86714212D01*
X163842702Y-86697546D01*
X163866698Y-86683163D01*
X163891990Y-86671201D01*
X163918331Y-86661776D01*
X163945470Y-86654978D01*
X163973144Y-86650873D01*
X164001088Y-86649500D01*
X165055912Y-86649500D01*
X165083856Y-86650873D01*
X165083856Y-86650873D01*
G37*
D17*
X164528500Y-88074500D03*
D14*
G36*
X162108856Y-86650873D02*
G01*
X162136530Y-86654978D01*
X162163669Y-86661776D01*
X162190010Y-86671201D01*
X162215302Y-86683163D01*
X162239298Y-86697546D01*
X162261770Y-86714212D01*
X162282500Y-86733000D01*
X162301288Y-86753730D01*
X162317954Y-86776202D01*
X162332337Y-86800198D01*
X162344299Y-86825490D01*
X162353724Y-86851831D01*
X162360522Y-86878970D01*
X162364627Y-86906644D01*
X162366000Y-86934588D01*
X162366000Y-89214412D01*
X162364627Y-89242356D01*
X162360522Y-89270030D01*
X162353724Y-89297169D01*
X162344299Y-89323510D01*
X162332337Y-89348802D01*
X162317954Y-89372798D01*
X162301288Y-89395270D01*
X162282500Y-89416000D01*
X162261770Y-89434788D01*
X162239298Y-89451454D01*
X162215302Y-89465837D01*
X162190010Y-89477799D01*
X162163669Y-89487224D01*
X162136530Y-89494022D01*
X162108856Y-89498127D01*
X162080912Y-89499500D01*
X161026088Y-89499500D01*
X160998144Y-89498127D01*
X160970470Y-89494022D01*
X160943331Y-89487224D01*
X160916990Y-89477799D01*
X160891698Y-89465837D01*
X160867702Y-89451454D01*
X160845230Y-89434788D01*
X160824500Y-89416000D01*
X160805712Y-89395270D01*
X160789046Y-89372798D01*
X160774663Y-89348802D01*
X160762701Y-89323510D01*
X160753276Y-89297169D01*
X160746478Y-89270030D01*
X160742373Y-89242356D01*
X160741000Y-89214412D01*
X160741000Y-86934588D01*
X160742373Y-86906644D01*
X160746478Y-86878970D01*
X160753276Y-86851831D01*
X160762701Y-86825490D01*
X160774663Y-86800198D01*
X160789046Y-86776202D01*
X160805712Y-86753730D01*
X160824500Y-86733000D01*
X160845230Y-86714212D01*
X160867702Y-86697546D01*
X160891698Y-86683163D01*
X160916990Y-86671201D01*
X160943331Y-86661776D01*
X160970470Y-86654978D01*
X160998144Y-86650873D01*
X161026088Y-86649500D01*
X162080912Y-86649500D01*
X162108856Y-86650873D01*
X162108856Y-86650873D01*
G37*
D17*
X161553500Y-88074500D03*
D10*
X126111000Y-70104000D03*
X126111000Y-72644000D03*
D11*
X126111000Y-75184000D03*
D10*
X129921000Y-70104000D03*
X129921000Y-72644000D03*
D11*
X129921000Y-75184000D03*
D10*
X133731000Y-70104000D03*
X133731000Y-72644000D03*
D11*
X133731000Y-75184000D03*
D18*
X159639000Y-101860000D03*
X158369000Y-101860000D03*
X157099000Y-101860000D03*
X155829000Y-101860000D03*
X154559000Y-101860000D03*
X153289000Y-101860000D03*
X152019000Y-101860000D03*
X150749000Y-101860000D03*
X150749000Y-108960000D03*
X152019000Y-108960000D03*
X153289000Y-108960000D03*
X154559000Y-108960000D03*
X155829000Y-108960000D03*
X157099000Y-108960000D03*
X158369000Y-108960000D03*
X159639000Y-108960000D03*
X147701000Y-101860000D03*
X146431000Y-101860000D03*
X145161000Y-101860000D03*
X143891000Y-101860000D03*
X142621000Y-101860000D03*
X141351000Y-101860000D03*
X140081000Y-101860000D03*
X138811000Y-101860000D03*
X138811000Y-108960000D03*
X140081000Y-108960000D03*
X141351000Y-108960000D03*
X142621000Y-108960000D03*
X143891000Y-108960000D03*
X145161000Y-108960000D03*
X146431000Y-108960000D03*
X147701000Y-108960000D03*
D10*
X174371000Y-75374500D03*
X171831000Y-75374500D03*
X169291000Y-75374500D03*
X166751000Y-75374500D03*
X164211000Y-75374500D03*
X161671000Y-75374500D03*
X159131000Y-75374500D03*
D11*
X156591000Y-75374500D03*
D19*
X118745000Y-103505000D03*
X118745000Y-108585000D03*
X118745000Y-113665000D03*
X118745000Y-65405000D03*
X118745000Y-70485000D03*
X118745000Y-75565000D03*
D14*
G36*
X115848856Y-107937373D02*
G01*
X115876530Y-107941478D01*
X115903669Y-107948276D01*
X115930010Y-107957701D01*
X115955302Y-107969663D01*
X115979298Y-107984046D01*
X116001770Y-108000712D01*
X116022500Y-108019500D01*
X116041288Y-108040230D01*
X116057954Y-108062702D01*
X116072337Y-108086698D01*
X116084299Y-108111990D01*
X116093724Y-108138331D01*
X116100522Y-108165470D01*
X116104627Y-108193144D01*
X116106000Y-108221088D01*
X116106000Y-109275912D01*
X116104627Y-109303856D01*
X116100522Y-109331530D01*
X116093724Y-109358669D01*
X116084299Y-109385010D01*
X116072337Y-109410302D01*
X116057954Y-109434298D01*
X116041288Y-109456770D01*
X116022500Y-109477500D01*
X116001770Y-109496288D01*
X115979298Y-109512954D01*
X115955302Y-109527337D01*
X115930010Y-109539299D01*
X115903669Y-109548724D01*
X115876530Y-109555522D01*
X115848856Y-109559627D01*
X115820912Y-109561000D01*
X113541088Y-109561000D01*
X113513144Y-109559627D01*
X113485470Y-109555522D01*
X113458331Y-109548724D01*
X113431990Y-109539299D01*
X113406698Y-109527337D01*
X113382702Y-109512954D01*
X113360230Y-109496288D01*
X113339500Y-109477500D01*
X113320712Y-109456770D01*
X113304046Y-109434298D01*
X113289663Y-109410302D01*
X113277701Y-109385010D01*
X113268276Y-109358669D01*
X113261478Y-109331530D01*
X113257373Y-109303856D01*
X113256000Y-109275912D01*
X113256000Y-108221088D01*
X113257373Y-108193144D01*
X113261478Y-108165470D01*
X113268276Y-108138331D01*
X113277701Y-108111990D01*
X113289663Y-108086698D01*
X113304046Y-108062702D01*
X113320712Y-108040230D01*
X113339500Y-108019500D01*
X113360230Y-108000712D01*
X113382702Y-107984046D01*
X113406698Y-107969663D01*
X113431990Y-107957701D01*
X113458331Y-107948276D01*
X113485470Y-107941478D01*
X113513144Y-107937373D01*
X113541088Y-107936000D01*
X115820912Y-107936000D01*
X115848856Y-107937373D01*
X115848856Y-107937373D01*
G37*
D17*
X114681000Y-108748500D03*
D14*
G36*
X115848856Y-110912373D02*
G01*
X115876530Y-110916478D01*
X115903669Y-110923276D01*
X115930010Y-110932701D01*
X115955302Y-110944663D01*
X115979298Y-110959046D01*
X116001770Y-110975712D01*
X116022500Y-110994500D01*
X116041288Y-111015230D01*
X116057954Y-111037702D01*
X116072337Y-111061698D01*
X116084299Y-111086990D01*
X116093724Y-111113331D01*
X116100522Y-111140470D01*
X116104627Y-111168144D01*
X116106000Y-111196088D01*
X116106000Y-112250912D01*
X116104627Y-112278856D01*
X116100522Y-112306530D01*
X116093724Y-112333669D01*
X116084299Y-112360010D01*
X116072337Y-112385302D01*
X116057954Y-112409298D01*
X116041288Y-112431770D01*
X116022500Y-112452500D01*
X116001770Y-112471288D01*
X115979298Y-112487954D01*
X115955302Y-112502337D01*
X115930010Y-112514299D01*
X115903669Y-112523724D01*
X115876530Y-112530522D01*
X115848856Y-112534627D01*
X115820912Y-112536000D01*
X113541088Y-112536000D01*
X113513144Y-112534627D01*
X113485470Y-112530522D01*
X113458331Y-112523724D01*
X113431990Y-112514299D01*
X113406698Y-112502337D01*
X113382702Y-112487954D01*
X113360230Y-112471288D01*
X113339500Y-112452500D01*
X113320712Y-112431770D01*
X113304046Y-112409298D01*
X113289663Y-112385302D01*
X113277701Y-112360010D01*
X113268276Y-112333669D01*
X113261478Y-112306530D01*
X113257373Y-112278856D01*
X113256000Y-112250912D01*
X113256000Y-111196088D01*
X113257373Y-111168144D01*
X113261478Y-111140470D01*
X113268276Y-111113331D01*
X113277701Y-111086990D01*
X113289663Y-111061698D01*
X113304046Y-111037702D01*
X113320712Y-111015230D01*
X113339500Y-110994500D01*
X113360230Y-110975712D01*
X113382702Y-110959046D01*
X113406698Y-110944663D01*
X113431990Y-110932701D01*
X113458331Y-110923276D01*
X113485470Y-110916478D01*
X113513144Y-110912373D01*
X113541088Y-110911000D01*
X115820912Y-110911000D01*
X115848856Y-110912373D01*
X115848856Y-110912373D01*
G37*
D17*
X114681000Y-111723500D03*
D14*
G36*
X115721856Y-69800873D02*
G01*
X115749530Y-69804978D01*
X115776669Y-69811776D01*
X115803010Y-69821201D01*
X115828302Y-69833163D01*
X115852298Y-69847546D01*
X115874770Y-69864212D01*
X115895500Y-69883000D01*
X115914288Y-69903730D01*
X115930954Y-69926202D01*
X115945337Y-69950198D01*
X115957299Y-69975490D01*
X115966724Y-70001831D01*
X115973522Y-70028970D01*
X115977627Y-70056644D01*
X115979000Y-70084588D01*
X115979000Y-71139412D01*
X115977627Y-71167356D01*
X115973522Y-71195030D01*
X115966724Y-71222169D01*
X115957299Y-71248510D01*
X115945337Y-71273802D01*
X115930954Y-71297798D01*
X115914288Y-71320270D01*
X115895500Y-71341000D01*
X115874770Y-71359788D01*
X115852298Y-71376454D01*
X115828302Y-71390837D01*
X115803010Y-71402799D01*
X115776669Y-71412224D01*
X115749530Y-71419022D01*
X115721856Y-71423127D01*
X115693912Y-71424500D01*
X113414088Y-71424500D01*
X113386144Y-71423127D01*
X113358470Y-71419022D01*
X113331331Y-71412224D01*
X113304990Y-71402799D01*
X113279698Y-71390837D01*
X113255702Y-71376454D01*
X113233230Y-71359788D01*
X113212500Y-71341000D01*
X113193712Y-71320270D01*
X113177046Y-71297798D01*
X113162663Y-71273802D01*
X113150701Y-71248510D01*
X113141276Y-71222169D01*
X113134478Y-71195030D01*
X113130373Y-71167356D01*
X113129000Y-71139412D01*
X113129000Y-70084588D01*
X113130373Y-70056644D01*
X113134478Y-70028970D01*
X113141276Y-70001831D01*
X113150701Y-69975490D01*
X113162663Y-69950198D01*
X113177046Y-69926202D01*
X113193712Y-69903730D01*
X113212500Y-69883000D01*
X113233230Y-69864212D01*
X113255702Y-69847546D01*
X113279698Y-69833163D01*
X113304990Y-69821201D01*
X113331331Y-69811776D01*
X113358470Y-69804978D01*
X113386144Y-69800873D01*
X113414088Y-69799500D01*
X115693912Y-69799500D01*
X115721856Y-69800873D01*
X115721856Y-69800873D01*
G37*
D17*
X114554000Y-70612000D03*
D14*
G36*
X115721856Y-66825873D02*
G01*
X115749530Y-66829978D01*
X115776669Y-66836776D01*
X115803010Y-66846201D01*
X115828302Y-66858163D01*
X115852298Y-66872546D01*
X115874770Y-66889212D01*
X115895500Y-66908000D01*
X115914288Y-66928730D01*
X115930954Y-66951202D01*
X115945337Y-66975198D01*
X115957299Y-67000490D01*
X115966724Y-67026831D01*
X115973522Y-67053970D01*
X115977627Y-67081644D01*
X115979000Y-67109588D01*
X115979000Y-68164412D01*
X115977627Y-68192356D01*
X115973522Y-68220030D01*
X115966724Y-68247169D01*
X115957299Y-68273510D01*
X115945337Y-68298802D01*
X115930954Y-68322798D01*
X115914288Y-68345270D01*
X115895500Y-68366000D01*
X115874770Y-68384788D01*
X115852298Y-68401454D01*
X115828302Y-68415837D01*
X115803010Y-68427799D01*
X115776669Y-68437224D01*
X115749530Y-68444022D01*
X115721856Y-68448127D01*
X115693912Y-68449500D01*
X113414088Y-68449500D01*
X113386144Y-68448127D01*
X113358470Y-68444022D01*
X113331331Y-68437224D01*
X113304990Y-68427799D01*
X113279698Y-68415837D01*
X113255702Y-68401454D01*
X113233230Y-68384788D01*
X113212500Y-68366000D01*
X113193712Y-68345270D01*
X113177046Y-68322798D01*
X113162663Y-68298802D01*
X113150701Y-68273510D01*
X113141276Y-68247169D01*
X113134478Y-68220030D01*
X113130373Y-68192356D01*
X113129000Y-68164412D01*
X113129000Y-67109588D01*
X113130373Y-67081644D01*
X113134478Y-67053970D01*
X113141276Y-67026831D01*
X113150701Y-67000490D01*
X113162663Y-66975198D01*
X113177046Y-66951202D01*
X113193712Y-66928730D01*
X113212500Y-66908000D01*
X113233230Y-66889212D01*
X113255702Y-66872546D01*
X113279698Y-66858163D01*
X113304990Y-66846201D01*
X113331331Y-66836776D01*
X113358470Y-66829978D01*
X113386144Y-66825873D01*
X113414088Y-66824500D01*
X115693912Y-66824500D01*
X115721856Y-66825873D01*
X115721856Y-66825873D01*
G37*
D17*
X114554000Y-67637000D03*
M02*
