M48
; DRILL file {KiCad (5.1.4-0-10_14)} date Sunday, 23 February 2020 at 16:46:46
; FORMAT={-:-/ absolute / inch / decimal}
; #@! TF.CreationDate,2020-02-23T16:46:46+00:00
; #@! TF.GenerationSoftware,Kicad,Pcbnew,(5.1.4-0-10_14)
; #@! TF.FileFunction,Plated,1,2,PTH
FMAT,2
INCH
T1C0.0079
T2C0.0315
T3C0.0394
%
G90
G05
T1
X5.4Y-3.91
X5.56Y-4.12
X5.565Y-3.94
X5.565Y-4.0925
X5.61Y-3.94
X5.615Y-4.07
X5.7093Y-3.9393
X5.87Y-4.15
X5.87Y-4.66
X6.035Y-4.0925
X6.085Y-4.07
X6.18Y-4.07
X6.35Y-4.07
X6.41Y-3.93
X6.51Y-3.91
X6.62Y-3.94
X6.62Y-4.07
X6.6605Y-3.9164
X6.72Y-3.94
T2
X5.365Y-3.23
X5.365Y-3.83
X5.465Y-3.23
X5.465Y-3.83
X5.565Y-3.23
X5.565Y-3.83
X5.665Y-3.23
X5.665Y-3.83
X5.765Y-3.23
X5.765Y-3.83
X5.865Y-3.23
X5.865Y-3.83
X5.965Y-3.23
X5.965Y-3.83
X6.065Y-3.23
X6.065Y-3.83
X6.165Y-3.23
X6.165Y-3.83
X6.265Y-3.23
X6.265Y-3.83
X6.365Y-3.23
X6.365Y-3.83
X6.465Y-3.23
X6.465Y-3.83
X6.565Y-3.23
X6.565Y-3.83
X6.665Y-3.23
X6.665Y-3.83
X6.765Y-3.23
X6.765Y-3.83
T3
X6.4275Y-4.4725
X6.5275Y-4.4725
X6.6275Y-4.4725
X4.675Y-2.575
X4.675Y-2.775
X6.7275Y-4.4725
X5.96Y-3.68
X6.06Y-3.68
X6.26Y-3.68
X5.97Y-4.39
X6.07Y-4.39
X6.16Y-3.68
X4.675Y-4.075
X4.675Y-4.275
X4.675Y-4.475
X6.17Y-4.39
X6.27Y-4.39
X5.265Y-2.76
X5.265Y-2.86
X5.265Y-2.96
X5.02Y-3.38
X5.02Y-3.48
X5.02Y-3.58
X5.02Y-3.68
X4.865Y-4.08
X4.865Y-4.18
X4.865Y-4.28
X4.865Y-4.38
X4.865Y-4.48
X4.675Y-2.975
X4.965Y-2.86
X4.965Y-2.96
X5.045Y-4.48
X4.965Y-2.76
X5.045Y-4.08
X5.045Y-4.18
X5.045Y-4.28
X6.165Y-2.9675
X6.265Y-2.9675
X6.365Y-2.9675
X6.465Y-2.9675
X6.565Y-2.9675
X6.665Y-2.9675
X6.765Y-2.9675
X6.865Y-2.9675
X4.815Y-2.76
X4.815Y-2.86
X4.815Y-2.96
X5.045Y-4.38
X5.115Y-2.76
X5.115Y-2.86
X5.115Y-2.96
T0
M30
