G04 #@! TF.GenerationSoftware,KiCad,Pcbnew,(5.1.4-0-10_14)*
G04 #@! TF.CreationDate,2020-02-23T16:46:41+00:00*
G04 #@! TF.ProjectId,Bottom PCB,426f7474-6f6d-4205-9043-422e6b696361,rev?*
G04 #@! TF.SameCoordinates,Original*
G04 #@! TF.FileFunction,Legend,Top*
G04 #@! TF.FilePolarity,Positive*
%FSLAX46Y46*%
G04 Gerber Fmt 4.6, Leading zero omitted, Abs format (unit mm)*
G04 Created by KiCad (PCBNEW (5.1.4-0-10_14)) date 2020-02-23 16:46:41*
%MOMM*%
%LPD*%
G04 APERTURE LIST*
%ADD10C,0.120000*%
%ADD11C,0.200000*%
%ADD12C,0.150000*%
G04 APERTURE END LIST*
D10*
X150054000Y-94802000D02*
X150054000Y-93472000D01*
X151384000Y-94802000D02*
X150054000Y-94802000D01*
X152654000Y-94802000D02*
X152654000Y-92142000D01*
X152654000Y-92142000D02*
X160334000Y-92142000D01*
X152654000Y-94802000D02*
X160334000Y-94802000D01*
X160334000Y-94802000D02*
X160334000Y-92142000D01*
X160588000Y-110176000D02*
X160588000Y-111506000D01*
X159258000Y-110176000D02*
X160588000Y-110176000D01*
X157988000Y-110176000D02*
X157988000Y-112836000D01*
X157988000Y-112836000D02*
X150308000Y-112836000D01*
X157988000Y-110176000D02*
X150308000Y-110176000D01*
X150308000Y-110176000D02*
X150308000Y-112836000D01*
X175771000Y-98682000D02*
X175771000Y-80642000D01*
X132331000Y-98682000D02*
X175771000Y-98682000D01*
X132331000Y-80642000D02*
X132331000Y-98682000D01*
X135001000Y-83312000D02*
X135001000Y-80642000D01*
X170561000Y-83312000D02*
X135001000Y-83312000D01*
X170561000Y-83312000D02*
X170561000Y-80642000D01*
X135001000Y-96012000D02*
X135001000Y-98682000D01*
X173101000Y-96012000D02*
X135001000Y-96012000D01*
X173101000Y-96012000D02*
X173101000Y-98682000D01*
X175771000Y-80642000D02*
X173101000Y-80642000D01*
X170561000Y-80642000D02*
X132331000Y-80642000D01*
X173101000Y-83312000D02*
X173101000Y-80642000D01*
X170561000Y-83312000D02*
X173101000Y-83312000D01*
X142856000Y-90732000D02*
X142856000Y-91542000D01*
X142816000Y-91252000D02*
X142856000Y-90732000D01*
X142746000Y-91002000D02*
X142816000Y-91252000D01*
X143066000Y-88932000D02*
X142746000Y-91002000D01*
X143006000Y-88832000D02*
X143066000Y-88932000D01*
X143006000Y-93112000D02*
X143006000Y-88832000D01*
X143076000Y-93142000D02*
X143006000Y-93112000D01*
X143176000Y-93172000D02*
X143076000Y-93142000D01*
X143026000Y-93212000D02*
X143176000Y-93172000D01*
X143026000Y-93072000D02*
X143026000Y-93212000D01*
X143246000Y-93072000D02*
X143026000Y-93072000D01*
X143246000Y-93282000D02*
X143246000Y-93072000D01*
X142926000Y-93312000D02*
X143246000Y-93282000D01*
X142906000Y-88742000D02*
X142926000Y-93312000D01*
X143056000Y-88732000D02*
X142906000Y-88742000D01*
X143136000Y-88982000D02*
X143056000Y-88732000D01*
X143146000Y-88642000D02*
X143136000Y-88982000D01*
X143236000Y-88952000D02*
X143146000Y-88642000D01*
X143236000Y-88662000D02*
X143236000Y-88952000D01*
X146336000Y-91162000D02*
X146386000Y-90822000D01*
X146296000Y-90652000D02*
X146336000Y-91162000D01*
X146266000Y-91242000D02*
X146296000Y-90652000D01*
X146236000Y-90652000D02*
X146266000Y-91242000D01*
X146226000Y-93192000D02*
X146096000Y-89362000D01*
X146076000Y-93152000D02*
X146226000Y-93192000D01*
X146136000Y-91112000D02*
X146076000Y-93152000D01*
X146156000Y-93162000D02*
X146136000Y-91112000D01*
X146106000Y-89322000D02*
X146046000Y-88972000D01*
X146186000Y-88792000D02*
X146106000Y-89322000D01*
X145856000Y-88932000D02*
X146186000Y-88792000D01*
X146216000Y-88902000D02*
X145856000Y-88932000D01*
X145856000Y-88852000D02*
X146216000Y-88902000D01*
X146146000Y-88752000D02*
X145856000Y-88852000D01*
X145866000Y-88732000D02*
X146146000Y-88752000D01*
X146186000Y-88592000D02*
X145866000Y-88732000D01*
X146226000Y-93042000D02*
X146186000Y-88592000D01*
X145856000Y-93092000D02*
X146226000Y-93042000D01*
X146206000Y-93142000D02*
X145856000Y-93092000D01*
X145866000Y-93172000D02*
X146206000Y-93142000D01*
X146226000Y-93272000D02*
X145866000Y-93172000D01*
X145816000Y-93262000D02*
X146226000Y-93272000D01*
X144816000Y-93072000D02*
X145006000Y-92932000D01*
X144936000Y-92972000D02*
X144816000Y-93072000D01*
X145216000Y-92222000D02*
X144936000Y-92972000D01*
X145166000Y-91892000D02*
X145216000Y-92222000D01*
X144696000Y-92202000D02*
X144786000Y-92112000D01*
X144696000Y-92162000D02*
X144696000Y-92202000D01*
X144456000Y-92162000D02*
X144696000Y-92162000D01*
X144526000Y-92202000D02*
X144456000Y-92162000D01*
X144346000Y-92042000D02*
X144526000Y-92202000D01*
X144196000Y-89402000D02*
X144346000Y-92042000D01*
X143996000Y-89202000D02*
X144196000Y-89402000D01*
X143866000Y-89272000D02*
X143996000Y-89202000D01*
X143646000Y-89382000D02*
X143866000Y-89272000D01*
X143486000Y-90022000D02*
X143646000Y-89382000D01*
X143496000Y-90432000D02*
X143486000Y-90022000D01*
D11*
X142774282Y-90510160D02*
X142767879Y-90548140D01*
X142778893Y-90455200D02*
X142774282Y-90510160D01*
X142782148Y-90374200D02*
X142778893Y-90455200D01*
X142789797Y-88936700D02*
X142786976Y-89221640D01*
X142784209Y-90258160D02*
X142782148Y-90374200D01*
X142785348Y-90097950D02*
X142784209Y-90258160D01*
X146421363Y-91231680D02*
X146435473Y-91219680D01*
X146404973Y-91246540D02*
X146421363Y-91231680D01*
X146390763Y-91262110D02*
X146404973Y-91246540D01*
X146378613Y-91280180D02*
X146390763Y-91262110D01*
X146368363Y-91302590D02*
X146378613Y-91280180D01*
X146327553Y-89323851D02*
X146327073Y-89113570D01*
X146327663Y-89527140D02*
X146327553Y-89323851D01*
X146327663Y-89594910D02*
X146327663Y-89527140D01*
X146327663Y-89642700D02*
X146327663Y-89594910D01*
X146455433Y-90746270D02*
X146446003Y-90741110D01*
X146494333Y-90768520D02*
X146455433Y-90746270D01*
X146494333Y-91168530D02*
X146494333Y-90768520D01*
X146440193Y-91215730D02*
X146494333Y-91168530D01*
X146435473Y-91219680D02*
X146440193Y-91215730D01*
X146338513Y-90507500D02*
X146335863Y-90448790D01*
X146339933Y-90529470D02*
X146338513Y-90507500D01*
X146341553Y-90536590D02*
X146339933Y-90529470D01*
X146345683Y-90554160D02*
X146341553Y-90536590D01*
X146362663Y-90605860D02*
X146345683Y-90554160D01*
X146390653Y-90667990D02*
X146362663Y-90605860D01*
X146422613Y-90716810D02*
X146390653Y-90667990D01*
X146446003Y-90741110D02*
X146422613Y-90716810D01*
X142785837Y-89884520D02*
X142785348Y-90097950D01*
X142786000Y-89677700D02*
X142785837Y-89884520D01*
X146323973Y-88842090D02*
X146320943Y-88764450D01*
X146325933Y-88955740D02*
X146323973Y-88842090D01*
X146327073Y-89113570D02*
X146325933Y-88955740D01*
X146327893Y-89786200D02*
X146327663Y-89642700D01*
X146328643Y-89960740D02*
X146327893Y-89786200D01*
X146329833Y-90116450D02*
X146328643Y-89960740D01*
X146331463Y-90251100D02*
X146329833Y-90116450D01*
X146333473Y-90362590D02*
X146331463Y-90251100D01*
X146335863Y-90448790D02*
X146333473Y-90362590D01*
X146359733Y-91331290D02*
X146368363Y-91302590D01*
X146352683Y-91368020D02*
X146359733Y-91331290D01*
X146346933Y-91414670D02*
X146352683Y-91368020D01*
X142794191Y-88756250D02*
X142789797Y-88936700D01*
X144430413Y-90101850D02*
X144430413Y-90101850D01*
X144429443Y-90099570D02*
X144430413Y-90101850D01*
X144429663Y-90091540D02*
X144429443Y-90099570D01*
X144440293Y-90085140D02*
X144429663Y-90091540D01*
X144465733Y-90081880D02*
X144440293Y-90085140D01*
X144498623Y-90081020D02*
X144465733Y-90081880D01*
X144509643Y-90081020D02*
X144498623Y-90081020D01*
X144598503Y-90081020D02*
X144509643Y-90081020D01*
X144895693Y-91032410D02*
X144598503Y-90081020D01*
X144910683Y-91080200D02*
X144895693Y-91032410D01*
X144955703Y-91223750D02*
X144910683Y-91080200D01*
X145011973Y-91402630D02*
X144955703Y-91223750D01*
X145063293Y-91564960D02*
X145011973Y-91402630D01*
X145108373Y-91706880D02*
X145063293Y-91564960D01*
X145145973Y-91824350D02*
X145108373Y-91706880D01*
X145174773Y-91913430D02*
X145145973Y-91824350D01*
X145193663Y-91970230D02*
X145174773Y-91913430D01*
X145200223Y-91990030D02*
X145193663Y-91970230D01*
X145201253Y-91990740D02*
X145200223Y-91990030D01*
X145201253Y-91990740D02*
X145201253Y-91990740D01*
X145207983Y-91972730D02*
X145201253Y-91990740D01*
X145225463Y-91918310D02*
X145207983Y-91972730D01*
X145252363Y-91831290D02*
X145225463Y-91918310D01*
X145287513Y-91715560D02*
X145252363Y-91831290D01*
X145329833Y-91575040D02*
X145287513Y-91715560D01*
X145378013Y-91413590D02*
X145329833Y-91575040D01*
X145430913Y-91235100D02*
X145378013Y-91413590D01*
X145473273Y-91091430D02*
X145430913Y-91235100D01*
X145487393Y-91043530D02*
X145473273Y-91091430D01*
X145766583Y-90087960D02*
X145487393Y-91043530D01*
X145845733Y-90083780D02*
X145766583Y-90087960D01*
X145853333Y-90083290D02*
X145845733Y-90083780D01*
X145876223Y-90082920D02*
X145853333Y-90083290D01*
X145901403Y-90084270D02*
X145876223Y-90082920D01*
X145918543Y-90087470D02*
X145901403Y-90084270D01*
X145924893Y-90090950D02*
X145918543Y-90087470D01*
X145924893Y-90092140D02*
X145924893Y-90090950D01*
X145924893Y-90100170D02*
X145924893Y-90092140D01*
X145916043Y-90124250D02*
X145924893Y-90100170D01*
X145890823Y-90211450D02*
X145916043Y-90124250D01*
X145850893Y-90347670D02*
X145890823Y-90211450D01*
X145798153Y-90526970D02*
X145850893Y-90347670D01*
X145734293Y-90743340D02*
X145798153Y-90526970D01*
X145661223Y-90990740D02*
X145734293Y-90743340D01*
X145580593Y-91263140D02*
X145661223Y-90990740D01*
X145515873Y-91481780D02*
X145580593Y-91263140D01*
X145494333Y-91554660D02*
X145515873Y-91481780D01*
X145466123Y-91649430D02*
X145494333Y-91554660D01*
X145381203Y-91933820D02*
X145466123Y-91649430D01*
X145286763Y-92248660D02*
X145381203Y-91933820D01*
X145209393Y-92503976D02*
X145286763Y-92248660D01*
X145147593Y-92704769D02*
X145209393Y-92503976D01*
X145099803Y-92855865D02*
X145147593Y-92704769D01*
X145064433Y-92962201D02*
X145099803Y-92855865D01*
X145039963Y-93028662D02*
X145064433Y-92962201D01*
X145029823Y-93053131D02*
X145039963Y-93028662D01*
X145024873Y-93060183D02*
X145029823Y-93053131D01*
X145010983Y-93079932D02*
X145024873Y-93060183D01*
X144926623Y-93148887D02*
X145010983Y-93079932D01*
X144829453Y-93178239D02*
X144926623Y-93148887D01*
X144797123Y-93178239D02*
X144829453Y-93178239D01*
X144716553Y-93178239D02*
X144797123Y-93178239D01*
X144716553Y-92976850D02*
X144716553Y-93178239D01*
X144772113Y-92975439D02*
X144716553Y-92976850D01*
X144785233Y-92974951D02*
X144772113Y-92975439D01*
X144824473Y-92967410D02*
X144785233Y-92974951D01*
X144865153Y-92945546D02*
X144824473Y-92967410D01*
X144897483Y-92907082D02*
X144865153Y-92945546D01*
X144919193Y-92864003D02*
X144897483Y-92907082D01*
X144924893Y-92849083D02*
X144919193Y-92864003D01*
X144930693Y-92833404D02*
X144924893Y-92849083D01*
X144946973Y-92785986D02*
X144930693Y-92833404D01*
X144974153Y-92703142D02*
X144946973Y-92785986D01*
X145003983Y-92608794D02*
X144974153Y-92703142D01*
X145033893Y-92511029D02*
X145003983Y-92608794D01*
X145061503Y-92418039D02*
X145033893Y-92511029D01*
X145084233Y-92337910D02*
X145061503Y-92418039D01*
X145099693Y-92278880D02*
X145084233Y-92337910D01*
X145105443Y-92256530D02*
X145099693Y-92278880D01*
X145105443Y-92249090D02*
X145105443Y-92256530D01*
X145105443Y-92242420D02*
X145105443Y-92249090D01*
X145098273Y-92222460D02*
X145105443Y-92242420D01*
X145078043Y-92154750D02*
X145098273Y-92222460D01*
X145046583Y-92051720D02*
X145078043Y-92154750D01*
X145005623Y-91919020D02*
X145046583Y-92051720D01*
X144956963Y-91762430D02*
X145005623Y-91919020D01*
X144902483Y-91587740D02*
X144956963Y-91762430D01*
X144843893Y-91400570D02*
X144902483Y-91587740D01*
X144783013Y-91206720D02*
X144843893Y-91400570D01*
X144721713Y-91011850D02*
X144783013Y-91206720D01*
X144661703Y-90821740D02*
X144721713Y-91011850D01*
X144604793Y-90642160D02*
X144661703Y-90821740D01*
X144552873Y-90478750D02*
X144604793Y-90642160D01*
X144507683Y-90337250D02*
X144552873Y-90478750D01*
X144470943Y-90223490D02*
X144507683Y-90337250D01*
X144444643Y-90143090D02*
X144470943Y-90223490D01*
X144434273Y-90111990D02*
X144444643Y-90143090D01*
X144430413Y-90101850D02*
X144434273Y-90111990D01*
X143723503Y-89196310D02*
X143723503Y-89196310D01*
X143733643Y-89191530D02*
X143723503Y-89196310D01*
X143764843Y-89178840D02*
X143733643Y-89191530D01*
X143804233Y-89169340D02*
X143764843Y-89178840D01*
X143855333Y-89166360D02*
X143804233Y-89169340D01*
X143912733Y-89167660D02*
X143855333Y-89166360D01*
X143931833Y-89168530D02*
X143912733Y-89167660D01*
X143949463Y-89168960D02*
X143931833Y-89168530D01*
X144002473Y-89171780D02*
X143949463Y-89168960D01*
X144054553Y-89178070D02*
X144002473Y-89171780D01*
X144094863Y-89188220D02*
X144054553Y-89178070D01*
X144121833Y-89198910D02*
X144094863Y-89188220D01*
X144130463Y-89203250D02*
X144121833Y-89198910D01*
X144145973Y-89211390D02*
X144130463Y-89203250D01*
X144189653Y-89241660D02*
X144145973Y-89211390D01*
X144245843Y-89291790D02*
X144189653Y-89241660D01*
X144295053Y-89349740D02*
X144245843Y-89291790D01*
X144325113Y-89395361D02*
X144295053Y-89349740D01*
X144333193Y-89411590D02*
X144325113Y-89395361D01*
X144336623Y-89418310D02*
X144333193Y-89411590D01*
X144346653Y-89438660D02*
X144336623Y-89418310D01*
X144358433Y-89464920D02*
X144346653Y-89438660D01*
X144368733Y-89492160D02*
X144358433Y-89464920D01*
X144377583Y-89522310D02*
X144368733Y-89492160D01*
X144385073Y-89557200D02*
X144377583Y-89522310D01*
X144391363Y-89598700D02*
X144385073Y-89557200D01*
X144396513Y-89648670D02*
X144391363Y-89598700D01*
X144400753Y-89708950D02*
X144396513Y-89648670D01*
X144404003Y-89781430D02*
X144400753Y-89708950D01*
X144406503Y-89867960D02*
X144404003Y-89781430D01*
X144408343Y-89970450D02*
X144406503Y-89867960D01*
X144409543Y-90090670D02*
X144408343Y-89970450D01*
X144410343Y-90230540D02*
X144409543Y-90090670D01*
X144410773Y-90391890D02*
X144410343Y-90230540D01*
X144410943Y-90576630D02*
X144410773Y-90391890D01*
X144411003Y-90734070D02*
X144410943Y-90576630D01*
X144411003Y-90786590D02*
X144411003Y-90734070D01*
X144411003Y-90839320D02*
X144411003Y-90786590D01*
X144411003Y-90997680D02*
X144411003Y-90839320D01*
X144411113Y-91182360D02*
X144411003Y-90997680D01*
X144411483Y-91342410D02*
X144411113Y-91182360D01*
X144412253Y-91479780D02*
X144411483Y-91342410D01*
X144413443Y-91596320D02*
X144412253Y-91479780D01*
X144415233Y-91693860D02*
X144413443Y-91596320D01*
X144417723Y-91774380D02*
X144415233Y-91693860D01*
X144421043Y-91839700D02*
X144417723Y-91774380D01*
X144425323Y-91891670D02*
X144421043Y-91839700D01*
X144430643Y-91932200D02*
X144425323Y-91891670D01*
X144437153Y-91963240D02*
X144430643Y-91932200D01*
X144444963Y-91986560D02*
X144437153Y-91963240D01*
X144454183Y-92004090D02*
X144444963Y-91986560D01*
X144464933Y-92017700D02*
X144454183Y-92004090D01*
X144477343Y-92029310D02*
X144464933Y-92017700D01*
X144487983Y-92037880D02*
X144477343Y-92029310D01*
X144491573Y-92040760D02*
X144487983Y-92037880D01*
X144496833Y-92044670D02*
X144491573Y-92040760D01*
X144513803Y-92054920D02*
X144496833Y-92044670D01*
X144536483Y-92062790D02*
X144513803Y-92054920D01*
X144565143Y-92065120D02*
X144536483Y-92062790D01*
X144595403Y-92063820D02*
X144565143Y-92065120D01*
X144605443Y-92062950D02*
X144595403Y-92063820D01*
X144615863Y-92061870D02*
X144605443Y-92062950D01*
X144670003Y-92054600D02*
X144615863Y-92061870D01*
X144713083Y-92047330D02*
X144670003Y-92054600D01*
X144717973Y-92046290D02*
X144713083Y-92047330D01*
X144723123Y-92044880D02*
X144717973Y-92046290D01*
X144739233Y-92042390D02*
X144723123Y-92044880D01*
X144752153Y-92048360D02*
X144739233Y-92042390D01*
X144761093Y-92068920D02*
X144752153Y-92048360D01*
X144768413Y-92098760D02*
X144761093Y-92068920D01*
X144770693Y-92108790D02*
X144768413Y-92098760D01*
X144772653Y-92117910D02*
X144770693Y-92108790D01*
X144778233Y-92145360D02*
X144772653Y-92117910D01*
X144783013Y-92173790D02*
X144778233Y-92145360D01*
X144784643Y-92195330D02*
X144783013Y-92173790D01*
X144782843Y-92211390D02*
X144784643Y-92195330D01*
X144777263Y-92223160D02*
X144782843Y-92211390D01*
X144767553Y-92232000D02*
X144777263Y-92223160D01*
X144753443Y-92239270D02*
X144767553Y-92232000D01*
X144739343Y-92244640D02*
X144753443Y-92239270D01*
X144734623Y-92246270D02*
X144739343Y-92244640D01*
X144718453Y-92251320D02*
X144734623Y-92246270D01*
X144668163Y-92260490D02*
X144718453Y-92251320D01*
X144583523Y-92270580D02*
X144668163Y-92260490D01*
X144502583Y-92274380D02*
X144583523Y-92270580D01*
X144458903Y-92273020D02*
X144502583Y-92274380D01*
X144447143Y-92269930D02*
X144458903Y-92273020D01*
X144435473Y-92267050D02*
X144447143Y-92269930D01*
X144402753Y-92249580D02*
X144435473Y-92267050D01*
X144358053Y-92212420D02*
X144402753Y-92249580D01*
X144317193Y-92163050D02*
X144358053Y-92212420D01*
X144291373Y-92120890D02*
X144317193Y-92163050D01*
X144284583Y-92106030D02*
X144291373Y-92120890D01*
X144251273Y-92032410D02*
X144284583Y-92106030D01*
X144244333Y-90844910D02*
X144251273Y-92032410D01*
X144243843Y-90769380D02*
X144244333Y-90844910D01*
X144242163Y-90542820D02*
X144243843Y-90769380D01*
X144239833Y-90288860D02*
X144242163Y-90542820D01*
X144237273Y-90079990D02*
X144239833Y-90288860D01*
X144234403Y-89913270D02*
X144237273Y-90079990D01*
X144231263Y-89785770D02*
X144234403Y-89913270D01*
X144227733Y-89694520D02*
X144231263Y-89785770D01*
X144223723Y-89636460D02*
X144227733Y-89694520D01*
X144221543Y-89615310D02*
X144223723Y-89636460D01*
X144219323Y-89608790D02*
X144221543Y-89615310D01*
X144212593Y-89588990D02*
X144219323Y-89608790D01*
X144185083Y-89532090D02*
X144212593Y-89588990D01*
X144140163Y-89468340D02*
X144185083Y-89532090D01*
X144086723Y-89418420D02*
X144140163Y-89468340D01*
X144026943Y-89383270D02*
X144086723Y-89418420D01*
X143962973Y-89363781D02*
X144026943Y-89383270D01*
X143897053Y-89360910D02*
X143962973Y-89363781D01*
X143831303Y-89375610D02*
X143897053Y-89360910D01*
X143782473Y-89398671D02*
X143831303Y-89375610D01*
X143767933Y-89408820D02*
X143782473Y-89398671D01*
X143743953Y-89425790D02*
X143767933Y-89408820D01*
X143687363Y-89498340D02*
X143743953Y-89425790D01*
X143622593Y-89633590D02*
X143687363Y-89498340D01*
X143579457Y-89798790D02*
X143622593Y-89633590D01*
X143563777Y-89933390D02*
X143579457Y-89798790D01*
X143563777Y-89978270D02*
X143563777Y-89933390D01*
X143563777Y-90081020D02*
X143563777Y-89978270D01*
X143911003Y-90081020D02*
X143563777Y-90081020D01*
X143911003Y-90261570D02*
X143911003Y-90081020D01*
X143563777Y-90261570D02*
X143911003Y-90261570D01*
X143563777Y-92247680D02*
X143563777Y-90261570D01*
X143397111Y-92247680D02*
X143563777Y-92247680D01*
X143397111Y-90261570D02*
X143397111Y-92247680D01*
X143174889Y-90261570D02*
X143397111Y-90261570D01*
X143174889Y-90081020D02*
X143174889Y-90261570D01*
X143397111Y-90081020D02*
X143174889Y-90081020D01*
X143397111Y-89986560D02*
X143397111Y-90081020D01*
X143397111Y-89945060D02*
X143397111Y-89986560D01*
X143406008Y-89820540D02*
X143397111Y-89945060D01*
X143430965Y-89658600D02*
X143406008Y-89820540D01*
X143469159Y-89514070D02*
X143430965Y-89658600D01*
X143502797Y-89427160D02*
X143469159Y-89514070D01*
X143517933Y-89400460D02*
X143502797Y-89427160D01*
X143527373Y-89383480D02*
X143517933Y-89400460D01*
X143560576Y-89335310D02*
X143527373Y-89383480D01*
X143610273Y-89278560D02*
X143560576Y-89335310D01*
X143665173Y-89231680D02*
X143610273Y-89278560D01*
X143708253Y-89203790D02*
X143665173Y-89231680D01*
X143723503Y-89196310D02*
X143708253Y-89203790D01*
X145758223Y-88837960D02*
X145758223Y-88837960D01*
X145758223Y-88608790D02*
X145758223Y-88837960D01*
X146019343Y-88611560D02*
X145758223Y-88608790D01*
X146279053Y-88615740D02*
X146019343Y-88611560D01*
X146302653Y-88664350D02*
X146279053Y-88615740D01*
X146305043Y-88668910D02*
X146302653Y-88664350D01*
X146310473Y-88683770D02*
X146305043Y-88668910D01*
X146316483Y-88714420D02*
X146310473Y-88683770D01*
X146320943Y-88764450D02*
X146316483Y-88714420D01*
X142817087Y-88649750D02*
X142801950Y-88677210D01*
X146327983Y-92317670D02*
X146329123Y-92173460D01*
X146327663Y-92365740D02*
X146327983Y-92317670D01*
X146327073Y-92448747D02*
X146327663Y-92365740D01*
X146325163Y-92697879D02*
X146327073Y-92448747D01*
X146322513Y-92948964D02*
X146325163Y-92697879D01*
X146319043Y-93130658D02*
X146322513Y-92948964D01*
X146313943Y-93254574D02*
X146319043Y-93130658D01*
X146306513Y-93332428D02*
X146313943Y-93254574D01*
X146296193Y-93375830D02*
X146306513Y-93332428D01*
X142740535Y-91305410D02*
X142758711Y-91354560D01*
X142714602Y-91253920D02*
X142740535Y-91305410D01*
X142685793Y-91216980D02*
X142714602Y-91253920D01*
X142662735Y-91198700D02*
X142685793Y-91216980D01*
X142654055Y-91194890D02*
X142662735Y-91198700D01*
X142770266Y-91400290D02*
X142775421Y-91442180D01*
X142765818Y-91378381D02*
X142770266Y-91400290D01*
X142763755Y-91371271D02*
X142765818Y-91378381D01*
X142758711Y-91354560D02*
X142763755Y-91371271D01*
X142795386Y-93320221D02*
X142808190Y-93352881D01*
X142794355Y-93314361D02*
X142795386Y-93320221D01*
X142793269Y-93308447D02*
X142794355Y-93314361D01*
X142792782Y-93287126D02*
X142793269Y-93308447D01*
X142791262Y-93225819D02*
X142792782Y-93287126D01*
X142789851Y-93134239D02*
X142791262Y-93225819D01*
X142788604Y-93016401D02*
X142789851Y-93134239D01*
X142787519Y-92876156D02*
X142788604Y-93016401D01*
X142786705Y-92717464D02*
X142787519Y-92876156D01*
X142786162Y-92544179D02*
X142786705Y-92717464D01*
X142786000Y-92406161D02*
X142786162Y-92544179D01*
X142786000Y-92360210D02*
X142786000Y-92406161D01*
X142786000Y-92293200D02*
X142786000Y-92360210D01*
X143122589Y-91295210D02*
X143113311Y-91207160D01*
X143128448Y-91418790D02*
X143122589Y-91295210D01*
X143131593Y-91589530D02*
X143128448Y-91418790D01*
X143132951Y-91818920D02*
X143131593Y-91589530D01*
X143081247Y-91091490D02*
X143063180Y-91053290D01*
X143099802Y-91143090D02*
X143081247Y-91091490D01*
X143113311Y-91207160D02*
X143099802Y-91143090D01*
X143112389Y-93414350D02*
X143369333Y-93414350D01*
X143076907Y-93414350D02*
X143112389Y-93414350D01*
X142970462Y-93413645D02*
X143076907Y-93414350D01*
X143085695Y-88608790D02*
X142997316Y-88609820D01*
X143115155Y-88608790D02*
X143085695Y-88608790D01*
X143369333Y-88608790D02*
X143115155Y-88608790D01*
X143369333Y-89067130D02*
X143369333Y-88608790D01*
X143133222Y-89067130D02*
X143369333Y-89067130D01*
X143133222Y-89868500D02*
X143133222Y-89067130D01*
X143133222Y-89940670D02*
X143133222Y-89868500D01*
X143132897Y-90157180D02*
X143133222Y-89940670D01*
X143131431Y-90379310D02*
X143132897Y-90157180D01*
X143128068Y-90545530D02*
X143131431Y-90379310D01*
X143122099Y-90666570D02*
X143128068Y-90545530D01*
X143112714Y-90753000D02*
X143122099Y-90666570D01*
X145981153Y-90146880D02*
X145982773Y-90366340D01*
X145980553Y-89932850D02*
X145981153Y-90146880D01*
X145980443Y-89861560D02*
X145980553Y-89932850D01*
X145980443Y-89067130D02*
X145980443Y-89861560D01*
X146333693Y-91737210D02*
X146335913Y-91632500D01*
X146331953Y-91861020D02*
X146333693Y-91737210D01*
X146330483Y-92005820D02*
X146331953Y-91861020D01*
X146329123Y-92173460D02*
X146330483Y-92005820D01*
X145982183Y-91595220D02*
X145980723Y-91826180D01*
X145985543Y-91421890D02*
X145982183Y-91595220D01*
X145991513Y-91295420D02*
X145985543Y-91421890D01*
X142797773Y-88688980D02*
X142794191Y-88756250D01*
X142619333Y-91178240D02*
X142654055Y-91194890D01*
X142619333Y-90971320D02*
X142619333Y-91178240D01*
X142619333Y-90955100D02*
X142619333Y-90971320D01*
X142619441Y-90906490D02*
X142619333Y-90955100D01*
X142619929Y-90856570D02*
X142619441Y-90906490D01*
X142621123Y-90819460D02*
X142619929Y-90856570D01*
X142623293Y-90793140D02*
X142621123Y-90819460D01*
X142626711Y-90775570D02*
X142623293Y-90793140D01*
X142631594Y-90764670D02*
X142626711Y-90775570D01*
X142638321Y-90758320D02*
X142631594Y-90764670D01*
X142644832Y-90755340D02*
X142638321Y-90758320D01*
X142647110Y-90754630D02*
X142644832Y-90755340D01*
X142655248Y-90751980D02*
X142647110Y-90754630D01*
X142676950Y-90735250D02*
X142655248Y-90751980D01*
X142707006Y-90697660D02*
X142676950Y-90735250D01*
X142735164Y-90644430D02*
X142707006Y-90697660D01*
X142754478Y-90595070D02*
X142735164Y-90644430D01*
X142759633Y-90578250D02*
X142754478Y-90595070D01*
X142837377Y-88625450D02*
X142834232Y-88627840D01*
X142782148Y-91592790D02*
X142784047Y-91715720D01*
X142779326Y-91503980D02*
X142782148Y-91592790D01*
X142775421Y-91442180D02*
X142779326Y-91503980D01*
X142761965Y-90570820D02*
X142759633Y-90578250D01*
X142767879Y-90548140D02*
X142761965Y-90570820D01*
X146000963Y-90737430D02*
X146014023Y-90801390D01*
X145991893Y-90650780D02*
X146000963Y-90737430D01*
X145986083Y-90530670D02*
X145991893Y-90650780D01*
X145982773Y-90366340D02*
X145986083Y-90530670D01*
X143099205Y-90815560D02*
X143112714Y-90753000D01*
X143080814Y-90864860D02*
X143099205Y-90815560D01*
X143063180Y-90900090D02*
X143080814Y-90864860D01*
X146000903Y-91205040D02*
X145991513Y-91295420D01*
X146014403Y-91140100D02*
X146000903Y-91205040D01*
X142890655Y-93410173D02*
X142970462Y-93413645D01*
X142851212Y-93401438D02*
X142890655Y-93410173D01*
X142834773Y-93389991D02*
X142851212Y-93401438D01*
X142830433Y-93385162D02*
X142834773Y-93389991D01*
X142826582Y-93381310D02*
X142830433Y-93385162D01*
X142808190Y-93352881D02*
X142826582Y-93381310D01*
X145758223Y-92956017D02*
X145758223Y-93414350D01*
X145980443Y-92956017D02*
X145758223Y-92956017D01*
X142801950Y-88677210D02*
X142799889Y-88682420D01*
X142799889Y-88682420D02*
X142797773Y-88688980D01*
X145758223Y-89067130D02*
X145980443Y-89067130D01*
X145758223Y-88837960D02*
X145758223Y-89067130D01*
X142837377Y-88625450D02*
X142837377Y-88625450D01*
X142841501Y-88622630D02*
X142837377Y-88625450D01*
X142862226Y-88618130D02*
X142841501Y-88622630D01*
X142914255Y-88612920D02*
X142862226Y-88618130D01*
X142997316Y-88609820D02*
X142914255Y-88612920D01*
X145980443Y-92125450D02*
X145980443Y-92956017D01*
X145980443Y-92050630D02*
X145980443Y-92125450D01*
X145980723Y-91826180D02*
X145980443Y-92050630D01*
X142834232Y-88627840D02*
X142817087Y-88649750D01*
X146023843Y-93414350D02*
X146095793Y-93413591D01*
X145999863Y-93414350D02*
X146023843Y-93414350D01*
X145758223Y-93414350D02*
X145999863Y-93414350D01*
X143056833Y-90911590D02*
X143063180Y-90900090D01*
X143022111Y-90972670D02*
X143056833Y-90911590D01*
X143056833Y-91040770D02*
X143022111Y-90972670D01*
X143063180Y-91053290D02*
X143056833Y-91040770D01*
X146342323Y-91473060D02*
X146346933Y-91414670D01*
X146338683Y-91545040D02*
X146342323Y-91473060D01*
X146335913Y-91632500D02*
X146338683Y-91545040D01*
X146263753Y-93405995D02*
X146268523Y-93404151D01*
X146260983Y-93407026D02*
X146263753Y-93405995D01*
X146236573Y-93409034D02*
X146260983Y-93407026D01*
X146177653Y-93411692D02*
X146236573Y-93409034D01*
X146095793Y-93413591D02*
X146177653Y-93411692D01*
X146282153Y-93396501D02*
X146296193Y-93375830D01*
X146268523Y-93404151D02*
X146282153Y-93396501D01*
X146032803Y-91089810D02*
X146014403Y-91140100D01*
X146050433Y-91054860D02*
X146032803Y-91089810D01*
X146056833Y-91043530D02*
X146050433Y-91054860D01*
X146091553Y-90979610D02*
X146056833Y-91043530D01*
X146055413Y-90904640D02*
X146091553Y-90979610D01*
X146049233Y-90892000D02*
X146055413Y-90904640D01*
X146031933Y-90853530D02*
X146049233Y-90892000D01*
X146014023Y-90801390D02*
X146031933Y-90853530D01*
X142786976Y-89221640D02*
X142786000Y-89512000D01*
X143133222Y-92043580D02*
X143132951Y-91818920D01*
X143133222Y-92118510D02*
X143133222Y-92043580D01*
X143133222Y-92956017D02*
X143133222Y-92118510D01*
X143369333Y-92956017D02*
X143133222Y-92956017D01*
X143369333Y-93414350D02*
X143369333Y-92956017D01*
X142785837Y-92092300D02*
X142786000Y-92293200D01*
X142785240Y-91879850D02*
X142785837Y-92092300D01*
X142784047Y-91715720D02*
X142785240Y-91879850D01*
X142786000Y-89608790D02*
X142786000Y-89677700D01*
X142786000Y-89512000D02*
X142786000Y-89608790D01*
D10*
X172208500Y-112271500D02*
X172208500Y-113601500D01*
X170878500Y-112271500D02*
X172208500Y-112271500D01*
X169608500Y-112271500D02*
X169608500Y-114931500D01*
X169608500Y-114931500D02*
X161928500Y-114931500D01*
X169608500Y-112271500D02*
X161928500Y-112271500D01*
X161928500Y-112271500D02*
X161928500Y-114931500D01*
X123631000Y-76514000D02*
X122301000Y-76514000D01*
X123631000Y-75184000D02*
X123631000Y-76514000D01*
X123631000Y-73914000D02*
X120971000Y-73914000D01*
X120971000Y-73914000D02*
X120971000Y-68774000D01*
X123631000Y-73914000D02*
X123631000Y-68774000D01*
X123631000Y-68774000D02*
X120971000Y-68774000D01*
X126178000Y-84522000D02*
X127508000Y-84522000D01*
X126178000Y-85852000D02*
X126178000Y-84522000D01*
X126178000Y-87122000D02*
X128838000Y-87122000D01*
X128838000Y-87122000D02*
X128838000Y-94802000D01*
X126178000Y-87122000D02*
X126178000Y-94802000D01*
X126178000Y-94802000D02*
X128838000Y-94802000D01*
X129473000Y-115122000D02*
X128143000Y-115122000D01*
X129473000Y-113792000D02*
X129473000Y-115122000D01*
X129473000Y-112522000D02*
X126813000Y-112522000D01*
X126813000Y-112522000D02*
X126813000Y-102302000D01*
X129473000Y-112522000D02*
X129473000Y-102302000D01*
X129473000Y-102302000D02*
X126813000Y-102302000D01*
X124901000Y-115122000D02*
X123571000Y-115122000D01*
X124901000Y-113792000D02*
X124901000Y-115122000D01*
X124901000Y-112522000D02*
X122241000Y-112522000D01*
X122241000Y-112522000D02*
X122241000Y-102302000D01*
X124901000Y-112522000D02*
X124901000Y-102302000D01*
X124901000Y-102302000D02*
X122241000Y-102302000D01*
X127441000Y-76514000D02*
X126111000Y-76514000D01*
X127441000Y-75184000D02*
X127441000Y-76514000D01*
X127441000Y-73914000D02*
X124781000Y-73914000D01*
X124781000Y-73914000D02*
X124781000Y-68774000D01*
X127441000Y-73914000D02*
X127441000Y-68774000D01*
X127441000Y-68774000D02*
X124781000Y-68774000D01*
X131251000Y-76514000D02*
X129921000Y-76514000D01*
X131251000Y-75184000D02*
X131251000Y-76514000D01*
X131251000Y-73914000D02*
X128591000Y-73914000D01*
X128591000Y-73914000D02*
X128591000Y-68774000D01*
X131251000Y-73914000D02*
X131251000Y-68774000D01*
X131251000Y-68774000D02*
X128591000Y-68774000D01*
X135061000Y-76514000D02*
X133731000Y-76514000D01*
X135061000Y-75184000D02*
X135061000Y-76514000D01*
X135061000Y-73914000D02*
X132401000Y-73914000D01*
X132401000Y-73914000D02*
X132401000Y-68774000D01*
X135061000Y-73914000D02*
X135061000Y-68774000D01*
X135061000Y-68774000D02*
X132401000Y-68774000D01*
X155261000Y-76704500D02*
X155261000Y-75374500D01*
X156591000Y-76704500D02*
X155261000Y-76704500D01*
X157861000Y-76704500D02*
X157861000Y-74044500D01*
X157861000Y-74044500D02*
X175701000Y-74044500D01*
X157861000Y-76704500D02*
X175701000Y-76704500D01*
X175701000Y-76704500D02*
X175701000Y-74044500D01*
D12*
X148506380Y-93805333D02*
X149220666Y-93805333D01*
X149363523Y-93852952D01*
X149458761Y-93948190D01*
X149506380Y-94091047D01*
X149506380Y-94186285D01*
X148506380Y-92852952D02*
X148506380Y-93329142D01*
X148982571Y-93376761D01*
X148934952Y-93329142D01*
X148887333Y-93233904D01*
X148887333Y-92995809D01*
X148934952Y-92900571D01*
X148982571Y-92852952D01*
X149077809Y-92805333D01*
X149315904Y-92805333D01*
X149411142Y-92852952D01*
X149458761Y-92900571D01*
X149506380Y-92995809D01*
X149506380Y-93233904D01*
X149458761Y-93329142D01*
X149411142Y-93376761D01*
X161040380Y-111839333D02*
X161754666Y-111839333D01*
X161897523Y-111886952D01*
X161992761Y-111982190D01*
X162040380Y-112125047D01*
X162040380Y-112220285D01*
X161373714Y-110934571D02*
X162040380Y-110934571D01*
X160992761Y-111172666D02*
X161707047Y-111410761D01*
X161707047Y-110791714D01*
X177077666Y-90376285D02*
X177077666Y-89900095D01*
X177363380Y-90471523D02*
X176363380Y-90138190D01*
X177363380Y-89804857D01*
X177363380Y-88947714D02*
X177363380Y-89519142D01*
X177363380Y-89233428D02*
X176363380Y-89233428D01*
X176506238Y-89328666D01*
X176601476Y-89423904D01*
X176649095Y-89519142D01*
X172660880Y-113934833D02*
X173375166Y-113934833D01*
X173518023Y-113982452D01*
X173613261Y-114077690D01*
X173660880Y-114220547D01*
X173660880Y-114315785D01*
X172660880Y-113553880D02*
X172660880Y-112934833D01*
X173041833Y-113268166D01*
X173041833Y-113125309D01*
X173089452Y-113030071D01*
X173137071Y-112982452D01*
X173232309Y-112934833D01*
X173470404Y-112934833D01*
X173565642Y-112982452D01*
X173613261Y-113030071D01*
X173660880Y-113125309D01*
X173660880Y-113411023D01*
X173613261Y-113506261D01*
X173565642Y-113553880D01*
X121491476Y-76966380D02*
X121491476Y-77680666D01*
X121443857Y-77823523D01*
X121348619Y-77918761D01*
X121205761Y-77966380D01*
X121110523Y-77966380D01*
X122491476Y-77966380D02*
X121920047Y-77966380D01*
X122205761Y-77966380D02*
X122205761Y-76966380D01*
X122110523Y-77109238D01*
X122015285Y-77204476D01*
X121920047Y-77252095D01*
X123110523Y-76966380D02*
X123205761Y-76966380D01*
X123301000Y-77014000D01*
X123348619Y-77061619D01*
X123396238Y-77156857D01*
X123443857Y-77347333D01*
X123443857Y-77585428D01*
X123396238Y-77775904D01*
X123348619Y-77871142D01*
X123301000Y-77918761D01*
X123205761Y-77966380D01*
X123110523Y-77966380D01*
X123015285Y-77918761D01*
X122967666Y-77871142D01*
X122920047Y-77775904D01*
X122872428Y-77585428D01*
X122872428Y-77347333D01*
X122920047Y-77156857D01*
X122967666Y-77061619D01*
X123015285Y-77014000D01*
X123110523Y-76966380D01*
X124650857Y-83974380D02*
X124650857Y-82974380D01*
X124650857Y-83450571D02*
X125222285Y-83450571D01*
X125222285Y-83974380D02*
X125222285Y-82974380D01*
X126269904Y-83879142D02*
X126222285Y-83926761D01*
X126079428Y-83974380D01*
X125984190Y-83974380D01*
X125841333Y-83926761D01*
X125746095Y-83831523D01*
X125698476Y-83736285D01*
X125650857Y-83545809D01*
X125650857Y-83402952D01*
X125698476Y-83212476D01*
X125746095Y-83117238D01*
X125841333Y-83022000D01*
X125984190Y-82974380D01*
X126079428Y-82974380D01*
X126222285Y-83022000D01*
X126269904Y-83069619D01*
X126698476Y-83593428D02*
X127460380Y-83593428D01*
X127888952Y-83926761D02*
X128031809Y-83974380D01*
X128269904Y-83974380D01*
X128365142Y-83926761D01*
X128412761Y-83879142D01*
X128460380Y-83783904D01*
X128460380Y-83688666D01*
X128412761Y-83593428D01*
X128365142Y-83545809D01*
X128269904Y-83498190D01*
X128079428Y-83450571D01*
X127984190Y-83402952D01*
X127936571Y-83355333D01*
X127888952Y-83260095D01*
X127888952Y-83164857D01*
X127936571Y-83069619D01*
X127984190Y-83022000D01*
X128079428Y-82974380D01*
X128317523Y-82974380D01*
X128460380Y-83022000D01*
X129460380Y-83974380D02*
X129127047Y-83498190D01*
X128888952Y-83974380D02*
X128888952Y-82974380D01*
X129269904Y-82974380D01*
X129365142Y-83022000D01*
X129412761Y-83069619D01*
X129460380Y-83164857D01*
X129460380Y-83307714D01*
X129412761Y-83402952D01*
X129365142Y-83450571D01*
X129269904Y-83498190D01*
X128888952Y-83498190D01*
X130412761Y-83974380D02*
X129841333Y-83974380D01*
X130127047Y-83974380D02*
X130127047Y-82974380D01*
X130031809Y-83117238D01*
X129936571Y-83212476D01*
X129841333Y-83260095D01*
X127809666Y-115574380D02*
X127809666Y-116288666D01*
X127762047Y-116431523D01*
X127666809Y-116526761D01*
X127523952Y-116574380D01*
X127428714Y-116574380D01*
X128238238Y-115669619D02*
X128285857Y-115622000D01*
X128381095Y-115574380D01*
X128619190Y-115574380D01*
X128714428Y-115622000D01*
X128762047Y-115669619D01*
X128809666Y-115764857D01*
X128809666Y-115860095D01*
X128762047Y-116002952D01*
X128190619Y-116574380D01*
X128809666Y-116574380D01*
X123237666Y-115574380D02*
X123237666Y-116288666D01*
X123190047Y-116431523D01*
X123094809Y-116526761D01*
X122951952Y-116574380D01*
X122856714Y-116574380D01*
X124237666Y-116574380D02*
X123666238Y-116574380D01*
X123951952Y-116574380D02*
X123951952Y-115574380D01*
X123856714Y-115717238D01*
X123761476Y-115812476D01*
X123666238Y-115860095D01*
X125777666Y-76966380D02*
X125777666Y-77680666D01*
X125730047Y-77823523D01*
X125634809Y-77918761D01*
X125491952Y-77966380D01*
X125396714Y-77966380D01*
X126396714Y-77394952D02*
X126301476Y-77347333D01*
X126253857Y-77299714D01*
X126206238Y-77204476D01*
X126206238Y-77156857D01*
X126253857Y-77061619D01*
X126301476Y-77014000D01*
X126396714Y-76966380D01*
X126587190Y-76966380D01*
X126682428Y-77014000D01*
X126730047Y-77061619D01*
X126777666Y-77156857D01*
X126777666Y-77204476D01*
X126730047Y-77299714D01*
X126682428Y-77347333D01*
X126587190Y-77394952D01*
X126396714Y-77394952D01*
X126301476Y-77442571D01*
X126253857Y-77490190D01*
X126206238Y-77585428D01*
X126206238Y-77775904D01*
X126253857Y-77871142D01*
X126301476Y-77918761D01*
X126396714Y-77966380D01*
X126587190Y-77966380D01*
X126682428Y-77918761D01*
X126730047Y-77871142D01*
X126777666Y-77775904D01*
X126777666Y-77585428D01*
X126730047Y-77490190D01*
X126682428Y-77442571D01*
X126587190Y-77394952D01*
X129587666Y-76966380D02*
X129587666Y-77680666D01*
X129540047Y-77823523D01*
X129444809Y-77918761D01*
X129301952Y-77966380D01*
X129206714Y-77966380D01*
X129968619Y-76966380D02*
X130635285Y-76966380D01*
X130206714Y-77966380D01*
X133397666Y-76966380D02*
X133397666Y-77680666D01*
X133350047Y-77823523D01*
X133254809Y-77918761D01*
X133111952Y-77966380D01*
X133016714Y-77966380D01*
X134302428Y-76966380D02*
X134111952Y-76966380D01*
X134016714Y-77014000D01*
X133969095Y-77061619D01*
X133873857Y-77204476D01*
X133826238Y-77394952D01*
X133826238Y-77775904D01*
X133873857Y-77871142D01*
X133921476Y-77918761D01*
X134016714Y-77966380D01*
X134207190Y-77966380D01*
X134302428Y-77918761D01*
X134350047Y-77871142D01*
X134397666Y-77775904D01*
X134397666Y-77537809D01*
X134350047Y-77442571D01*
X134302428Y-77394952D01*
X134207190Y-77347333D01*
X134016714Y-77347333D01*
X133921476Y-77394952D01*
X133873857Y-77442571D01*
X133826238Y-77537809D01*
X153713380Y-75707833D02*
X154427666Y-75707833D01*
X154570523Y-75755452D01*
X154665761Y-75850690D01*
X154713380Y-75993547D01*
X154713380Y-76088785D01*
X154713380Y-75184023D02*
X154713380Y-74993547D01*
X154665761Y-74898309D01*
X154618142Y-74850690D01*
X154475285Y-74755452D01*
X154284809Y-74707833D01*
X153903857Y-74707833D01*
X153808619Y-74755452D01*
X153761000Y-74803071D01*
X153713380Y-74898309D01*
X153713380Y-75088785D01*
X153761000Y-75184023D01*
X153808619Y-75231642D01*
X153903857Y-75279261D01*
X154141952Y-75279261D01*
X154237190Y-75231642D01*
X154284809Y-75184023D01*
X154332428Y-75088785D01*
X154332428Y-74898309D01*
X154284809Y-74803071D01*
X154237190Y-74755452D01*
X154141952Y-74707833D01*
X117399761Y-109918333D02*
X117447380Y-109775476D01*
X117447380Y-109537380D01*
X117399761Y-109442142D01*
X117352142Y-109394523D01*
X117256904Y-109346904D01*
X117161666Y-109346904D01*
X117066428Y-109394523D01*
X117018809Y-109442142D01*
X116971190Y-109537380D01*
X116923571Y-109727857D01*
X116875952Y-109823095D01*
X116828333Y-109870714D01*
X116733095Y-109918333D01*
X116637857Y-109918333D01*
X116542619Y-109870714D01*
X116495000Y-109823095D01*
X116447380Y-109727857D01*
X116447380Y-109489761D01*
X116495000Y-109346904D01*
X116447380Y-109013571D02*
X117447380Y-108775476D01*
X116733095Y-108585000D01*
X117447380Y-108394523D01*
X116447380Y-108156428D01*
X117447380Y-107251666D02*
X117447380Y-107823095D01*
X117447380Y-107537380D02*
X116447380Y-107537380D01*
X116590238Y-107632619D01*
X116685476Y-107727857D01*
X116733095Y-107823095D01*
X117399761Y-71818333D02*
X117447380Y-71675476D01*
X117447380Y-71437380D01*
X117399761Y-71342142D01*
X117352142Y-71294523D01*
X117256904Y-71246904D01*
X117161666Y-71246904D01*
X117066428Y-71294523D01*
X117018809Y-71342142D01*
X116971190Y-71437380D01*
X116923571Y-71627857D01*
X116875952Y-71723095D01*
X116828333Y-71770714D01*
X116733095Y-71818333D01*
X116637857Y-71818333D01*
X116542619Y-71770714D01*
X116495000Y-71723095D01*
X116447380Y-71627857D01*
X116447380Y-71389761D01*
X116495000Y-71246904D01*
X116447380Y-70913571D02*
X117447380Y-70675476D01*
X116733095Y-70485000D01*
X117447380Y-70294523D01*
X116447380Y-70056428D01*
X116542619Y-69723095D02*
X116495000Y-69675476D01*
X116447380Y-69580238D01*
X116447380Y-69342142D01*
X116495000Y-69246904D01*
X116542619Y-69199285D01*
X116637857Y-69151666D01*
X116733095Y-69151666D01*
X116875952Y-69199285D01*
X117447380Y-69770714D01*
X117447380Y-69151666D01*
M02*
