G04 #@! TF.GenerationSoftware,KiCad,Pcbnew,(5.1.4-0-10_14)*
G04 #@! TF.CreationDate,2020-02-23T16:46:41+00:00*
G04 #@! TF.ProjectId,Bottom PCB,426f7474-6f6d-4205-9043-422e6b696361,rev?*
G04 #@! TF.SameCoordinates,Original*
G04 #@! TF.FileFunction,Paste,Bot*
G04 #@! TF.FilePolarity,Positive*
%FSLAX46Y46*%
G04 Gerber Fmt 4.6, Leading zero omitted, Abs format (unit mm)*
G04 Created by KiCad (PCBNEW (5.1.4-0-10_14)) date 2020-02-23 16:46:41*
%MOMM*%
%LPD*%
G04 APERTURE LIST*
%ADD10C,0.100000*%
%ADD11C,0.600000*%
%ADD12R,0.450000X1.750000*%
%ADD13C,1.425000*%
%ADD14R,0.600000X1.500000*%
G04 APERTURE END LIST*
D10*
G36*
X139102703Y-119703722D02*
G01*
X139117264Y-119705882D01*
X139131543Y-119709459D01*
X139145403Y-119714418D01*
X139158710Y-119720712D01*
X139171336Y-119728280D01*
X139183159Y-119737048D01*
X139194066Y-119746934D01*
X139203952Y-119757841D01*
X139212720Y-119769664D01*
X139220288Y-119782290D01*
X139226582Y-119795597D01*
X139231541Y-119809457D01*
X139235118Y-119823736D01*
X139237278Y-119838297D01*
X139238000Y-119853000D01*
X139238000Y-121603000D01*
X139237278Y-121617703D01*
X139235118Y-121632264D01*
X139231541Y-121646543D01*
X139226582Y-121660403D01*
X139220288Y-121673710D01*
X139212720Y-121686336D01*
X139203952Y-121698159D01*
X139194066Y-121709066D01*
X139183159Y-121718952D01*
X139171336Y-121727720D01*
X139158710Y-121735288D01*
X139145403Y-121741582D01*
X139131543Y-121746541D01*
X139117264Y-121750118D01*
X139102703Y-121752278D01*
X139088000Y-121753000D01*
X138788000Y-121753000D01*
X138773297Y-121752278D01*
X138758736Y-121750118D01*
X138744457Y-121746541D01*
X138730597Y-121741582D01*
X138717290Y-121735288D01*
X138704664Y-121727720D01*
X138692841Y-121718952D01*
X138681934Y-121709066D01*
X138672048Y-121698159D01*
X138663280Y-121686336D01*
X138655712Y-121673710D01*
X138649418Y-121660403D01*
X138644459Y-121646543D01*
X138640882Y-121632264D01*
X138638722Y-121617703D01*
X138638000Y-121603000D01*
X138638000Y-119853000D01*
X138638722Y-119838297D01*
X138640882Y-119823736D01*
X138644459Y-119809457D01*
X138649418Y-119795597D01*
X138655712Y-119782290D01*
X138663280Y-119769664D01*
X138672048Y-119757841D01*
X138681934Y-119746934D01*
X138692841Y-119737048D01*
X138704664Y-119728280D01*
X138717290Y-119720712D01*
X138730597Y-119714418D01*
X138744457Y-119709459D01*
X138758736Y-119705882D01*
X138773297Y-119703722D01*
X138788000Y-119703000D01*
X139088000Y-119703000D01*
X139102703Y-119703722D01*
X139102703Y-119703722D01*
G37*
D11*
X138938000Y-120728000D03*
D10*
G36*
X140372703Y-119703722D02*
G01*
X140387264Y-119705882D01*
X140401543Y-119709459D01*
X140415403Y-119714418D01*
X140428710Y-119720712D01*
X140441336Y-119728280D01*
X140453159Y-119737048D01*
X140464066Y-119746934D01*
X140473952Y-119757841D01*
X140482720Y-119769664D01*
X140490288Y-119782290D01*
X140496582Y-119795597D01*
X140501541Y-119809457D01*
X140505118Y-119823736D01*
X140507278Y-119838297D01*
X140508000Y-119853000D01*
X140508000Y-121603000D01*
X140507278Y-121617703D01*
X140505118Y-121632264D01*
X140501541Y-121646543D01*
X140496582Y-121660403D01*
X140490288Y-121673710D01*
X140482720Y-121686336D01*
X140473952Y-121698159D01*
X140464066Y-121709066D01*
X140453159Y-121718952D01*
X140441336Y-121727720D01*
X140428710Y-121735288D01*
X140415403Y-121741582D01*
X140401543Y-121746541D01*
X140387264Y-121750118D01*
X140372703Y-121752278D01*
X140358000Y-121753000D01*
X140058000Y-121753000D01*
X140043297Y-121752278D01*
X140028736Y-121750118D01*
X140014457Y-121746541D01*
X140000597Y-121741582D01*
X139987290Y-121735288D01*
X139974664Y-121727720D01*
X139962841Y-121718952D01*
X139951934Y-121709066D01*
X139942048Y-121698159D01*
X139933280Y-121686336D01*
X139925712Y-121673710D01*
X139919418Y-121660403D01*
X139914459Y-121646543D01*
X139910882Y-121632264D01*
X139908722Y-121617703D01*
X139908000Y-121603000D01*
X139908000Y-119853000D01*
X139908722Y-119838297D01*
X139910882Y-119823736D01*
X139914459Y-119809457D01*
X139919418Y-119795597D01*
X139925712Y-119782290D01*
X139933280Y-119769664D01*
X139942048Y-119757841D01*
X139951934Y-119746934D01*
X139962841Y-119737048D01*
X139974664Y-119728280D01*
X139987290Y-119720712D01*
X140000597Y-119714418D01*
X140014457Y-119709459D01*
X140028736Y-119705882D01*
X140043297Y-119703722D01*
X140058000Y-119703000D01*
X140358000Y-119703000D01*
X140372703Y-119703722D01*
X140372703Y-119703722D01*
G37*
D11*
X140208000Y-120728000D03*
D10*
G36*
X141642703Y-119703722D02*
G01*
X141657264Y-119705882D01*
X141671543Y-119709459D01*
X141685403Y-119714418D01*
X141698710Y-119720712D01*
X141711336Y-119728280D01*
X141723159Y-119737048D01*
X141734066Y-119746934D01*
X141743952Y-119757841D01*
X141752720Y-119769664D01*
X141760288Y-119782290D01*
X141766582Y-119795597D01*
X141771541Y-119809457D01*
X141775118Y-119823736D01*
X141777278Y-119838297D01*
X141778000Y-119853000D01*
X141778000Y-121603000D01*
X141777278Y-121617703D01*
X141775118Y-121632264D01*
X141771541Y-121646543D01*
X141766582Y-121660403D01*
X141760288Y-121673710D01*
X141752720Y-121686336D01*
X141743952Y-121698159D01*
X141734066Y-121709066D01*
X141723159Y-121718952D01*
X141711336Y-121727720D01*
X141698710Y-121735288D01*
X141685403Y-121741582D01*
X141671543Y-121746541D01*
X141657264Y-121750118D01*
X141642703Y-121752278D01*
X141628000Y-121753000D01*
X141328000Y-121753000D01*
X141313297Y-121752278D01*
X141298736Y-121750118D01*
X141284457Y-121746541D01*
X141270597Y-121741582D01*
X141257290Y-121735288D01*
X141244664Y-121727720D01*
X141232841Y-121718952D01*
X141221934Y-121709066D01*
X141212048Y-121698159D01*
X141203280Y-121686336D01*
X141195712Y-121673710D01*
X141189418Y-121660403D01*
X141184459Y-121646543D01*
X141180882Y-121632264D01*
X141178722Y-121617703D01*
X141178000Y-121603000D01*
X141178000Y-119853000D01*
X141178722Y-119838297D01*
X141180882Y-119823736D01*
X141184459Y-119809457D01*
X141189418Y-119795597D01*
X141195712Y-119782290D01*
X141203280Y-119769664D01*
X141212048Y-119757841D01*
X141221934Y-119746934D01*
X141232841Y-119737048D01*
X141244664Y-119728280D01*
X141257290Y-119720712D01*
X141270597Y-119714418D01*
X141284457Y-119709459D01*
X141298736Y-119705882D01*
X141313297Y-119703722D01*
X141328000Y-119703000D01*
X141628000Y-119703000D01*
X141642703Y-119703722D01*
X141642703Y-119703722D01*
G37*
D11*
X141478000Y-120728000D03*
D10*
G36*
X142912703Y-119703722D02*
G01*
X142927264Y-119705882D01*
X142941543Y-119709459D01*
X142955403Y-119714418D01*
X142968710Y-119720712D01*
X142981336Y-119728280D01*
X142993159Y-119737048D01*
X143004066Y-119746934D01*
X143013952Y-119757841D01*
X143022720Y-119769664D01*
X143030288Y-119782290D01*
X143036582Y-119795597D01*
X143041541Y-119809457D01*
X143045118Y-119823736D01*
X143047278Y-119838297D01*
X143048000Y-119853000D01*
X143048000Y-121603000D01*
X143047278Y-121617703D01*
X143045118Y-121632264D01*
X143041541Y-121646543D01*
X143036582Y-121660403D01*
X143030288Y-121673710D01*
X143022720Y-121686336D01*
X143013952Y-121698159D01*
X143004066Y-121709066D01*
X142993159Y-121718952D01*
X142981336Y-121727720D01*
X142968710Y-121735288D01*
X142955403Y-121741582D01*
X142941543Y-121746541D01*
X142927264Y-121750118D01*
X142912703Y-121752278D01*
X142898000Y-121753000D01*
X142598000Y-121753000D01*
X142583297Y-121752278D01*
X142568736Y-121750118D01*
X142554457Y-121746541D01*
X142540597Y-121741582D01*
X142527290Y-121735288D01*
X142514664Y-121727720D01*
X142502841Y-121718952D01*
X142491934Y-121709066D01*
X142482048Y-121698159D01*
X142473280Y-121686336D01*
X142465712Y-121673710D01*
X142459418Y-121660403D01*
X142454459Y-121646543D01*
X142450882Y-121632264D01*
X142448722Y-121617703D01*
X142448000Y-121603000D01*
X142448000Y-119853000D01*
X142448722Y-119838297D01*
X142450882Y-119823736D01*
X142454459Y-119809457D01*
X142459418Y-119795597D01*
X142465712Y-119782290D01*
X142473280Y-119769664D01*
X142482048Y-119757841D01*
X142491934Y-119746934D01*
X142502841Y-119737048D01*
X142514664Y-119728280D01*
X142527290Y-119720712D01*
X142540597Y-119714418D01*
X142554457Y-119709459D01*
X142568736Y-119705882D01*
X142583297Y-119703722D01*
X142598000Y-119703000D01*
X142898000Y-119703000D01*
X142912703Y-119703722D01*
X142912703Y-119703722D01*
G37*
D11*
X142748000Y-120728000D03*
D10*
G36*
X144182703Y-119703722D02*
G01*
X144197264Y-119705882D01*
X144211543Y-119709459D01*
X144225403Y-119714418D01*
X144238710Y-119720712D01*
X144251336Y-119728280D01*
X144263159Y-119737048D01*
X144274066Y-119746934D01*
X144283952Y-119757841D01*
X144292720Y-119769664D01*
X144300288Y-119782290D01*
X144306582Y-119795597D01*
X144311541Y-119809457D01*
X144315118Y-119823736D01*
X144317278Y-119838297D01*
X144318000Y-119853000D01*
X144318000Y-121603000D01*
X144317278Y-121617703D01*
X144315118Y-121632264D01*
X144311541Y-121646543D01*
X144306582Y-121660403D01*
X144300288Y-121673710D01*
X144292720Y-121686336D01*
X144283952Y-121698159D01*
X144274066Y-121709066D01*
X144263159Y-121718952D01*
X144251336Y-121727720D01*
X144238710Y-121735288D01*
X144225403Y-121741582D01*
X144211543Y-121746541D01*
X144197264Y-121750118D01*
X144182703Y-121752278D01*
X144168000Y-121753000D01*
X143868000Y-121753000D01*
X143853297Y-121752278D01*
X143838736Y-121750118D01*
X143824457Y-121746541D01*
X143810597Y-121741582D01*
X143797290Y-121735288D01*
X143784664Y-121727720D01*
X143772841Y-121718952D01*
X143761934Y-121709066D01*
X143752048Y-121698159D01*
X143743280Y-121686336D01*
X143735712Y-121673710D01*
X143729418Y-121660403D01*
X143724459Y-121646543D01*
X143720882Y-121632264D01*
X143718722Y-121617703D01*
X143718000Y-121603000D01*
X143718000Y-119853000D01*
X143718722Y-119838297D01*
X143720882Y-119823736D01*
X143724459Y-119809457D01*
X143729418Y-119795597D01*
X143735712Y-119782290D01*
X143743280Y-119769664D01*
X143752048Y-119757841D01*
X143761934Y-119746934D01*
X143772841Y-119737048D01*
X143784664Y-119728280D01*
X143797290Y-119720712D01*
X143810597Y-119714418D01*
X143824457Y-119709459D01*
X143838736Y-119705882D01*
X143853297Y-119703722D01*
X143868000Y-119703000D01*
X144168000Y-119703000D01*
X144182703Y-119703722D01*
X144182703Y-119703722D01*
G37*
D11*
X144018000Y-120728000D03*
D10*
G36*
X145452703Y-119703722D02*
G01*
X145467264Y-119705882D01*
X145481543Y-119709459D01*
X145495403Y-119714418D01*
X145508710Y-119720712D01*
X145521336Y-119728280D01*
X145533159Y-119737048D01*
X145544066Y-119746934D01*
X145553952Y-119757841D01*
X145562720Y-119769664D01*
X145570288Y-119782290D01*
X145576582Y-119795597D01*
X145581541Y-119809457D01*
X145585118Y-119823736D01*
X145587278Y-119838297D01*
X145588000Y-119853000D01*
X145588000Y-121603000D01*
X145587278Y-121617703D01*
X145585118Y-121632264D01*
X145581541Y-121646543D01*
X145576582Y-121660403D01*
X145570288Y-121673710D01*
X145562720Y-121686336D01*
X145553952Y-121698159D01*
X145544066Y-121709066D01*
X145533159Y-121718952D01*
X145521336Y-121727720D01*
X145508710Y-121735288D01*
X145495403Y-121741582D01*
X145481543Y-121746541D01*
X145467264Y-121750118D01*
X145452703Y-121752278D01*
X145438000Y-121753000D01*
X145138000Y-121753000D01*
X145123297Y-121752278D01*
X145108736Y-121750118D01*
X145094457Y-121746541D01*
X145080597Y-121741582D01*
X145067290Y-121735288D01*
X145054664Y-121727720D01*
X145042841Y-121718952D01*
X145031934Y-121709066D01*
X145022048Y-121698159D01*
X145013280Y-121686336D01*
X145005712Y-121673710D01*
X144999418Y-121660403D01*
X144994459Y-121646543D01*
X144990882Y-121632264D01*
X144988722Y-121617703D01*
X144988000Y-121603000D01*
X144988000Y-119853000D01*
X144988722Y-119838297D01*
X144990882Y-119823736D01*
X144994459Y-119809457D01*
X144999418Y-119795597D01*
X145005712Y-119782290D01*
X145013280Y-119769664D01*
X145022048Y-119757841D01*
X145031934Y-119746934D01*
X145042841Y-119737048D01*
X145054664Y-119728280D01*
X145067290Y-119720712D01*
X145080597Y-119714418D01*
X145094457Y-119709459D01*
X145108736Y-119705882D01*
X145123297Y-119703722D01*
X145138000Y-119703000D01*
X145438000Y-119703000D01*
X145452703Y-119703722D01*
X145452703Y-119703722D01*
G37*
D11*
X145288000Y-120728000D03*
D10*
G36*
X146722703Y-119703722D02*
G01*
X146737264Y-119705882D01*
X146751543Y-119709459D01*
X146765403Y-119714418D01*
X146778710Y-119720712D01*
X146791336Y-119728280D01*
X146803159Y-119737048D01*
X146814066Y-119746934D01*
X146823952Y-119757841D01*
X146832720Y-119769664D01*
X146840288Y-119782290D01*
X146846582Y-119795597D01*
X146851541Y-119809457D01*
X146855118Y-119823736D01*
X146857278Y-119838297D01*
X146858000Y-119853000D01*
X146858000Y-121603000D01*
X146857278Y-121617703D01*
X146855118Y-121632264D01*
X146851541Y-121646543D01*
X146846582Y-121660403D01*
X146840288Y-121673710D01*
X146832720Y-121686336D01*
X146823952Y-121698159D01*
X146814066Y-121709066D01*
X146803159Y-121718952D01*
X146791336Y-121727720D01*
X146778710Y-121735288D01*
X146765403Y-121741582D01*
X146751543Y-121746541D01*
X146737264Y-121750118D01*
X146722703Y-121752278D01*
X146708000Y-121753000D01*
X146408000Y-121753000D01*
X146393297Y-121752278D01*
X146378736Y-121750118D01*
X146364457Y-121746541D01*
X146350597Y-121741582D01*
X146337290Y-121735288D01*
X146324664Y-121727720D01*
X146312841Y-121718952D01*
X146301934Y-121709066D01*
X146292048Y-121698159D01*
X146283280Y-121686336D01*
X146275712Y-121673710D01*
X146269418Y-121660403D01*
X146264459Y-121646543D01*
X146260882Y-121632264D01*
X146258722Y-121617703D01*
X146258000Y-121603000D01*
X146258000Y-119853000D01*
X146258722Y-119838297D01*
X146260882Y-119823736D01*
X146264459Y-119809457D01*
X146269418Y-119795597D01*
X146275712Y-119782290D01*
X146283280Y-119769664D01*
X146292048Y-119757841D01*
X146301934Y-119746934D01*
X146312841Y-119737048D01*
X146324664Y-119728280D01*
X146337290Y-119720712D01*
X146350597Y-119714418D01*
X146364457Y-119709459D01*
X146378736Y-119705882D01*
X146393297Y-119703722D01*
X146408000Y-119703000D01*
X146708000Y-119703000D01*
X146722703Y-119703722D01*
X146722703Y-119703722D01*
G37*
D11*
X146558000Y-120728000D03*
D10*
G36*
X147992703Y-119703722D02*
G01*
X148007264Y-119705882D01*
X148021543Y-119709459D01*
X148035403Y-119714418D01*
X148048710Y-119720712D01*
X148061336Y-119728280D01*
X148073159Y-119737048D01*
X148084066Y-119746934D01*
X148093952Y-119757841D01*
X148102720Y-119769664D01*
X148110288Y-119782290D01*
X148116582Y-119795597D01*
X148121541Y-119809457D01*
X148125118Y-119823736D01*
X148127278Y-119838297D01*
X148128000Y-119853000D01*
X148128000Y-121603000D01*
X148127278Y-121617703D01*
X148125118Y-121632264D01*
X148121541Y-121646543D01*
X148116582Y-121660403D01*
X148110288Y-121673710D01*
X148102720Y-121686336D01*
X148093952Y-121698159D01*
X148084066Y-121709066D01*
X148073159Y-121718952D01*
X148061336Y-121727720D01*
X148048710Y-121735288D01*
X148035403Y-121741582D01*
X148021543Y-121746541D01*
X148007264Y-121750118D01*
X147992703Y-121752278D01*
X147978000Y-121753000D01*
X147678000Y-121753000D01*
X147663297Y-121752278D01*
X147648736Y-121750118D01*
X147634457Y-121746541D01*
X147620597Y-121741582D01*
X147607290Y-121735288D01*
X147594664Y-121727720D01*
X147582841Y-121718952D01*
X147571934Y-121709066D01*
X147562048Y-121698159D01*
X147553280Y-121686336D01*
X147545712Y-121673710D01*
X147539418Y-121660403D01*
X147534459Y-121646543D01*
X147530882Y-121632264D01*
X147528722Y-121617703D01*
X147528000Y-121603000D01*
X147528000Y-119853000D01*
X147528722Y-119838297D01*
X147530882Y-119823736D01*
X147534459Y-119809457D01*
X147539418Y-119795597D01*
X147545712Y-119782290D01*
X147553280Y-119769664D01*
X147562048Y-119757841D01*
X147571934Y-119746934D01*
X147582841Y-119737048D01*
X147594664Y-119728280D01*
X147607290Y-119720712D01*
X147620597Y-119714418D01*
X147634457Y-119709459D01*
X147648736Y-119705882D01*
X147663297Y-119703722D01*
X147678000Y-119703000D01*
X147978000Y-119703000D01*
X147992703Y-119703722D01*
X147992703Y-119703722D01*
G37*
D11*
X147828000Y-120728000D03*
D10*
G36*
X149262703Y-119703722D02*
G01*
X149277264Y-119705882D01*
X149291543Y-119709459D01*
X149305403Y-119714418D01*
X149318710Y-119720712D01*
X149331336Y-119728280D01*
X149343159Y-119737048D01*
X149354066Y-119746934D01*
X149363952Y-119757841D01*
X149372720Y-119769664D01*
X149380288Y-119782290D01*
X149386582Y-119795597D01*
X149391541Y-119809457D01*
X149395118Y-119823736D01*
X149397278Y-119838297D01*
X149398000Y-119853000D01*
X149398000Y-121603000D01*
X149397278Y-121617703D01*
X149395118Y-121632264D01*
X149391541Y-121646543D01*
X149386582Y-121660403D01*
X149380288Y-121673710D01*
X149372720Y-121686336D01*
X149363952Y-121698159D01*
X149354066Y-121709066D01*
X149343159Y-121718952D01*
X149331336Y-121727720D01*
X149318710Y-121735288D01*
X149305403Y-121741582D01*
X149291543Y-121746541D01*
X149277264Y-121750118D01*
X149262703Y-121752278D01*
X149248000Y-121753000D01*
X148948000Y-121753000D01*
X148933297Y-121752278D01*
X148918736Y-121750118D01*
X148904457Y-121746541D01*
X148890597Y-121741582D01*
X148877290Y-121735288D01*
X148864664Y-121727720D01*
X148852841Y-121718952D01*
X148841934Y-121709066D01*
X148832048Y-121698159D01*
X148823280Y-121686336D01*
X148815712Y-121673710D01*
X148809418Y-121660403D01*
X148804459Y-121646543D01*
X148800882Y-121632264D01*
X148798722Y-121617703D01*
X148798000Y-121603000D01*
X148798000Y-119853000D01*
X148798722Y-119838297D01*
X148800882Y-119823736D01*
X148804459Y-119809457D01*
X148809418Y-119795597D01*
X148815712Y-119782290D01*
X148823280Y-119769664D01*
X148832048Y-119757841D01*
X148841934Y-119746934D01*
X148852841Y-119737048D01*
X148864664Y-119728280D01*
X148877290Y-119720712D01*
X148890597Y-119714418D01*
X148904457Y-119709459D01*
X148918736Y-119705882D01*
X148933297Y-119703722D01*
X148948000Y-119703000D01*
X149248000Y-119703000D01*
X149262703Y-119703722D01*
X149262703Y-119703722D01*
G37*
D11*
X149098000Y-120728000D03*
D10*
G36*
X149262703Y-110403722D02*
G01*
X149277264Y-110405882D01*
X149291543Y-110409459D01*
X149305403Y-110414418D01*
X149318710Y-110420712D01*
X149331336Y-110428280D01*
X149343159Y-110437048D01*
X149354066Y-110446934D01*
X149363952Y-110457841D01*
X149372720Y-110469664D01*
X149380288Y-110482290D01*
X149386582Y-110495597D01*
X149391541Y-110509457D01*
X149395118Y-110523736D01*
X149397278Y-110538297D01*
X149398000Y-110553000D01*
X149398000Y-112303000D01*
X149397278Y-112317703D01*
X149395118Y-112332264D01*
X149391541Y-112346543D01*
X149386582Y-112360403D01*
X149380288Y-112373710D01*
X149372720Y-112386336D01*
X149363952Y-112398159D01*
X149354066Y-112409066D01*
X149343159Y-112418952D01*
X149331336Y-112427720D01*
X149318710Y-112435288D01*
X149305403Y-112441582D01*
X149291543Y-112446541D01*
X149277264Y-112450118D01*
X149262703Y-112452278D01*
X149248000Y-112453000D01*
X148948000Y-112453000D01*
X148933297Y-112452278D01*
X148918736Y-112450118D01*
X148904457Y-112446541D01*
X148890597Y-112441582D01*
X148877290Y-112435288D01*
X148864664Y-112427720D01*
X148852841Y-112418952D01*
X148841934Y-112409066D01*
X148832048Y-112398159D01*
X148823280Y-112386336D01*
X148815712Y-112373710D01*
X148809418Y-112360403D01*
X148804459Y-112346543D01*
X148800882Y-112332264D01*
X148798722Y-112317703D01*
X148798000Y-112303000D01*
X148798000Y-110553000D01*
X148798722Y-110538297D01*
X148800882Y-110523736D01*
X148804459Y-110509457D01*
X148809418Y-110495597D01*
X148815712Y-110482290D01*
X148823280Y-110469664D01*
X148832048Y-110457841D01*
X148841934Y-110446934D01*
X148852841Y-110437048D01*
X148864664Y-110428280D01*
X148877290Y-110420712D01*
X148890597Y-110414418D01*
X148904457Y-110409459D01*
X148918736Y-110405882D01*
X148933297Y-110403722D01*
X148948000Y-110403000D01*
X149248000Y-110403000D01*
X149262703Y-110403722D01*
X149262703Y-110403722D01*
G37*
D11*
X149098000Y-111428000D03*
D10*
G36*
X147992703Y-110403722D02*
G01*
X148007264Y-110405882D01*
X148021543Y-110409459D01*
X148035403Y-110414418D01*
X148048710Y-110420712D01*
X148061336Y-110428280D01*
X148073159Y-110437048D01*
X148084066Y-110446934D01*
X148093952Y-110457841D01*
X148102720Y-110469664D01*
X148110288Y-110482290D01*
X148116582Y-110495597D01*
X148121541Y-110509457D01*
X148125118Y-110523736D01*
X148127278Y-110538297D01*
X148128000Y-110553000D01*
X148128000Y-112303000D01*
X148127278Y-112317703D01*
X148125118Y-112332264D01*
X148121541Y-112346543D01*
X148116582Y-112360403D01*
X148110288Y-112373710D01*
X148102720Y-112386336D01*
X148093952Y-112398159D01*
X148084066Y-112409066D01*
X148073159Y-112418952D01*
X148061336Y-112427720D01*
X148048710Y-112435288D01*
X148035403Y-112441582D01*
X148021543Y-112446541D01*
X148007264Y-112450118D01*
X147992703Y-112452278D01*
X147978000Y-112453000D01*
X147678000Y-112453000D01*
X147663297Y-112452278D01*
X147648736Y-112450118D01*
X147634457Y-112446541D01*
X147620597Y-112441582D01*
X147607290Y-112435288D01*
X147594664Y-112427720D01*
X147582841Y-112418952D01*
X147571934Y-112409066D01*
X147562048Y-112398159D01*
X147553280Y-112386336D01*
X147545712Y-112373710D01*
X147539418Y-112360403D01*
X147534459Y-112346543D01*
X147530882Y-112332264D01*
X147528722Y-112317703D01*
X147528000Y-112303000D01*
X147528000Y-110553000D01*
X147528722Y-110538297D01*
X147530882Y-110523736D01*
X147534459Y-110509457D01*
X147539418Y-110495597D01*
X147545712Y-110482290D01*
X147553280Y-110469664D01*
X147562048Y-110457841D01*
X147571934Y-110446934D01*
X147582841Y-110437048D01*
X147594664Y-110428280D01*
X147607290Y-110420712D01*
X147620597Y-110414418D01*
X147634457Y-110409459D01*
X147648736Y-110405882D01*
X147663297Y-110403722D01*
X147678000Y-110403000D01*
X147978000Y-110403000D01*
X147992703Y-110403722D01*
X147992703Y-110403722D01*
G37*
D11*
X147828000Y-111428000D03*
D10*
G36*
X146722703Y-110403722D02*
G01*
X146737264Y-110405882D01*
X146751543Y-110409459D01*
X146765403Y-110414418D01*
X146778710Y-110420712D01*
X146791336Y-110428280D01*
X146803159Y-110437048D01*
X146814066Y-110446934D01*
X146823952Y-110457841D01*
X146832720Y-110469664D01*
X146840288Y-110482290D01*
X146846582Y-110495597D01*
X146851541Y-110509457D01*
X146855118Y-110523736D01*
X146857278Y-110538297D01*
X146858000Y-110553000D01*
X146858000Y-112303000D01*
X146857278Y-112317703D01*
X146855118Y-112332264D01*
X146851541Y-112346543D01*
X146846582Y-112360403D01*
X146840288Y-112373710D01*
X146832720Y-112386336D01*
X146823952Y-112398159D01*
X146814066Y-112409066D01*
X146803159Y-112418952D01*
X146791336Y-112427720D01*
X146778710Y-112435288D01*
X146765403Y-112441582D01*
X146751543Y-112446541D01*
X146737264Y-112450118D01*
X146722703Y-112452278D01*
X146708000Y-112453000D01*
X146408000Y-112453000D01*
X146393297Y-112452278D01*
X146378736Y-112450118D01*
X146364457Y-112446541D01*
X146350597Y-112441582D01*
X146337290Y-112435288D01*
X146324664Y-112427720D01*
X146312841Y-112418952D01*
X146301934Y-112409066D01*
X146292048Y-112398159D01*
X146283280Y-112386336D01*
X146275712Y-112373710D01*
X146269418Y-112360403D01*
X146264459Y-112346543D01*
X146260882Y-112332264D01*
X146258722Y-112317703D01*
X146258000Y-112303000D01*
X146258000Y-110553000D01*
X146258722Y-110538297D01*
X146260882Y-110523736D01*
X146264459Y-110509457D01*
X146269418Y-110495597D01*
X146275712Y-110482290D01*
X146283280Y-110469664D01*
X146292048Y-110457841D01*
X146301934Y-110446934D01*
X146312841Y-110437048D01*
X146324664Y-110428280D01*
X146337290Y-110420712D01*
X146350597Y-110414418D01*
X146364457Y-110409459D01*
X146378736Y-110405882D01*
X146393297Y-110403722D01*
X146408000Y-110403000D01*
X146708000Y-110403000D01*
X146722703Y-110403722D01*
X146722703Y-110403722D01*
G37*
D11*
X146558000Y-111428000D03*
D10*
G36*
X145452703Y-110403722D02*
G01*
X145467264Y-110405882D01*
X145481543Y-110409459D01*
X145495403Y-110414418D01*
X145508710Y-110420712D01*
X145521336Y-110428280D01*
X145533159Y-110437048D01*
X145544066Y-110446934D01*
X145553952Y-110457841D01*
X145562720Y-110469664D01*
X145570288Y-110482290D01*
X145576582Y-110495597D01*
X145581541Y-110509457D01*
X145585118Y-110523736D01*
X145587278Y-110538297D01*
X145588000Y-110553000D01*
X145588000Y-112303000D01*
X145587278Y-112317703D01*
X145585118Y-112332264D01*
X145581541Y-112346543D01*
X145576582Y-112360403D01*
X145570288Y-112373710D01*
X145562720Y-112386336D01*
X145553952Y-112398159D01*
X145544066Y-112409066D01*
X145533159Y-112418952D01*
X145521336Y-112427720D01*
X145508710Y-112435288D01*
X145495403Y-112441582D01*
X145481543Y-112446541D01*
X145467264Y-112450118D01*
X145452703Y-112452278D01*
X145438000Y-112453000D01*
X145138000Y-112453000D01*
X145123297Y-112452278D01*
X145108736Y-112450118D01*
X145094457Y-112446541D01*
X145080597Y-112441582D01*
X145067290Y-112435288D01*
X145054664Y-112427720D01*
X145042841Y-112418952D01*
X145031934Y-112409066D01*
X145022048Y-112398159D01*
X145013280Y-112386336D01*
X145005712Y-112373710D01*
X144999418Y-112360403D01*
X144994459Y-112346543D01*
X144990882Y-112332264D01*
X144988722Y-112317703D01*
X144988000Y-112303000D01*
X144988000Y-110553000D01*
X144988722Y-110538297D01*
X144990882Y-110523736D01*
X144994459Y-110509457D01*
X144999418Y-110495597D01*
X145005712Y-110482290D01*
X145013280Y-110469664D01*
X145022048Y-110457841D01*
X145031934Y-110446934D01*
X145042841Y-110437048D01*
X145054664Y-110428280D01*
X145067290Y-110420712D01*
X145080597Y-110414418D01*
X145094457Y-110409459D01*
X145108736Y-110405882D01*
X145123297Y-110403722D01*
X145138000Y-110403000D01*
X145438000Y-110403000D01*
X145452703Y-110403722D01*
X145452703Y-110403722D01*
G37*
D11*
X145288000Y-111428000D03*
D10*
G36*
X144182703Y-110403722D02*
G01*
X144197264Y-110405882D01*
X144211543Y-110409459D01*
X144225403Y-110414418D01*
X144238710Y-110420712D01*
X144251336Y-110428280D01*
X144263159Y-110437048D01*
X144274066Y-110446934D01*
X144283952Y-110457841D01*
X144292720Y-110469664D01*
X144300288Y-110482290D01*
X144306582Y-110495597D01*
X144311541Y-110509457D01*
X144315118Y-110523736D01*
X144317278Y-110538297D01*
X144318000Y-110553000D01*
X144318000Y-112303000D01*
X144317278Y-112317703D01*
X144315118Y-112332264D01*
X144311541Y-112346543D01*
X144306582Y-112360403D01*
X144300288Y-112373710D01*
X144292720Y-112386336D01*
X144283952Y-112398159D01*
X144274066Y-112409066D01*
X144263159Y-112418952D01*
X144251336Y-112427720D01*
X144238710Y-112435288D01*
X144225403Y-112441582D01*
X144211543Y-112446541D01*
X144197264Y-112450118D01*
X144182703Y-112452278D01*
X144168000Y-112453000D01*
X143868000Y-112453000D01*
X143853297Y-112452278D01*
X143838736Y-112450118D01*
X143824457Y-112446541D01*
X143810597Y-112441582D01*
X143797290Y-112435288D01*
X143784664Y-112427720D01*
X143772841Y-112418952D01*
X143761934Y-112409066D01*
X143752048Y-112398159D01*
X143743280Y-112386336D01*
X143735712Y-112373710D01*
X143729418Y-112360403D01*
X143724459Y-112346543D01*
X143720882Y-112332264D01*
X143718722Y-112317703D01*
X143718000Y-112303000D01*
X143718000Y-110553000D01*
X143718722Y-110538297D01*
X143720882Y-110523736D01*
X143724459Y-110509457D01*
X143729418Y-110495597D01*
X143735712Y-110482290D01*
X143743280Y-110469664D01*
X143752048Y-110457841D01*
X143761934Y-110446934D01*
X143772841Y-110437048D01*
X143784664Y-110428280D01*
X143797290Y-110420712D01*
X143810597Y-110414418D01*
X143824457Y-110409459D01*
X143838736Y-110405882D01*
X143853297Y-110403722D01*
X143868000Y-110403000D01*
X144168000Y-110403000D01*
X144182703Y-110403722D01*
X144182703Y-110403722D01*
G37*
D11*
X144018000Y-111428000D03*
D10*
G36*
X142912703Y-110403722D02*
G01*
X142927264Y-110405882D01*
X142941543Y-110409459D01*
X142955403Y-110414418D01*
X142968710Y-110420712D01*
X142981336Y-110428280D01*
X142993159Y-110437048D01*
X143004066Y-110446934D01*
X143013952Y-110457841D01*
X143022720Y-110469664D01*
X143030288Y-110482290D01*
X143036582Y-110495597D01*
X143041541Y-110509457D01*
X143045118Y-110523736D01*
X143047278Y-110538297D01*
X143048000Y-110553000D01*
X143048000Y-112303000D01*
X143047278Y-112317703D01*
X143045118Y-112332264D01*
X143041541Y-112346543D01*
X143036582Y-112360403D01*
X143030288Y-112373710D01*
X143022720Y-112386336D01*
X143013952Y-112398159D01*
X143004066Y-112409066D01*
X142993159Y-112418952D01*
X142981336Y-112427720D01*
X142968710Y-112435288D01*
X142955403Y-112441582D01*
X142941543Y-112446541D01*
X142927264Y-112450118D01*
X142912703Y-112452278D01*
X142898000Y-112453000D01*
X142598000Y-112453000D01*
X142583297Y-112452278D01*
X142568736Y-112450118D01*
X142554457Y-112446541D01*
X142540597Y-112441582D01*
X142527290Y-112435288D01*
X142514664Y-112427720D01*
X142502841Y-112418952D01*
X142491934Y-112409066D01*
X142482048Y-112398159D01*
X142473280Y-112386336D01*
X142465712Y-112373710D01*
X142459418Y-112360403D01*
X142454459Y-112346543D01*
X142450882Y-112332264D01*
X142448722Y-112317703D01*
X142448000Y-112303000D01*
X142448000Y-110553000D01*
X142448722Y-110538297D01*
X142450882Y-110523736D01*
X142454459Y-110509457D01*
X142459418Y-110495597D01*
X142465712Y-110482290D01*
X142473280Y-110469664D01*
X142482048Y-110457841D01*
X142491934Y-110446934D01*
X142502841Y-110437048D01*
X142514664Y-110428280D01*
X142527290Y-110420712D01*
X142540597Y-110414418D01*
X142554457Y-110409459D01*
X142568736Y-110405882D01*
X142583297Y-110403722D01*
X142598000Y-110403000D01*
X142898000Y-110403000D01*
X142912703Y-110403722D01*
X142912703Y-110403722D01*
G37*
D11*
X142748000Y-111428000D03*
D10*
G36*
X141642703Y-110403722D02*
G01*
X141657264Y-110405882D01*
X141671543Y-110409459D01*
X141685403Y-110414418D01*
X141698710Y-110420712D01*
X141711336Y-110428280D01*
X141723159Y-110437048D01*
X141734066Y-110446934D01*
X141743952Y-110457841D01*
X141752720Y-110469664D01*
X141760288Y-110482290D01*
X141766582Y-110495597D01*
X141771541Y-110509457D01*
X141775118Y-110523736D01*
X141777278Y-110538297D01*
X141778000Y-110553000D01*
X141778000Y-112303000D01*
X141777278Y-112317703D01*
X141775118Y-112332264D01*
X141771541Y-112346543D01*
X141766582Y-112360403D01*
X141760288Y-112373710D01*
X141752720Y-112386336D01*
X141743952Y-112398159D01*
X141734066Y-112409066D01*
X141723159Y-112418952D01*
X141711336Y-112427720D01*
X141698710Y-112435288D01*
X141685403Y-112441582D01*
X141671543Y-112446541D01*
X141657264Y-112450118D01*
X141642703Y-112452278D01*
X141628000Y-112453000D01*
X141328000Y-112453000D01*
X141313297Y-112452278D01*
X141298736Y-112450118D01*
X141284457Y-112446541D01*
X141270597Y-112441582D01*
X141257290Y-112435288D01*
X141244664Y-112427720D01*
X141232841Y-112418952D01*
X141221934Y-112409066D01*
X141212048Y-112398159D01*
X141203280Y-112386336D01*
X141195712Y-112373710D01*
X141189418Y-112360403D01*
X141184459Y-112346543D01*
X141180882Y-112332264D01*
X141178722Y-112317703D01*
X141178000Y-112303000D01*
X141178000Y-110553000D01*
X141178722Y-110538297D01*
X141180882Y-110523736D01*
X141184459Y-110509457D01*
X141189418Y-110495597D01*
X141195712Y-110482290D01*
X141203280Y-110469664D01*
X141212048Y-110457841D01*
X141221934Y-110446934D01*
X141232841Y-110437048D01*
X141244664Y-110428280D01*
X141257290Y-110420712D01*
X141270597Y-110414418D01*
X141284457Y-110409459D01*
X141298736Y-110405882D01*
X141313297Y-110403722D01*
X141328000Y-110403000D01*
X141628000Y-110403000D01*
X141642703Y-110403722D01*
X141642703Y-110403722D01*
G37*
D11*
X141478000Y-111428000D03*
D10*
G36*
X140372703Y-110403722D02*
G01*
X140387264Y-110405882D01*
X140401543Y-110409459D01*
X140415403Y-110414418D01*
X140428710Y-110420712D01*
X140441336Y-110428280D01*
X140453159Y-110437048D01*
X140464066Y-110446934D01*
X140473952Y-110457841D01*
X140482720Y-110469664D01*
X140490288Y-110482290D01*
X140496582Y-110495597D01*
X140501541Y-110509457D01*
X140505118Y-110523736D01*
X140507278Y-110538297D01*
X140508000Y-110553000D01*
X140508000Y-112303000D01*
X140507278Y-112317703D01*
X140505118Y-112332264D01*
X140501541Y-112346543D01*
X140496582Y-112360403D01*
X140490288Y-112373710D01*
X140482720Y-112386336D01*
X140473952Y-112398159D01*
X140464066Y-112409066D01*
X140453159Y-112418952D01*
X140441336Y-112427720D01*
X140428710Y-112435288D01*
X140415403Y-112441582D01*
X140401543Y-112446541D01*
X140387264Y-112450118D01*
X140372703Y-112452278D01*
X140358000Y-112453000D01*
X140058000Y-112453000D01*
X140043297Y-112452278D01*
X140028736Y-112450118D01*
X140014457Y-112446541D01*
X140000597Y-112441582D01*
X139987290Y-112435288D01*
X139974664Y-112427720D01*
X139962841Y-112418952D01*
X139951934Y-112409066D01*
X139942048Y-112398159D01*
X139933280Y-112386336D01*
X139925712Y-112373710D01*
X139919418Y-112360403D01*
X139914459Y-112346543D01*
X139910882Y-112332264D01*
X139908722Y-112317703D01*
X139908000Y-112303000D01*
X139908000Y-110553000D01*
X139908722Y-110538297D01*
X139910882Y-110523736D01*
X139914459Y-110509457D01*
X139919418Y-110495597D01*
X139925712Y-110482290D01*
X139933280Y-110469664D01*
X139942048Y-110457841D01*
X139951934Y-110446934D01*
X139962841Y-110437048D01*
X139974664Y-110428280D01*
X139987290Y-110420712D01*
X140000597Y-110414418D01*
X140014457Y-110409459D01*
X140028736Y-110405882D01*
X140043297Y-110403722D01*
X140058000Y-110403000D01*
X140358000Y-110403000D01*
X140372703Y-110403722D01*
X140372703Y-110403722D01*
G37*
D11*
X140208000Y-111428000D03*
D10*
G36*
X139102703Y-110403722D02*
G01*
X139117264Y-110405882D01*
X139131543Y-110409459D01*
X139145403Y-110414418D01*
X139158710Y-110420712D01*
X139171336Y-110428280D01*
X139183159Y-110437048D01*
X139194066Y-110446934D01*
X139203952Y-110457841D01*
X139212720Y-110469664D01*
X139220288Y-110482290D01*
X139226582Y-110495597D01*
X139231541Y-110509457D01*
X139235118Y-110523736D01*
X139237278Y-110538297D01*
X139238000Y-110553000D01*
X139238000Y-112303000D01*
X139237278Y-112317703D01*
X139235118Y-112332264D01*
X139231541Y-112346543D01*
X139226582Y-112360403D01*
X139220288Y-112373710D01*
X139212720Y-112386336D01*
X139203952Y-112398159D01*
X139194066Y-112409066D01*
X139183159Y-112418952D01*
X139171336Y-112427720D01*
X139158710Y-112435288D01*
X139145403Y-112441582D01*
X139131543Y-112446541D01*
X139117264Y-112450118D01*
X139102703Y-112452278D01*
X139088000Y-112453000D01*
X138788000Y-112453000D01*
X138773297Y-112452278D01*
X138758736Y-112450118D01*
X138744457Y-112446541D01*
X138730597Y-112441582D01*
X138717290Y-112435288D01*
X138704664Y-112427720D01*
X138692841Y-112418952D01*
X138681934Y-112409066D01*
X138672048Y-112398159D01*
X138663280Y-112386336D01*
X138655712Y-112373710D01*
X138649418Y-112360403D01*
X138644459Y-112346543D01*
X138640882Y-112332264D01*
X138638722Y-112317703D01*
X138638000Y-112303000D01*
X138638000Y-110553000D01*
X138638722Y-110538297D01*
X138640882Y-110523736D01*
X138644459Y-110509457D01*
X138649418Y-110495597D01*
X138655712Y-110482290D01*
X138663280Y-110469664D01*
X138672048Y-110457841D01*
X138681934Y-110446934D01*
X138692841Y-110437048D01*
X138704664Y-110428280D01*
X138717290Y-110420712D01*
X138730597Y-110414418D01*
X138744457Y-110409459D01*
X138758736Y-110405882D01*
X138773297Y-110403722D01*
X138788000Y-110403000D01*
X139088000Y-110403000D01*
X139102703Y-110403722D01*
X139102703Y-110403722D01*
G37*
D11*
X138938000Y-111428000D03*
D12*
X170838000Y-101854000D03*
X170188000Y-101854000D03*
X169538000Y-101854000D03*
X168888000Y-101854000D03*
X168238000Y-101854000D03*
X167588000Y-101854000D03*
X166938000Y-101854000D03*
X166288000Y-101854000D03*
X165638000Y-101854000D03*
X164988000Y-101854000D03*
X164338000Y-101854000D03*
X163688000Y-101854000D03*
X163688000Y-109054000D03*
X164338000Y-109054000D03*
X164988000Y-109054000D03*
X165638000Y-109054000D03*
X166288000Y-109054000D03*
X166938000Y-109054000D03*
X167588000Y-109054000D03*
X168238000Y-109054000D03*
X168888000Y-109054000D03*
X169538000Y-109054000D03*
X170188000Y-109054000D03*
X170838000Y-109054000D03*
D10*
G36*
X162158004Y-91322704D02*
G01*
X162182273Y-91326304D01*
X162206071Y-91332265D01*
X162229171Y-91340530D01*
X162251349Y-91351020D01*
X162272393Y-91363633D01*
X162292098Y-91378247D01*
X162310277Y-91394723D01*
X162326753Y-91412902D01*
X162341367Y-91432607D01*
X162353980Y-91453651D01*
X162364470Y-91475829D01*
X162372735Y-91498929D01*
X162378696Y-91522727D01*
X162382296Y-91546996D01*
X162383500Y-91571500D01*
X162383500Y-93721500D01*
X162382296Y-93746004D01*
X162378696Y-93770273D01*
X162372735Y-93794071D01*
X162364470Y-93817171D01*
X162353980Y-93839349D01*
X162341367Y-93860393D01*
X162326753Y-93880098D01*
X162310277Y-93898277D01*
X162292098Y-93914753D01*
X162272393Y-93929367D01*
X162251349Y-93941980D01*
X162229171Y-93952470D01*
X162206071Y-93960735D01*
X162182273Y-93966696D01*
X162158004Y-93970296D01*
X162133500Y-93971500D01*
X161208500Y-93971500D01*
X161183996Y-93970296D01*
X161159727Y-93966696D01*
X161135929Y-93960735D01*
X161112829Y-93952470D01*
X161090651Y-93941980D01*
X161069607Y-93929367D01*
X161049902Y-93914753D01*
X161031723Y-93898277D01*
X161015247Y-93880098D01*
X161000633Y-93860393D01*
X160988020Y-93839349D01*
X160977530Y-93817171D01*
X160969265Y-93794071D01*
X160963304Y-93770273D01*
X160959704Y-93746004D01*
X160958500Y-93721500D01*
X160958500Y-91571500D01*
X160959704Y-91546996D01*
X160963304Y-91522727D01*
X160969265Y-91498929D01*
X160977530Y-91475829D01*
X160988020Y-91453651D01*
X161000633Y-91432607D01*
X161015247Y-91412902D01*
X161031723Y-91394723D01*
X161049902Y-91378247D01*
X161069607Y-91363633D01*
X161090651Y-91351020D01*
X161112829Y-91340530D01*
X161135929Y-91332265D01*
X161159727Y-91326304D01*
X161183996Y-91322704D01*
X161208500Y-91321500D01*
X162133500Y-91321500D01*
X162158004Y-91322704D01*
X162158004Y-91322704D01*
G37*
D13*
X161671000Y-92646500D03*
D10*
G36*
X165133004Y-91322704D02*
G01*
X165157273Y-91326304D01*
X165181071Y-91332265D01*
X165204171Y-91340530D01*
X165226349Y-91351020D01*
X165247393Y-91363633D01*
X165267098Y-91378247D01*
X165285277Y-91394723D01*
X165301753Y-91412902D01*
X165316367Y-91432607D01*
X165328980Y-91453651D01*
X165339470Y-91475829D01*
X165347735Y-91498929D01*
X165353696Y-91522727D01*
X165357296Y-91546996D01*
X165358500Y-91571500D01*
X165358500Y-93721500D01*
X165357296Y-93746004D01*
X165353696Y-93770273D01*
X165347735Y-93794071D01*
X165339470Y-93817171D01*
X165328980Y-93839349D01*
X165316367Y-93860393D01*
X165301753Y-93880098D01*
X165285277Y-93898277D01*
X165267098Y-93914753D01*
X165247393Y-93929367D01*
X165226349Y-93941980D01*
X165204171Y-93952470D01*
X165181071Y-93960735D01*
X165157273Y-93966696D01*
X165133004Y-93970296D01*
X165108500Y-93971500D01*
X164183500Y-93971500D01*
X164158996Y-93970296D01*
X164134727Y-93966696D01*
X164110929Y-93960735D01*
X164087829Y-93952470D01*
X164065651Y-93941980D01*
X164044607Y-93929367D01*
X164024902Y-93914753D01*
X164006723Y-93898277D01*
X163990247Y-93880098D01*
X163975633Y-93860393D01*
X163963020Y-93839349D01*
X163952530Y-93817171D01*
X163944265Y-93794071D01*
X163938304Y-93770273D01*
X163934704Y-93746004D01*
X163933500Y-93721500D01*
X163933500Y-91571500D01*
X163934704Y-91546996D01*
X163938304Y-91522727D01*
X163944265Y-91498929D01*
X163952530Y-91475829D01*
X163963020Y-91453651D01*
X163975633Y-91432607D01*
X163990247Y-91412902D01*
X164006723Y-91394723D01*
X164024902Y-91378247D01*
X164044607Y-91363633D01*
X164065651Y-91351020D01*
X164087829Y-91340530D01*
X164110929Y-91332265D01*
X164134727Y-91326304D01*
X164158996Y-91322704D01*
X164183500Y-91321500D01*
X165108500Y-91321500D01*
X165133004Y-91322704D01*
X165133004Y-91322704D01*
G37*
D13*
X164646000Y-92646500D03*
D10*
G36*
X156008004Y-86750704D02*
G01*
X156032273Y-86754304D01*
X156056071Y-86760265D01*
X156079171Y-86768530D01*
X156101349Y-86779020D01*
X156122393Y-86791633D01*
X156142098Y-86806247D01*
X156160277Y-86822723D01*
X156176753Y-86840902D01*
X156191367Y-86860607D01*
X156203980Y-86881651D01*
X156214470Y-86903829D01*
X156222735Y-86926929D01*
X156228696Y-86950727D01*
X156232296Y-86974996D01*
X156233500Y-86999500D01*
X156233500Y-89149500D01*
X156232296Y-89174004D01*
X156228696Y-89198273D01*
X156222735Y-89222071D01*
X156214470Y-89245171D01*
X156203980Y-89267349D01*
X156191367Y-89288393D01*
X156176753Y-89308098D01*
X156160277Y-89326277D01*
X156142098Y-89342753D01*
X156122393Y-89357367D01*
X156101349Y-89369980D01*
X156079171Y-89380470D01*
X156056071Y-89388735D01*
X156032273Y-89394696D01*
X156008004Y-89398296D01*
X155983500Y-89399500D01*
X155058500Y-89399500D01*
X155033996Y-89398296D01*
X155009727Y-89394696D01*
X154985929Y-89388735D01*
X154962829Y-89380470D01*
X154940651Y-89369980D01*
X154919607Y-89357367D01*
X154899902Y-89342753D01*
X154881723Y-89326277D01*
X154865247Y-89308098D01*
X154850633Y-89288393D01*
X154838020Y-89267349D01*
X154827530Y-89245171D01*
X154819265Y-89222071D01*
X154813304Y-89198273D01*
X154809704Y-89174004D01*
X154808500Y-89149500D01*
X154808500Y-86999500D01*
X154809704Y-86974996D01*
X154813304Y-86950727D01*
X154819265Y-86926929D01*
X154827530Y-86903829D01*
X154838020Y-86881651D01*
X154850633Y-86860607D01*
X154865247Y-86840902D01*
X154881723Y-86822723D01*
X154899902Y-86806247D01*
X154919607Y-86791633D01*
X154940651Y-86779020D01*
X154962829Y-86768530D01*
X154985929Y-86760265D01*
X155009727Y-86754304D01*
X155033996Y-86750704D01*
X155058500Y-86749500D01*
X155983500Y-86749500D01*
X156008004Y-86750704D01*
X156008004Y-86750704D01*
G37*
D13*
X155521000Y-88074500D03*
D10*
G36*
X158983004Y-86750704D02*
G01*
X159007273Y-86754304D01*
X159031071Y-86760265D01*
X159054171Y-86768530D01*
X159076349Y-86779020D01*
X159097393Y-86791633D01*
X159117098Y-86806247D01*
X159135277Y-86822723D01*
X159151753Y-86840902D01*
X159166367Y-86860607D01*
X159178980Y-86881651D01*
X159189470Y-86903829D01*
X159197735Y-86926929D01*
X159203696Y-86950727D01*
X159207296Y-86974996D01*
X159208500Y-86999500D01*
X159208500Y-89149500D01*
X159207296Y-89174004D01*
X159203696Y-89198273D01*
X159197735Y-89222071D01*
X159189470Y-89245171D01*
X159178980Y-89267349D01*
X159166367Y-89288393D01*
X159151753Y-89308098D01*
X159135277Y-89326277D01*
X159117098Y-89342753D01*
X159097393Y-89357367D01*
X159076349Y-89369980D01*
X159054171Y-89380470D01*
X159031071Y-89388735D01*
X159007273Y-89394696D01*
X158983004Y-89398296D01*
X158958500Y-89399500D01*
X158033500Y-89399500D01*
X158008996Y-89398296D01*
X157984727Y-89394696D01*
X157960929Y-89388735D01*
X157937829Y-89380470D01*
X157915651Y-89369980D01*
X157894607Y-89357367D01*
X157874902Y-89342753D01*
X157856723Y-89326277D01*
X157840247Y-89308098D01*
X157825633Y-89288393D01*
X157813020Y-89267349D01*
X157802530Y-89245171D01*
X157794265Y-89222071D01*
X157788304Y-89198273D01*
X157784704Y-89174004D01*
X157783500Y-89149500D01*
X157783500Y-86999500D01*
X157784704Y-86974996D01*
X157788304Y-86950727D01*
X157794265Y-86926929D01*
X157802530Y-86903829D01*
X157813020Y-86881651D01*
X157825633Y-86860607D01*
X157840247Y-86840902D01*
X157856723Y-86822723D01*
X157874902Y-86806247D01*
X157894607Y-86791633D01*
X157915651Y-86779020D01*
X157937829Y-86768530D01*
X157960929Y-86760265D01*
X157984727Y-86754304D01*
X158008996Y-86750704D01*
X158033500Y-86749500D01*
X158958500Y-86749500D01*
X158983004Y-86750704D01*
X158983004Y-86750704D01*
G37*
D13*
X158496000Y-88074500D03*
D10*
G36*
X165015504Y-86750704D02*
G01*
X165039773Y-86754304D01*
X165063571Y-86760265D01*
X165086671Y-86768530D01*
X165108849Y-86779020D01*
X165129893Y-86791633D01*
X165149598Y-86806247D01*
X165167777Y-86822723D01*
X165184253Y-86840902D01*
X165198867Y-86860607D01*
X165211480Y-86881651D01*
X165221970Y-86903829D01*
X165230235Y-86926929D01*
X165236196Y-86950727D01*
X165239796Y-86974996D01*
X165241000Y-86999500D01*
X165241000Y-89149500D01*
X165239796Y-89174004D01*
X165236196Y-89198273D01*
X165230235Y-89222071D01*
X165221970Y-89245171D01*
X165211480Y-89267349D01*
X165198867Y-89288393D01*
X165184253Y-89308098D01*
X165167777Y-89326277D01*
X165149598Y-89342753D01*
X165129893Y-89357367D01*
X165108849Y-89369980D01*
X165086671Y-89380470D01*
X165063571Y-89388735D01*
X165039773Y-89394696D01*
X165015504Y-89398296D01*
X164991000Y-89399500D01*
X164066000Y-89399500D01*
X164041496Y-89398296D01*
X164017227Y-89394696D01*
X163993429Y-89388735D01*
X163970329Y-89380470D01*
X163948151Y-89369980D01*
X163927107Y-89357367D01*
X163907402Y-89342753D01*
X163889223Y-89326277D01*
X163872747Y-89308098D01*
X163858133Y-89288393D01*
X163845520Y-89267349D01*
X163835030Y-89245171D01*
X163826765Y-89222071D01*
X163820804Y-89198273D01*
X163817204Y-89174004D01*
X163816000Y-89149500D01*
X163816000Y-86999500D01*
X163817204Y-86974996D01*
X163820804Y-86950727D01*
X163826765Y-86926929D01*
X163835030Y-86903829D01*
X163845520Y-86881651D01*
X163858133Y-86860607D01*
X163872747Y-86840902D01*
X163889223Y-86822723D01*
X163907402Y-86806247D01*
X163927107Y-86791633D01*
X163948151Y-86779020D01*
X163970329Y-86768530D01*
X163993429Y-86760265D01*
X164017227Y-86754304D01*
X164041496Y-86750704D01*
X164066000Y-86749500D01*
X164991000Y-86749500D01*
X165015504Y-86750704D01*
X165015504Y-86750704D01*
G37*
D13*
X164528500Y-88074500D03*
D10*
G36*
X162040504Y-86750704D02*
G01*
X162064773Y-86754304D01*
X162088571Y-86760265D01*
X162111671Y-86768530D01*
X162133849Y-86779020D01*
X162154893Y-86791633D01*
X162174598Y-86806247D01*
X162192777Y-86822723D01*
X162209253Y-86840902D01*
X162223867Y-86860607D01*
X162236480Y-86881651D01*
X162246970Y-86903829D01*
X162255235Y-86926929D01*
X162261196Y-86950727D01*
X162264796Y-86974996D01*
X162266000Y-86999500D01*
X162266000Y-89149500D01*
X162264796Y-89174004D01*
X162261196Y-89198273D01*
X162255235Y-89222071D01*
X162246970Y-89245171D01*
X162236480Y-89267349D01*
X162223867Y-89288393D01*
X162209253Y-89308098D01*
X162192777Y-89326277D01*
X162174598Y-89342753D01*
X162154893Y-89357367D01*
X162133849Y-89369980D01*
X162111671Y-89380470D01*
X162088571Y-89388735D01*
X162064773Y-89394696D01*
X162040504Y-89398296D01*
X162016000Y-89399500D01*
X161091000Y-89399500D01*
X161066496Y-89398296D01*
X161042227Y-89394696D01*
X161018429Y-89388735D01*
X160995329Y-89380470D01*
X160973151Y-89369980D01*
X160952107Y-89357367D01*
X160932402Y-89342753D01*
X160914223Y-89326277D01*
X160897747Y-89308098D01*
X160883133Y-89288393D01*
X160870520Y-89267349D01*
X160860030Y-89245171D01*
X160851765Y-89222071D01*
X160845804Y-89198273D01*
X160842204Y-89174004D01*
X160841000Y-89149500D01*
X160841000Y-86999500D01*
X160842204Y-86974996D01*
X160845804Y-86950727D01*
X160851765Y-86926929D01*
X160860030Y-86903829D01*
X160870520Y-86881651D01*
X160883133Y-86860607D01*
X160897747Y-86840902D01*
X160914223Y-86822723D01*
X160932402Y-86806247D01*
X160952107Y-86791633D01*
X160973151Y-86779020D01*
X160995329Y-86768530D01*
X161018429Y-86760265D01*
X161042227Y-86754304D01*
X161066496Y-86750704D01*
X161091000Y-86749500D01*
X162016000Y-86749500D01*
X162040504Y-86750704D01*
X162040504Y-86750704D01*
G37*
D13*
X161553500Y-88074500D03*
D14*
X159639000Y-101860000D03*
X158369000Y-101860000D03*
X157099000Y-101860000D03*
X155829000Y-101860000D03*
X154559000Y-101860000D03*
X153289000Y-101860000D03*
X152019000Y-101860000D03*
X150749000Y-101860000D03*
X150749000Y-108960000D03*
X152019000Y-108960000D03*
X153289000Y-108960000D03*
X154559000Y-108960000D03*
X155829000Y-108960000D03*
X157099000Y-108960000D03*
X158369000Y-108960000D03*
X159639000Y-108960000D03*
X147701000Y-101860000D03*
X146431000Y-101860000D03*
X145161000Y-101860000D03*
X143891000Y-101860000D03*
X142621000Y-101860000D03*
X141351000Y-101860000D03*
X140081000Y-101860000D03*
X138811000Y-101860000D03*
X138811000Y-108960000D03*
X140081000Y-108960000D03*
X141351000Y-108960000D03*
X142621000Y-108960000D03*
X143891000Y-108960000D03*
X145161000Y-108960000D03*
X146431000Y-108960000D03*
X147701000Y-108960000D03*
D10*
G36*
X115780504Y-108037204D02*
G01*
X115804773Y-108040804D01*
X115828571Y-108046765D01*
X115851671Y-108055030D01*
X115873849Y-108065520D01*
X115894893Y-108078133D01*
X115914598Y-108092747D01*
X115932777Y-108109223D01*
X115949253Y-108127402D01*
X115963867Y-108147107D01*
X115976480Y-108168151D01*
X115986970Y-108190329D01*
X115995235Y-108213429D01*
X116001196Y-108237227D01*
X116004796Y-108261496D01*
X116006000Y-108286000D01*
X116006000Y-109211000D01*
X116004796Y-109235504D01*
X116001196Y-109259773D01*
X115995235Y-109283571D01*
X115986970Y-109306671D01*
X115976480Y-109328849D01*
X115963867Y-109349893D01*
X115949253Y-109369598D01*
X115932777Y-109387777D01*
X115914598Y-109404253D01*
X115894893Y-109418867D01*
X115873849Y-109431480D01*
X115851671Y-109441970D01*
X115828571Y-109450235D01*
X115804773Y-109456196D01*
X115780504Y-109459796D01*
X115756000Y-109461000D01*
X113606000Y-109461000D01*
X113581496Y-109459796D01*
X113557227Y-109456196D01*
X113533429Y-109450235D01*
X113510329Y-109441970D01*
X113488151Y-109431480D01*
X113467107Y-109418867D01*
X113447402Y-109404253D01*
X113429223Y-109387777D01*
X113412747Y-109369598D01*
X113398133Y-109349893D01*
X113385520Y-109328849D01*
X113375030Y-109306671D01*
X113366765Y-109283571D01*
X113360804Y-109259773D01*
X113357204Y-109235504D01*
X113356000Y-109211000D01*
X113356000Y-108286000D01*
X113357204Y-108261496D01*
X113360804Y-108237227D01*
X113366765Y-108213429D01*
X113375030Y-108190329D01*
X113385520Y-108168151D01*
X113398133Y-108147107D01*
X113412747Y-108127402D01*
X113429223Y-108109223D01*
X113447402Y-108092747D01*
X113467107Y-108078133D01*
X113488151Y-108065520D01*
X113510329Y-108055030D01*
X113533429Y-108046765D01*
X113557227Y-108040804D01*
X113581496Y-108037204D01*
X113606000Y-108036000D01*
X115756000Y-108036000D01*
X115780504Y-108037204D01*
X115780504Y-108037204D01*
G37*
D13*
X114681000Y-108748500D03*
D10*
G36*
X115780504Y-111012204D02*
G01*
X115804773Y-111015804D01*
X115828571Y-111021765D01*
X115851671Y-111030030D01*
X115873849Y-111040520D01*
X115894893Y-111053133D01*
X115914598Y-111067747D01*
X115932777Y-111084223D01*
X115949253Y-111102402D01*
X115963867Y-111122107D01*
X115976480Y-111143151D01*
X115986970Y-111165329D01*
X115995235Y-111188429D01*
X116001196Y-111212227D01*
X116004796Y-111236496D01*
X116006000Y-111261000D01*
X116006000Y-112186000D01*
X116004796Y-112210504D01*
X116001196Y-112234773D01*
X115995235Y-112258571D01*
X115986970Y-112281671D01*
X115976480Y-112303849D01*
X115963867Y-112324893D01*
X115949253Y-112344598D01*
X115932777Y-112362777D01*
X115914598Y-112379253D01*
X115894893Y-112393867D01*
X115873849Y-112406480D01*
X115851671Y-112416970D01*
X115828571Y-112425235D01*
X115804773Y-112431196D01*
X115780504Y-112434796D01*
X115756000Y-112436000D01*
X113606000Y-112436000D01*
X113581496Y-112434796D01*
X113557227Y-112431196D01*
X113533429Y-112425235D01*
X113510329Y-112416970D01*
X113488151Y-112406480D01*
X113467107Y-112393867D01*
X113447402Y-112379253D01*
X113429223Y-112362777D01*
X113412747Y-112344598D01*
X113398133Y-112324893D01*
X113385520Y-112303849D01*
X113375030Y-112281671D01*
X113366765Y-112258571D01*
X113360804Y-112234773D01*
X113357204Y-112210504D01*
X113356000Y-112186000D01*
X113356000Y-111261000D01*
X113357204Y-111236496D01*
X113360804Y-111212227D01*
X113366765Y-111188429D01*
X113375030Y-111165329D01*
X113385520Y-111143151D01*
X113398133Y-111122107D01*
X113412747Y-111102402D01*
X113429223Y-111084223D01*
X113447402Y-111067747D01*
X113467107Y-111053133D01*
X113488151Y-111040520D01*
X113510329Y-111030030D01*
X113533429Y-111021765D01*
X113557227Y-111015804D01*
X113581496Y-111012204D01*
X113606000Y-111011000D01*
X115756000Y-111011000D01*
X115780504Y-111012204D01*
X115780504Y-111012204D01*
G37*
D13*
X114681000Y-111723500D03*
D10*
G36*
X115653504Y-69900704D02*
G01*
X115677773Y-69904304D01*
X115701571Y-69910265D01*
X115724671Y-69918530D01*
X115746849Y-69929020D01*
X115767893Y-69941633D01*
X115787598Y-69956247D01*
X115805777Y-69972723D01*
X115822253Y-69990902D01*
X115836867Y-70010607D01*
X115849480Y-70031651D01*
X115859970Y-70053829D01*
X115868235Y-70076929D01*
X115874196Y-70100727D01*
X115877796Y-70124996D01*
X115879000Y-70149500D01*
X115879000Y-71074500D01*
X115877796Y-71099004D01*
X115874196Y-71123273D01*
X115868235Y-71147071D01*
X115859970Y-71170171D01*
X115849480Y-71192349D01*
X115836867Y-71213393D01*
X115822253Y-71233098D01*
X115805777Y-71251277D01*
X115787598Y-71267753D01*
X115767893Y-71282367D01*
X115746849Y-71294980D01*
X115724671Y-71305470D01*
X115701571Y-71313735D01*
X115677773Y-71319696D01*
X115653504Y-71323296D01*
X115629000Y-71324500D01*
X113479000Y-71324500D01*
X113454496Y-71323296D01*
X113430227Y-71319696D01*
X113406429Y-71313735D01*
X113383329Y-71305470D01*
X113361151Y-71294980D01*
X113340107Y-71282367D01*
X113320402Y-71267753D01*
X113302223Y-71251277D01*
X113285747Y-71233098D01*
X113271133Y-71213393D01*
X113258520Y-71192349D01*
X113248030Y-71170171D01*
X113239765Y-71147071D01*
X113233804Y-71123273D01*
X113230204Y-71099004D01*
X113229000Y-71074500D01*
X113229000Y-70149500D01*
X113230204Y-70124996D01*
X113233804Y-70100727D01*
X113239765Y-70076929D01*
X113248030Y-70053829D01*
X113258520Y-70031651D01*
X113271133Y-70010607D01*
X113285747Y-69990902D01*
X113302223Y-69972723D01*
X113320402Y-69956247D01*
X113340107Y-69941633D01*
X113361151Y-69929020D01*
X113383329Y-69918530D01*
X113406429Y-69910265D01*
X113430227Y-69904304D01*
X113454496Y-69900704D01*
X113479000Y-69899500D01*
X115629000Y-69899500D01*
X115653504Y-69900704D01*
X115653504Y-69900704D01*
G37*
D13*
X114554000Y-70612000D03*
D10*
G36*
X115653504Y-66925704D02*
G01*
X115677773Y-66929304D01*
X115701571Y-66935265D01*
X115724671Y-66943530D01*
X115746849Y-66954020D01*
X115767893Y-66966633D01*
X115787598Y-66981247D01*
X115805777Y-66997723D01*
X115822253Y-67015902D01*
X115836867Y-67035607D01*
X115849480Y-67056651D01*
X115859970Y-67078829D01*
X115868235Y-67101929D01*
X115874196Y-67125727D01*
X115877796Y-67149996D01*
X115879000Y-67174500D01*
X115879000Y-68099500D01*
X115877796Y-68124004D01*
X115874196Y-68148273D01*
X115868235Y-68172071D01*
X115859970Y-68195171D01*
X115849480Y-68217349D01*
X115836867Y-68238393D01*
X115822253Y-68258098D01*
X115805777Y-68276277D01*
X115787598Y-68292753D01*
X115767893Y-68307367D01*
X115746849Y-68319980D01*
X115724671Y-68330470D01*
X115701571Y-68338735D01*
X115677773Y-68344696D01*
X115653504Y-68348296D01*
X115629000Y-68349500D01*
X113479000Y-68349500D01*
X113454496Y-68348296D01*
X113430227Y-68344696D01*
X113406429Y-68338735D01*
X113383329Y-68330470D01*
X113361151Y-68319980D01*
X113340107Y-68307367D01*
X113320402Y-68292753D01*
X113302223Y-68276277D01*
X113285747Y-68258098D01*
X113271133Y-68238393D01*
X113258520Y-68217349D01*
X113248030Y-68195171D01*
X113239765Y-68172071D01*
X113233804Y-68148273D01*
X113230204Y-68124004D01*
X113229000Y-68099500D01*
X113229000Y-67174500D01*
X113230204Y-67149996D01*
X113233804Y-67125727D01*
X113239765Y-67101929D01*
X113248030Y-67078829D01*
X113258520Y-67056651D01*
X113271133Y-67035607D01*
X113285747Y-67015902D01*
X113302223Y-66997723D01*
X113320402Y-66981247D01*
X113340107Y-66966633D01*
X113361151Y-66954020D01*
X113383329Y-66943530D01*
X113406429Y-66935265D01*
X113430227Y-66929304D01*
X113454496Y-66925704D01*
X113479000Y-66924500D01*
X115629000Y-66924500D01*
X115653504Y-66925704D01*
X115653504Y-66925704D01*
G37*
D13*
X114554000Y-67637000D03*
M02*
