G04 #@! TF.GenerationSoftware,KiCad,Pcbnew,(5.1.4-0-10_14)*
G04 #@! TF.CreationDate,2020-02-23T16:46:41+00:00*
G04 #@! TF.ProjectId,Bottom PCB,426f7474-6f6d-4205-9043-422e6b696361,rev?*
G04 #@! TF.SameCoordinates,Original*
G04 #@! TF.FileFunction,Copper,L1,Top*
G04 #@! TF.FilePolarity,Positive*
%FSLAX46Y46*%
G04 Gerber Fmt 4.6, Leading zero omitted, Abs format (unit mm)*
G04 Created by KiCad (PCBNEW (5.1.4-0-10_14)) date 2020-02-23 16:46:41*
%MOMM*%
%LPD*%
G04 APERTURE LIST*
%ADD10O,1.700000X1.700000*%
%ADD11R,1.700000X1.700000*%
%ADD12O,1.600000X1.600000*%
%ADD13R,1.600000X1.600000*%
%ADD14C,2.000000*%
%ADD15C,0.500000*%
%ADD16C,0.400000*%
%ADD17C,0.400000*%
%ADD18C,0.250000*%
%ADD19C,0.254000*%
G04 APERTURE END LIST*
D10*
X159004000Y-93472000D03*
X156464000Y-93472000D03*
X153924000Y-93472000D03*
D11*
X151384000Y-93472000D03*
D10*
X151638000Y-111506000D03*
X154178000Y-111506000D03*
X156718000Y-111506000D03*
D11*
X159258000Y-111506000D03*
D12*
X136271000Y-97282000D03*
X136271000Y-82042000D03*
X171831000Y-97282000D03*
X138811000Y-82042000D03*
X169291000Y-97282000D03*
X141351000Y-82042000D03*
X166751000Y-97282000D03*
X143891000Y-82042000D03*
X164211000Y-97282000D03*
X146431000Y-82042000D03*
X161671000Y-97282000D03*
X148971000Y-82042000D03*
X159131000Y-97282000D03*
X151511000Y-82042000D03*
X156591000Y-97282000D03*
X154051000Y-82042000D03*
X154051000Y-97282000D03*
X156591000Y-82042000D03*
X151511000Y-97282000D03*
X159131000Y-82042000D03*
X148971000Y-97282000D03*
X161671000Y-82042000D03*
X146431000Y-97282000D03*
X164211000Y-82042000D03*
X143891000Y-97282000D03*
X166751000Y-82042000D03*
X141351000Y-97282000D03*
X169291000Y-82042000D03*
X138811000Y-97282000D03*
D13*
X171831000Y-82042000D03*
D10*
X163258500Y-113601500D03*
X165798500Y-113601500D03*
X168338500Y-113601500D03*
D11*
X170878500Y-113601500D03*
D10*
X122301000Y-70104000D03*
X122301000Y-72644000D03*
D11*
X122301000Y-75184000D03*
D10*
X127508000Y-93472000D03*
X127508000Y-90932000D03*
X127508000Y-88392000D03*
D11*
X127508000Y-85852000D03*
D10*
X128143000Y-103632000D03*
X128143000Y-106172000D03*
X128143000Y-108712000D03*
X128143000Y-111252000D03*
D11*
X128143000Y-113792000D03*
D10*
X123571000Y-103632000D03*
X123571000Y-106172000D03*
X123571000Y-108712000D03*
X123571000Y-111252000D03*
D11*
X123571000Y-113792000D03*
D10*
X126111000Y-70104000D03*
X126111000Y-72644000D03*
D11*
X126111000Y-75184000D03*
D10*
X129921000Y-70104000D03*
X129921000Y-72644000D03*
D11*
X129921000Y-75184000D03*
D10*
X133731000Y-70104000D03*
X133731000Y-72644000D03*
D11*
X133731000Y-75184000D03*
D10*
X174371000Y-75374500D03*
X171831000Y-75374500D03*
X169291000Y-75374500D03*
X166751000Y-75374500D03*
X164211000Y-75374500D03*
X161671000Y-75374500D03*
X159131000Y-75374500D03*
D11*
X156591000Y-75374500D03*
D14*
X118745000Y-103505000D03*
X118745000Y-108585000D03*
X118745000Y-113665000D03*
X118745000Y-65405000D03*
X118745000Y-70485000D03*
X118745000Y-75565000D03*
D15*
X137160000Y-99314000D03*
X149098000Y-118364000D03*
X149098000Y-105410000D03*
X168148000Y-100076000D03*
X165354000Y-99314000D03*
X170688000Y-100076000D03*
D16*
X142621000Y-103378000D03*
X154559000Y-103378000D03*
X142494000Y-100076000D03*
X141351000Y-103949500D03*
X153289000Y-103949500D03*
X141351000Y-100076000D03*
X145016001Y-100058001D03*
X162814000Y-99822000D03*
X169177023Y-99475990D03*
X141224000Y-104648000D03*
X156972000Y-103378000D03*
X161290000Y-103378000D03*
X168148000Y-103378000D03*
D17*
X165060999Y-76224499D02*
X164211000Y-75374500D01*
X165411001Y-96081999D02*
X165411001Y-76574501D01*
X165411001Y-76574501D02*
X165060999Y-76224499D01*
X164211000Y-97282000D02*
X165411001Y-96081999D01*
X123444000Y-113665000D02*
X123571000Y-113792000D01*
X123571000Y-113792000D02*
X128143000Y-113792000D01*
X137160000Y-106025000D02*
X137160000Y-99314000D01*
X129393000Y-113792000D02*
X137160000Y-106025000D01*
X128143000Y-113792000D02*
X129393000Y-113792000D01*
X149098000Y-118364000D02*
X149098000Y-105410000D01*
X166116000Y-100076000D02*
X165354000Y-99314000D01*
X168148000Y-100076000D02*
X166116000Y-100076000D01*
X170688000Y-100076000D02*
X168148000Y-100076000D01*
X121451001Y-71104003D02*
X121451001Y-71794001D01*
X118745000Y-68398002D02*
X121451001Y-71104003D01*
X121451001Y-71794001D02*
X122301000Y-72644000D01*
X118745000Y-65405000D02*
X118745000Y-68398002D01*
X120904000Y-72644000D02*
X120904000Y-77089000D01*
X125857000Y-82042000D02*
X136271000Y-82042000D01*
X120904000Y-77089000D02*
X125857000Y-82042000D01*
X118745000Y-70485000D02*
X120904000Y-72644000D01*
D18*
X142621000Y-103378000D02*
X154559000Y-103378000D01*
X142494000Y-100076000D02*
X142494000Y-96521410D01*
X141351000Y-83173370D02*
X141351000Y-82042000D01*
X142494000Y-96521410D02*
X141351000Y-95378410D01*
X141351000Y-95378410D02*
X141351000Y-83173370D01*
X141414500Y-103949500D02*
X153289000Y-103949500D01*
X141351000Y-103886000D02*
X141414500Y-103949500D01*
X139954000Y-83185000D02*
X138811000Y-82042000D01*
X139954000Y-98679000D02*
X139954000Y-83185000D01*
X141351000Y-100076000D02*
X139954000Y-98679000D01*
X145016001Y-83167001D02*
X145016001Y-100058001D01*
X143891000Y-82042000D02*
X145016001Y-83167001D01*
X148171001Y-81242001D02*
X148971000Y-82042000D01*
X138208001Y-71279001D02*
X148171001Y-81242001D01*
X125736997Y-71279001D02*
X138208001Y-71279001D01*
X122301000Y-74714998D02*
X125736997Y-71279001D01*
X122301000Y-75184000D02*
X122301000Y-74714998D01*
X145631001Y-81242001D02*
X146431000Y-82042000D01*
X128386001Y-74008999D02*
X138397999Y-74008999D01*
X127211000Y-75184000D02*
X128386001Y-74008999D01*
X138397999Y-74008999D02*
X145631001Y-81242001D01*
X126111000Y-75184000D02*
X127211000Y-75184000D01*
X142476001Y-95867001D02*
X143091001Y-96482001D01*
X139954000Y-76962000D02*
X142476001Y-79484001D01*
X129921000Y-75184000D02*
X131021000Y-75184000D01*
X132799000Y-76962000D02*
X139954000Y-76962000D01*
X131021000Y-75184000D02*
X132799000Y-76962000D01*
X143091001Y-96482001D02*
X143891000Y-97282000D01*
X142476001Y-79484001D02*
X142476001Y-95867001D01*
X134831000Y-75184000D02*
X133731000Y-75184000D01*
X138812411Y-75184000D02*
X134831000Y-75184000D01*
X145288000Y-81659589D02*
X138812411Y-75184000D01*
X145288000Y-82802590D02*
X145288000Y-81659589D01*
X146431000Y-83945590D02*
X145288000Y-82802590D01*
X146431000Y-97282000D02*
X146431000Y-83945590D01*
X127508000Y-90932000D02*
X127508000Y-88392000D01*
X152310999Y-82841999D02*
X151511000Y-82042000D01*
X157716001Y-88247001D02*
X152310999Y-82841999D01*
X157716001Y-97532003D02*
X157716001Y-88247001D01*
X160005998Y-99822000D02*
X157716001Y-97532003D01*
X162814000Y-99822000D02*
X160005998Y-99822000D01*
X160256001Y-97532003D02*
X161130999Y-98407001D01*
X161130999Y-98407001D02*
X168108034Y-98407001D01*
X168977024Y-99275991D02*
X169177023Y-99475990D01*
X154051000Y-82042000D02*
X160256001Y-88247001D01*
X160256001Y-88247001D02*
X160256001Y-97532003D01*
X168108034Y-98407001D02*
X168977024Y-99275991D01*
X155702000Y-104648000D02*
X156972000Y-103378000D01*
X141224000Y-104648000D02*
X155702000Y-104648000D01*
X161290000Y-103378000D02*
X168148000Y-103378000D01*
D19*
G36*
X180782758Y-51829696D02*
G01*
X182837808Y-53658742D01*
X184787539Y-55599639D01*
X186625885Y-57646344D01*
X188347119Y-59792483D01*
X189945881Y-62031376D01*
X191417155Y-64355998D01*
X192756377Y-66759130D01*
X193959366Y-69233282D01*
X195022365Y-71770716D01*
X195942064Y-74363534D01*
X196715590Y-77003638D01*
X197340543Y-79682838D01*
X197814962Y-82392728D01*
X198137370Y-85124870D01*
X198306763Y-87870740D01*
X198322614Y-90621815D01*
X198184871Y-93369464D01*
X197893965Y-96105141D01*
X197450803Y-98820314D01*
X196856766Y-101506517D01*
X196113707Y-104155374D01*
X195223945Y-106758621D01*
X194190247Y-109308151D01*
X193015851Y-111795985D01*
X191704410Y-114214389D01*
X190260014Y-116555816D01*
X188687175Y-118812955D01*
X186990776Y-120978795D01*
X185176134Y-123046548D01*
X183248886Y-125009792D01*
X181215056Y-126862389D01*
X179074684Y-128603692D01*
X178822645Y-128795000D01*
X119326458Y-128795000D01*
X117357243Y-127230304D01*
X115302193Y-125401258D01*
X113352470Y-123460369D01*
X111514116Y-121413656D01*
X109818270Y-119299170D01*
X116726341Y-119299170D01*
X116726341Y-119760830D01*
X116816407Y-120213620D01*
X116993076Y-120640139D01*
X117249561Y-121023996D01*
X117576005Y-121350440D01*
X117959862Y-121606925D01*
X118386381Y-121783594D01*
X118839171Y-121873660D01*
X119300831Y-121873660D01*
X119753621Y-121783594D01*
X120180140Y-121606925D01*
X120563997Y-121350440D01*
X120890441Y-121023996D01*
X121146926Y-120640139D01*
X121323595Y-120213620D01*
X121413661Y-119760830D01*
X121413661Y-119299170D01*
X131726341Y-119299170D01*
X131726341Y-119760830D01*
X131816407Y-120213620D01*
X131993076Y-120640139D01*
X132249561Y-121023996D01*
X132576005Y-121350440D01*
X132959862Y-121606925D01*
X133386381Y-121783594D01*
X133839171Y-121873660D01*
X134300831Y-121873660D01*
X134753621Y-121783594D01*
X135180140Y-121606925D01*
X135563997Y-121350440D01*
X135890441Y-121023996D01*
X136146926Y-120640139D01*
X136323595Y-120213620D01*
X136413661Y-119760830D01*
X136413661Y-119299170D01*
X161726342Y-119299170D01*
X161726342Y-119760830D01*
X161816407Y-120213620D01*
X161993077Y-120640139D01*
X162249562Y-121023996D01*
X162576005Y-121350439D01*
X162959862Y-121606924D01*
X163386381Y-121783594D01*
X163839171Y-121873659D01*
X164300831Y-121873659D01*
X164753621Y-121783594D01*
X165180140Y-121606924D01*
X165563997Y-121350439D01*
X165890440Y-121023996D01*
X166146925Y-120640139D01*
X166323595Y-120213620D01*
X166413660Y-119760830D01*
X166413660Y-119299170D01*
X176726341Y-119299170D01*
X176726341Y-119760830D01*
X176816407Y-120213620D01*
X176993076Y-120640139D01*
X177249561Y-121023996D01*
X177576005Y-121350440D01*
X177959862Y-121606925D01*
X178386381Y-121783594D01*
X178839171Y-121873660D01*
X179300831Y-121873660D01*
X179753621Y-121783594D01*
X180180140Y-121606925D01*
X180563997Y-121350440D01*
X180890441Y-121023996D01*
X181146926Y-120640139D01*
X181323595Y-120213620D01*
X181413661Y-119760830D01*
X181413661Y-119299170D01*
X181323595Y-118846380D01*
X181146926Y-118419861D01*
X180890441Y-118036004D01*
X180563997Y-117709560D01*
X180180140Y-117453075D01*
X179753621Y-117276406D01*
X179300831Y-117186340D01*
X178839171Y-117186340D01*
X178386381Y-117276406D01*
X177959862Y-117453075D01*
X177576005Y-117709560D01*
X177249561Y-118036004D01*
X176993076Y-118419861D01*
X176816407Y-118846380D01*
X176726341Y-119299170D01*
X166413660Y-119299170D01*
X166323595Y-118846380D01*
X166146925Y-118419861D01*
X165890440Y-118036004D01*
X165563997Y-117709561D01*
X165180140Y-117453076D01*
X164753621Y-117276406D01*
X164300831Y-117186341D01*
X163839171Y-117186341D01*
X163386381Y-117276406D01*
X162959862Y-117453076D01*
X162576005Y-117709561D01*
X162249562Y-118036004D01*
X161993077Y-118419861D01*
X161816407Y-118846380D01*
X161726342Y-119299170D01*
X136413661Y-119299170D01*
X136323595Y-118846380D01*
X136146926Y-118419861D01*
X135890441Y-118036004D01*
X135563997Y-117709560D01*
X135180140Y-117453075D01*
X134753621Y-117276406D01*
X134300831Y-117186340D01*
X133839171Y-117186340D01*
X133386381Y-117276406D01*
X132959862Y-117453075D01*
X132576005Y-117709560D01*
X132249561Y-118036004D01*
X131993076Y-118419861D01*
X131816407Y-118846380D01*
X131726341Y-119299170D01*
X121413661Y-119299170D01*
X121323595Y-118846380D01*
X121146926Y-118419861D01*
X120890441Y-118036004D01*
X120563997Y-117709560D01*
X120180140Y-117453075D01*
X119753621Y-117276406D01*
X119300831Y-117186340D01*
X118839171Y-117186340D01*
X118386381Y-117276406D01*
X117959862Y-117453075D01*
X117576005Y-117709560D01*
X117249561Y-118036004D01*
X116993076Y-118419861D01*
X116816407Y-118846380D01*
X116726341Y-119299170D01*
X109818270Y-119299170D01*
X109792867Y-119267497D01*
X108194120Y-117028624D01*
X106783865Y-114800413D01*
X117789192Y-114800413D01*
X117884956Y-115064814D01*
X118174571Y-115205704D01*
X118486108Y-115287384D01*
X118807595Y-115306718D01*
X119126675Y-115262961D01*
X119431088Y-115157795D01*
X119605044Y-115064814D01*
X119700808Y-114800413D01*
X119542395Y-114642000D01*
X122082928Y-114642000D01*
X122095188Y-114766482D01*
X122131498Y-114886180D01*
X122190463Y-114996494D01*
X122269815Y-115093185D01*
X122366506Y-115172537D01*
X122476820Y-115231502D01*
X122596518Y-115267812D01*
X122721000Y-115280072D01*
X123285250Y-115277000D01*
X123444000Y-115118250D01*
X123444000Y-113919000D01*
X123698000Y-113919000D01*
X123698000Y-115118250D01*
X123856750Y-115277000D01*
X124421000Y-115280072D01*
X124545482Y-115267812D01*
X124665180Y-115231502D01*
X124775494Y-115172537D01*
X124872185Y-115093185D01*
X124951537Y-114996494D01*
X125010502Y-114886180D01*
X125046812Y-114766482D01*
X125059072Y-114642000D01*
X126654928Y-114642000D01*
X126667188Y-114766482D01*
X126703498Y-114886180D01*
X126762463Y-114996494D01*
X126841815Y-115093185D01*
X126938506Y-115172537D01*
X127048820Y-115231502D01*
X127168518Y-115267812D01*
X127293000Y-115280072D01*
X127857250Y-115277000D01*
X128016000Y-115118250D01*
X128016000Y-113919000D01*
X128270000Y-113919000D01*
X128270000Y-115118250D01*
X128428750Y-115277000D01*
X128993000Y-115280072D01*
X129117482Y-115267812D01*
X129237180Y-115231502D01*
X129347494Y-115172537D01*
X129444185Y-115093185D01*
X129523537Y-114996494D01*
X129582502Y-114886180D01*
X129618812Y-114766482D01*
X129631072Y-114642000D01*
X129628000Y-114077750D01*
X129469250Y-113919000D01*
X128270000Y-113919000D01*
X128016000Y-113919000D01*
X126816750Y-113919000D01*
X126658000Y-114077750D01*
X126654928Y-114642000D01*
X125059072Y-114642000D01*
X125056000Y-114077750D01*
X124897250Y-113919000D01*
X123698000Y-113919000D01*
X123444000Y-113919000D01*
X122244750Y-113919000D01*
X122086000Y-114077750D01*
X122082928Y-114642000D01*
X119542395Y-114642000D01*
X118745000Y-113844605D01*
X117789192Y-114800413D01*
X106783865Y-114800413D01*
X106722850Y-114704010D01*
X106178713Y-113727595D01*
X117103282Y-113727595D01*
X117147039Y-114046675D01*
X117252205Y-114351088D01*
X117345186Y-114525044D01*
X117609587Y-114620808D01*
X118565395Y-113665000D01*
X118924605Y-113665000D01*
X119880413Y-114620808D01*
X120144814Y-114525044D01*
X120285704Y-114235429D01*
X120367384Y-113923892D01*
X120386718Y-113602405D01*
X120342961Y-113283325D01*
X120237795Y-112978912D01*
X120144814Y-112804956D01*
X119880413Y-112709192D01*
X118924605Y-113665000D01*
X118565395Y-113665000D01*
X117609587Y-112709192D01*
X117345186Y-112804956D01*
X117204296Y-113094571D01*
X117122616Y-113406108D01*
X117103282Y-113727595D01*
X106178713Y-113727595D01*
X105511085Y-112529587D01*
X117789192Y-112529587D01*
X118745000Y-113485395D01*
X119700808Y-112529587D01*
X119605044Y-112265186D01*
X119315429Y-112124296D01*
X119003892Y-112042616D01*
X118682405Y-112023282D01*
X118363325Y-112067039D01*
X118058912Y-112172205D01*
X117884956Y-112265186D01*
X117789192Y-112529587D01*
X105511085Y-112529587D01*
X105383617Y-112300856D01*
X104180638Y-109826725D01*
X103592986Y-108423967D01*
X117110000Y-108423967D01*
X117110000Y-108746033D01*
X117172832Y-109061912D01*
X117296082Y-109359463D01*
X117475013Y-109627252D01*
X117702748Y-109854987D01*
X117970537Y-110033918D01*
X118268088Y-110157168D01*
X118583967Y-110220000D01*
X118906033Y-110220000D01*
X119221912Y-110157168D01*
X119519463Y-110033918D01*
X119787252Y-109854987D01*
X120014987Y-109627252D01*
X120193918Y-109359463D01*
X120317168Y-109061912D01*
X120380000Y-108746033D01*
X120380000Y-108423967D01*
X120317168Y-108108088D01*
X120193918Y-107810537D01*
X120014987Y-107542748D01*
X119787252Y-107315013D01*
X119519463Y-107136082D01*
X119221912Y-107012832D01*
X118906033Y-106950000D01*
X118583967Y-106950000D01*
X118268088Y-107012832D01*
X117970537Y-107136082D01*
X117702748Y-107315013D01*
X117475013Y-107542748D01*
X117296082Y-107810537D01*
X117172832Y-108108088D01*
X117110000Y-108423967D01*
X103592986Y-108423967D01*
X103117643Y-107289299D01*
X102197937Y-104696466D01*
X101801668Y-103343967D01*
X117110000Y-103343967D01*
X117110000Y-103666033D01*
X117172832Y-103981912D01*
X117296082Y-104279463D01*
X117475013Y-104547252D01*
X117702748Y-104774987D01*
X117970537Y-104953918D01*
X118268088Y-105077168D01*
X118583967Y-105140000D01*
X118906033Y-105140000D01*
X119221912Y-105077168D01*
X119519463Y-104953918D01*
X119787252Y-104774987D01*
X120014987Y-104547252D01*
X120193918Y-104279463D01*
X120317168Y-103981912D01*
X120380000Y-103666033D01*
X120380000Y-103632000D01*
X122078815Y-103632000D01*
X122107487Y-103923111D01*
X122192401Y-104203034D01*
X122330294Y-104461014D01*
X122515866Y-104687134D01*
X122741986Y-104872706D01*
X122796791Y-104902000D01*
X122741986Y-104931294D01*
X122515866Y-105116866D01*
X122330294Y-105342986D01*
X122192401Y-105600966D01*
X122107487Y-105880889D01*
X122078815Y-106172000D01*
X122107487Y-106463111D01*
X122192401Y-106743034D01*
X122330294Y-107001014D01*
X122515866Y-107227134D01*
X122741986Y-107412706D01*
X122796791Y-107442000D01*
X122741986Y-107471294D01*
X122515866Y-107656866D01*
X122330294Y-107882986D01*
X122192401Y-108140966D01*
X122107487Y-108420889D01*
X122078815Y-108712000D01*
X122107487Y-109003111D01*
X122192401Y-109283034D01*
X122330294Y-109541014D01*
X122515866Y-109767134D01*
X122741986Y-109952706D01*
X122796791Y-109982000D01*
X122741986Y-110011294D01*
X122515866Y-110196866D01*
X122330294Y-110422986D01*
X122192401Y-110680966D01*
X122107487Y-110960889D01*
X122078815Y-111252000D01*
X122107487Y-111543111D01*
X122192401Y-111823034D01*
X122330294Y-112081014D01*
X122515866Y-112307134D01*
X122545687Y-112331607D01*
X122476820Y-112352498D01*
X122366506Y-112411463D01*
X122269815Y-112490815D01*
X122190463Y-112587506D01*
X122131498Y-112697820D01*
X122095188Y-112817518D01*
X122082928Y-112942000D01*
X122086000Y-113506250D01*
X122244750Y-113665000D01*
X123444000Y-113665000D01*
X123444000Y-113645000D01*
X123698000Y-113645000D01*
X123698000Y-113665000D01*
X124897250Y-113665000D01*
X125056000Y-113506250D01*
X125059072Y-112942000D01*
X125046812Y-112817518D01*
X125010502Y-112697820D01*
X124951537Y-112587506D01*
X124872185Y-112490815D01*
X124775494Y-112411463D01*
X124665180Y-112352498D01*
X124596313Y-112331607D01*
X124626134Y-112307134D01*
X124811706Y-112081014D01*
X124949599Y-111823034D01*
X125034513Y-111543111D01*
X125063185Y-111252000D01*
X125034513Y-110960889D01*
X124949599Y-110680966D01*
X124811706Y-110422986D01*
X124626134Y-110196866D01*
X124400014Y-110011294D01*
X124345209Y-109982000D01*
X124400014Y-109952706D01*
X124626134Y-109767134D01*
X124811706Y-109541014D01*
X124949599Y-109283034D01*
X125034513Y-109003111D01*
X125063185Y-108712000D01*
X125034513Y-108420889D01*
X124949599Y-108140966D01*
X124811706Y-107882986D01*
X124626134Y-107656866D01*
X124400014Y-107471294D01*
X124345209Y-107442000D01*
X124400014Y-107412706D01*
X124626134Y-107227134D01*
X124811706Y-107001014D01*
X124949599Y-106743034D01*
X125034513Y-106463111D01*
X125063185Y-106172000D01*
X125034513Y-105880889D01*
X124949599Y-105600966D01*
X124811706Y-105342986D01*
X124626134Y-105116866D01*
X124400014Y-104931294D01*
X124345209Y-104902000D01*
X124400014Y-104872706D01*
X124626134Y-104687134D01*
X124811706Y-104461014D01*
X124949599Y-104203034D01*
X125034513Y-103923111D01*
X125063185Y-103632000D01*
X126650815Y-103632000D01*
X126679487Y-103923111D01*
X126764401Y-104203034D01*
X126902294Y-104461014D01*
X127087866Y-104687134D01*
X127313986Y-104872706D01*
X127368791Y-104902000D01*
X127313986Y-104931294D01*
X127087866Y-105116866D01*
X126902294Y-105342986D01*
X126764401Y-105600966D01*
X126679487Y-105880889D01*
X126650815Y-106172000D01*
X126679487Y-106463111D01*
X126764401Y-106743034D01*
X126902294Y-107001014D01*
X127087866Y-107227134D01*
X127313986Y-107412706D01*
X127368791Y-107442000D01*
X127313986Y-107471294D01*
X127087866Y-107656866D01*
X126902294Y-107882986D01*
X126764401Y-108140966D01*
X126679487Y-108420889D01*
X126650815Y-108712000D01*
X126679487Y-109003111D01*
X126764401Y-109283034D01*
X126902294Y-109541014D01*
X127087866Y-109767134D01*
X127313986Y-109952706D01*
X127368791Y-109982000D01*
X127313986Y-110011294D01*
X127087866Y-110196866D01*
X126902294Y-110422986D01*
X126764401Y-110680966D01*
X126679487Y-110960889D01*
X126650815Y-111252000D01*
X126679487Y-111543111D01*
X126764401Y-111823034D01*
X126902294Y-112081014D01*
X127087866Y-112307134D01*
X127117687Y-112331607D01*
X127048820Y-112352498D01*
X126938506Y-112411463D01*
X126841815Y-112490815D01*
X126762463Y-112587506D01*
X126703498Y-112697820D01*
X126667188Y-112817518D01*
X126654928Y-112942000D01*
X126658000Y-113506250D01*
X126816750Y-113665000D01*
X128016000Y-113665000D01*
X128016000Y-113645000D01*
X128270000Y-113645000D01*
X128270000Y-113665000D01*
X129469250Y-113665000D01*
X129532750Y-113601500D01*
X161766315Y-113601500D01*
X161794987Y-113892611D01*
X161879901Y-114172534D01*
X162017794Y-114430514D01*
X162203366Y-114656634D01*
X162429486Y-114842206D01*
X162687466Y-114980099D01*
X162967389Y-115065013D01*
X163185550Y-115086500D01*
X163331450Y-115086500D01*
X163549611Y-115065013D01*
X163829534Y-114980099D01*
X164087514Y-114842206D01*
X164313634Y-114656634D01*
X164499206Y-114430514D01*
X164528500Y-114375709D01*
X164557794Y-114430514D01*
X164743366Y-114656634D01*
X164969486Y-114842206D01*
X165227466Y-114980099D01*
X165507389Y-115065013D01*
X165725550Y-115086500D01*
X165871450Y-115086500D01*
X166089611Y-115065013D01*
X166369534Y-114980099D01*
X166627514Y-114842206D01*
X166853634Y-114656634D01*
X167039206Y-114430514D01*
X167068500Y-114375709D01*
X167097794Y-114430514D01*
X167283366Y-114656634D01*
X167509486Y-114842206D01*
X167767466Y-114980099D01*
X168047389Y-115065013D01*
X168265550Y-115086500D01*
X168411450Y-115086500D01*
X168629611Y-115065013D01*
X168909534Y-114980099D01*
X169167514Y-114842206D01*
X169393634Y-114656634D01*
X169418107Y-114626813D01*
X169438998Y-114695680D01*
X169497963Y-114805994D01*
X169577315Y-114902685D01*
X169674006Y-114982037D01*
X169784320Y-115041002D01*
X169904018Y-115077312D01*
X170028500Y-115089572D01*
X171728500Y-115089572D01*
X171852982Y-115077312D01*
X171972680Y-115041002D01*
X172082994Y-114982037D01*
X172179685Y-114902685D01*
X172259037Y-114805994D01*
X172318002Y-114695680D01*
X172354312Y-114575982D01*
X172366572Y-114451500D01*
X172366572Y-112751500D01*
X172354312Y-112627018D01*
X172318002Y-112507320D01*
X172259037Y-112397006D01*
X172179685Y-112300315D01*
X172082994Y-112220963D01*
X171972680Y-112161998D01*
X171852982Y-112125688D01*
X171728500Y-112113428D01*
X170028500Y-112113428D01*
X169904018Y-112125688D01*
X169784320Y-112161998D01*
X169674006Y-112220963D01*
X169577315Y-112300315D01*
X169497963Y-112397006D01*
X169438998Y-112507320D01*
X169418107Y-112576187D01*
X169393634Y-112546366D01*
X169167514Y-112360794D01*
X168909534Y-112222901D01*
X168629611Y-112137987D01*
X168411450Y-112116500D01*
X168265550Y-112116500D01*
X168047389Y-112137987D01*
X167767466Y-112222901D01*
X167509486Y-112360794D01*
X167283366Y-112546366D01*
X167097794Y-112772486D01*
X167068500Y-112827291D01*
X167039206Y-112772486D01*
X166853634Y-112546366D01*
X166627514Y-112360794D01*
X166369534Y-112222901D01*
X166089611Y-112137987D01*
X165871450Y-112116500D01*
X165725550Y-112116500D01*
X165507389Y-112137987D01*
X165227466Y-112222901D01*
X164969486Y-112360794D01*
X164743366Y-112546366D01*
X164557794Y-112772486D01*
X164528500Y-112827291D01*
X164499206Y-112772486D01*
X164313634Y-112546366D01*
X164087514Y-112360794D01*
X163829534Y-112222901D01*
X163549611Y-112137987D01*
X163331450Y-112116500D01*
X163185550Y-112116500D01*
X162967389Y-112137987D01*
X162687466Y-112222901D01*
X162429486Y-112360794D01*
X162203366Y-112546366D01*
X162017794Y-112772486D01*
X161879901Y-113030466D01*
X161794987Y-113310389D01*
X161766315Y-113601500D01*
X129532750Y-113601500D01*
X129628000Y-113506250D01*
X129631072Y-112942000D01*
X129618812Y-112817518D01*
X129582502Y-112697820D01*
X129523537Y-112587506D01*
X129444185Y-112490815D01*
X129347494Y-112411463D01*
X129237180Y-112352498D01*
X129168313Y-112331607D01*
X129198134Y-112307134D01*
X129383706Y-112081014D01*
X129521599Y-111823034D01*
X129606513Y-111543111D01*
X129610168Y-111506000D01*
X150145815Y-111506000D01*
X150174487Y-111797111D01*
X150259401Y-112077034D01*
X150397294Y-112335014D01*
X150582866Y-112561134D01*
X150808986Y-112746706D01*
X151066966Y-112884599D01*
X151346889Y-112969513D01*
X151565050Y-112991000D01*
X151710950Y-112991000D01*
X151929111Y-112969513D01*
X152209034Y-112884599D01*
X152467014Y-112746706D01*
X152693134Y-112561134D01*
X152878706Y-112335014D01*
X152908000Y-112280209D01*
X152937294Y-112335014D01*
X153122866Y-112561134D01*
X153348986Y-112746706D01*
X153606966Y-112884599D01*
X153886889Y-112969513D01*
X154105050Y-112991000D01*
X154250950Y-112991000D01*
X154469111Y-112969513D01*
X154749034Y-112884599D01*
X155007014Y-112746706D01*
X155233134Y-112561134D01*
X155418706Y-112335014D01*
X155448000Y-112280209D01*
X155477294Y-112335014D01*
X155662866Y-112561134D01*
X155888986Y-112746706D01*
X156146966Y-112884599D01*
X156426889Y-112969513D01*
X156645050Y-112991000D01*
X156790950Y-112991000D01*
X157009111Y-112969513D01*
X157289034Y-112884599D01*
X157547014Y-112746706D01*
X157773134Y-112561134D01*
X157797607Y-112531313D01*
X157818498Y-112600180D01*
X157877463Y-112710494D01*
X157956815Y-112807185D01*
X158053506Y-112886537D01*
X158163820Y-112945502D01*
X158283518Y-112981812D01*
X158408000Y-112994072D01*
X160108000Y-112994072D01*
X160232482Y-112981812D01*
X160352180Y-112945502D01*
X160462494Y-112886537D01*
X160559185Y-112807185D01*
X160638537Y-112710494D01*
X160697502Y-112600180D01*
X160733812Y-112480482D01*
X160746072Y-112356000D01*
X160746072Y-110656000D01*
X160733812Y-110531518D01*
X160697502Y-110411820D01*
X160638537Y-110301506D01*
X160559185Y-110204815D01*
X160462494Y-110125463D01*
X160352180Y-110066498D01*
X160232482Y-110030188D01*
X160108000Y-110017928D01*
X158408000Y-110017928D01*
X158283518Y-110030188D01*
X158163820Y-110066498D01*
X158053506Y-110125463D01*
X157956815Y-110204815D01*
X157877463Y-110301506D01*
X157818498Y-110411820D01*
X157797607Y-110480687D01*
X157773134Y-110450866D01*
X157547014Y-110265294D01*
X157289034Y-110127401D01*
X157009111Y-110042487D01*
X156790950Y-110021000D01*
X156645050Y-110021000D01*
X156426889Y-110042487D01*
X156146966Y-110127401D01*
X155888986Y-110265294D01*
X155662866Y-110450866D01*
X155477294Y-110676986D01*
X155448000Y-110731791D01*
X155418706Y-110676986D01*
X155233134Y-110450866D01*
X155007014Y-110265294D01*
X154749034Y-110127401D01*
X154469111Y-110042487D01*
X154250950Y-110021000D01*
X154105050Y-110021000D01*
X153886889Y-110042487D01*
X153606966Y-110127401D01*
X153348986Y-110265294D01*
X153122866Y-110450866D01*
X152937294Y-110676986D01*
X152908000Y-110731791D01*
X152878706Y-110676986D01*
X152693134Y-110450866D01*
X152467014Y-110265294D01*
X152209034Y-110127401D01*
X151929111Y-110042487D01*
X151710950Y-110021000D01*
X151565050Y-110021000D01*
X151346889Y-110042487D01*
X151066966Y-110127401D01*
X150808986Y-110265294D01*
X150582866Y-110450866D01*
X150397294Y-110676986D01*
X150259401Y-110934966D01*
X150174487Y-111214889D01*
X150145815Y-111506000D01*
X129610168Y-111506000D01*
X129635185Y-111252000D01*
X129606513Y-110960889D01*
X129521599Y-110680966D01*
X129383706Y-110422986D01*
X129198134Y-110196866D01*
X128972014Y-110011294D01*
X128917209Y-109982000D01*
X128972014Y-109952706D01*
X129198134Y-109767134D01*
X129383706Y-109541014D01*
X129521599Y-109283034D01*
X129606513Y-109003111D01*
X129635185Y-108712000D01*
X129606513Y-108420889D01*
X129521599Y-108140966D01*
X129383706Y-107882986D01*
X129198134Y-107656866D01*
X128972014Y-107471294D01*
X128917209Y-107442000D01*
X128972014Y-107412706D01*
X129198134Y-107227134D01*
X129383706Y-107001014D01*
X129521599Y-106743034D01*
X129606513Y-106463111D01*
X129635185Y-106172000D01*
X129606513Y-105880889D01*
X129521599Y-105600966D01*
X129383706Y-105342986D01*
X129198134Y-105116866D01*
X128972014Y-104931294D01*
X128917209Y-104902000D01*
X128972014Y-104872706D01*
X129198134Y-104687134D01*
X129297743Y-104565760D01*
X140389000Y-104565760D01*
X140389000Y-104730240D01*
X140421089Y-104891560D01*
X140484033Y-105043521D01*
X140575413Y-105180281D01*
X140691719Y-105296587D01*
X140828479Y-105387967D01*
X140980440Y-105450911D01*
X141141760Y-105483000D01*
X141306240Y-105483000D01*
X141467560Y-105450911D01*
X141571157Y-105408000D01*
X155664678Y-105408000D01*
X155702000Y-105411676D01*
X155739322Y-105408000D01*
X155739333Y-105408000D01*
X155850986Y-105397003D01*
X155994247Y-105353546D01*
X156126276Y-105282974D01*
X156242001Y-105188001D01*
X156265804Y-105158997D01*
X157263924Y-104160878D01*
X157367521Y-104117967D01*
X157504281Y-104026587D01*
X157620587Y-103910281D01*
X157711967Y-103773521D01*
X157774911Y-103621560D01*
X157807000Y-103460240D01*
X157807000Y-103295760D01*
X160455000Y-103295760D01*
X160455000Y-103460240D01*
X160487089Y-103621560D01*
X160550033Y-103773521D01*
X160641413Y-103910281D01*
X160757719Y-104026587D01*
X160894479Y-104117967D01*
X161046440Y-104180911D01*
X161207760Y-104213000D01*
X161372240Y-104213000D01*
X161533560Y-104180911D01*
X161637157Y-104138000D01*
X167800843Y-104138000D01*
X167904440Y-104180911D01*
X168065760Y-104213000D01*
X168230240Y-104213000D01*
X168391560Y-104180911D01*
X168543521Y-104117967D01*
X168680281Y-104026587D01*
X168796587Y-103910281D01*
X168887967Y-103773521D01*
X168950911Y-103621560D01*
X168983000Y-103460240D01*
X168983000Y-103295760D01*
X168950911Y-103134440D01*
X168887967Y-102982479D01*
X168796587Y-102845719D01*
X168680281Y-102729413D01*
X168543521Y-102638033D01*
X168391560Y-102575089D01*
X168230240Y-102543000D01*
X168065760Y-102543000D01*
X167904440Y-102575089D01*
X167800843Y-102618000D01*
X161637157Y-102618000D01*
X161533560Y-102575089D01*
X161372240Y-102543000D01*
X161207760Y-102543000D01*
X161046440Y-102575089D01*
X160894479Y-102638033D01*
X160757719Y-102729413D01*
X160641413Y-102845719D01*
X160550033Y-102982479D01*
X160487089Y-103134440D01*
X160455000Y-103295760D01*
X157807000Y-103295760D01*
X157774911Y-103134440D01*
X157711967Y-102982479D01*
X157620587Y-102845719D01*
X157504281Y-102729413D01*
X157367521Y-102638033D01*
X157215560Y-102575089D01*
X157054240Y-102543000D01*
X156889760Y-102543000D01*
X156728440Y-102575089D01*
X156576479Y-102638033D01*
X156439719Y-102729413D01*
X156323413Y-102845719D01*
X156232033Y-102982479D01*
X156189122Y-103086076D01*
X155387199Y-103888000D01*
X155222475Y-103888000D01*
X155298967Y-103773521D01*
X155361911Y-103621560D01*
X155394000Y-103460240D01*
X155394000Y-103295760D01*
X155361911Y-103134440D01*
X155298967Y-102982479D01*
X155207587Y-102845719D01*
X155091281Y-102729413D01*
X154954521Y-102638033D01*
X154802560Y-102575089D01*
X154641240Y-102543000D01*
X154476760Y-102543000D01*
X154315440Y-102575089D01*
X154211843Y-102618000D01*
X142968157Y-102618000D01*
X142864560Y-102575089D01*
X142703240Y-102543000D01*
X142538760Y-102543000D01*
X142377440Y-102575089D01*
X142225479Y-102638033D01*
X142088719Y-102729413D01*
X141972413Y-102845719D01*
X141881033Y-102982479D01*
X141818089Y-103134440D01*
X141807137Y-103189500D01*
X141698157Y-103189500D01*
X141594560Y-103146589D01*
X141433240Y-103114500D01*
X141268760Y-103114500D01*
X141107440Y-103146589D01*
X140955479Y-103209533D01*
X140818719Y-103300913D01*
X140702413Y-103417219D01*
X140611033Y-103553979D01*
X140548089Y-103705940D01*
X140516000Y-103867260D01*
X140516000Y-104031740D01*
X140542502Y-104164974D01*
X140484033Y-104252479D01*
X140421089Y-104404440D01*
X140389000Y-104565760D01*
X129297743Y-104565760D01*
X129383706Y-104461014D01*
X129521599Y-104203034D01*
X129606513Y-103923111D01*
X129635185Y-103632000D01*
X129606513Y-103340889D01*
X129521599Y-103060966D01*
X129383706Y-102802986D01*
X129198134Y-102576866D01*
X128972014Y-102391294D01*
X128714034Y-102253401D01*
X128434111Y-102168487D01*
X128215950Y-102147000D01*
X128070050Y-102147000D01*
X127851889Y-102168487D01*
X127571966Y-102253401D01*
X127313986Y-102391294D01*
X127087866Y-102576866D01*
X126902294Y-102802986D01*
X126764401Y-103060966D01*
X126679487Y-103340889D01*
X126650815Y-103632000D01*
X125063185Y-103632000D01*
X125034513Y-103340889D01*
X124949599Y-103060966D01*
X124811706Y-102802986D01*
X124626134Y-102576866D01*
X124400014Y-102391294D01*
X124142034Y-102253401D01*
X123862111Y-102168487D01*
X123643950Y-102147000D01*
X123498050Y-102147000D01*
X123279889Y-102168487D01*
X122999966Y-102253401D01*
X122741986Y-102391294D01*
X122515866Y-102576866D01*
X122330294Y-102802986D01*
X122192401Y-103060966D01*
X122107487Y-103340889D01*
X122078815Y-103632000D01*
X120380000Y-103632000D01*
X120380000Y-103343967D01*
X120317168Y-103028088D01*
X120193918Y-102730537D01*
X120014987Y-102462748D01*
X119787252Y-102235013D01*
X119519463Y-102056082D01*
X119221912Y-101932832D01*
X118906033Y-101870000D01*
X118583967Y-101870000D01*
X118268088Y-101932832D01*
X117970537Y-102056082D01*
X117702748Y-102235013D01*
X117475013Y-102462748D01*
X117296082Y-102730537D01*
X117172832Y-103028088D01*
X117110000Y-103343967D01*
X101801668Y-103343967D01*
X101424410Y-102056357D01*
X100799458Y-99377162D01*
X100325039Y-96667272D01*
X100002631Y-93935128D01*
X99833238Y-91189260D01*
X99823678Y-89530000D01*
X111565001Y-89530000D01*
X111652956Y-90675633D01*
X111914761Y-91794413D01*
X112344278Y-92860117D01*
X112931441Y-93847767D01*
X113662486Y-94734211D01*
X114520279Y-95498673D01*
X115484714Y-96123234D01*
X116533184Y-96593256D01*
X117641116Y-96897721D01*
X117994896Y-96938563D01*
X117959862Y-96953075D01*
X117576005Y-97209560D01*
X117249561Y-97536004D01*
X116993076Y-97919861D01*
X116816407Y-98346380D01*
X116726341Y-98799170D01*
X116726341Y-99260830D01*
X116816407Y-99713620D01*
X116993076Y-100140139D01*
X117249561Y-100523996D01*
X117576005Y-100850440D01*
X117959862Y-101106925D01*
X118386381Y-101283594D01*
X118839171Y-101373660D01*
X119300831Y-101373660D01*
X119753621Y-101283594D01*
X120180140Y-101106925D01*
X120563997Y-100850440D01*
X120890441Y-100523996D01*
X121146926Y-100140139D01*
X121323595Y-99713620D01*
X121413661Y-99260830D01*
X121413661Y-98799170D01*
X121323595Y-98346380D01*
X121146926Y-97919861D01*
X120890441Y-97536004D01*
X120563997Y-97209560D01*
X120180140Y-96953075D01*
X120153883Y-96942199D01*
X121058687Y-96766722D01*
X122140061Y-96378340D01*
X123149475Y-95829438D01*
X124063270Y-95132882D01*
X124860027Y-94305000D01*
X125521071Y-93365195D01*
X126030907Y-92335497D01*
X126233011Y-91696875D01*
X126267294Y-91761014D01*
X126452866Y-91987134D01*
X126678986Y-92172706D01*
X126733791Y-92202000D01*
X126678986Y-92231294D01*
X126452866Y-92416866D01*
X126267294Y-92642986D01*
X126129401Y-92900966D01*
X126044487Y-93180889D01*
X126015815Y-93472000D01*
X126044487Y-93763111D01*
X126129401Y-94043034D01*
X126267294Y-94301014D01*
X126452866Y-94527134D01*
X126678986Y-94712706D01*
X126936966Y-94850599D01*
X127216889Y-94935513D01*
X127435050Y-94957000D01*
X127580950Y-94957000D01*
X127799111Y-94935513D01*
X128079034Y-94850599D01*
X128337014Y-94712706D01*
X128563134Y-94527134D01*
X128748706Y-94301014D01*
X128886599Y-94043034D01*
X128971513Y-93763111D01*
X129000185Y-93472000D01*
X128971513Y-93180889D01*
X128886599Y-92900966D01*
X128748706Y-92642986D01*
X128563134Y-92416866D01*
X128337014Y-92231294D01*
X128282209Y-92202000D01*
X128337014Y-92172706D01*
X128563134Y-91987134D01*
X128748706Y-91761014D01*
X128886599Y-91503034D01*
X128971513Y-91223111D01*
X129000185Y-90932000D01*
X128971513Y-90640889D01*
X128886599Y-90360966D01*
X128748706Y-90102986D01*
X128563134Y-89876866D01*
X128337014Y-89691294D01*
X128282209Y-89662000D01*
X128337014Y-89632706D01*
X128563134Y-89447134D01*
X128748706Y-89221014D01*
X128886599Y-88963034D01*
X128971513Y-88683111D01*
X129000185Y-88392000D01*
X128971513Y-88100889D01*
X128886599Y-87820966D01*
X128748706Y-87562986D01*
X128563134Y-87336866D01*
X128533313Y-87312393D01*
X128602180Y-87291502D01*
X128712494Y-87232537D01*
X128809185Y-87153185D01*
X128888537Y-87056494D01*
X128947502Y-86946180D01*
X128983812Y-86826482D01*
X128996072Y-86702000D01*
X128993000Y-86137750D01*
X128834250Y-85979000D01*
X127635000Y-85979000D01*
X127635000Y-85999000D01*
X127381000Y-85999000D01*
X127381000Y-85979000D01*
X126181750Y-85979000D01*
X126023000Y-86137750D01*
X126019928Y-86702000D01*
X126019968Y-86702411D01*
X125521071Y-85694805D01*
X125033763Y-85002000D01*
X126019928Y-85002000D01*
X126023000Y-85566250D01*
X126181750Y-85725000D01*
X127381000Y-85725000D01*
X127381000Y-84525750D01*
X127635000Y-84525750D01*
X127635000Y-85725000D01*
X128834250Y-85725000D01*
X128993000Y-85566250D01*
X128996072Y-85002000D01*
X128983812Y-84877518D01*
X128947502Y-84757820D01*
X128888537Y-84647506D01*
X128809185Y-84550815D01*
X128712494Y-84471463D01*
X128602180Y-84412498D01*
X128482482Y-84376188D01*
X128358000Y-84363928D01*
X127793750Y-84367000D01*
X127635000Y-84525750D01*
X127381000Y-84525750D01*
X127222250Y-84367000D01*
X126658000Y-84363928D01*
X126533518Y-84376188D01*
X126413820Y-84412498D01*
X126303506Y-84471463D01*
X126206815Y-84550815D01*
X126127463Y-84647506D01*
X126068498Y-84757820D01*
X126032188Y-84877518D01*
X126019928Y-85002000D01*
X125033763Y-85002000D01*
X124860027Y-84755000D01*
X124063270Y-83927118D01*
X123149475Y-83230562D01*
X122140061Y-82681660D01*
X121058687Y-82293278D01*
X120153883Y-82117801D01*
X120180140Y-82106925D01*
X120563997Y-81850440D01*
X120890441Y-81523996D01*
X121146926Y-81140139D01*
X121323595Y-80713620D01*
X121413661Y-80260830D01*
X121413661Y-79799170D01*
X121323595Y-79346380D01*
X121146926Y-78919861D01*
X120890441Y-78536004D01*
X120563997Y-78209560D01*
X120180140Y-77953075D01*
X119753621Y-77776406D01*
X119300831Y-77686340D01*
X118839171Y-77686340D01*
X118386381Y-77776406D01*
X117959862Y-77953075D01*
X117576005Y-78209560D01*
X117249561Y-78536004D01*
X116993076Y-78919861D01*
X116816407Y-79346380D01*
X116726341Y-79799170D01*
X116726341Y-80260830D01*
X116816407Y-80713620D01*
X116993076Y-81140139D01*
X117249561Y-81523996D01*
X117576005Y-81850440D01*
X117959862Y-82106925D01*
X117994896Y-82121437D01*
X117641116Y-82162279D01*
X116533184Y-82466744D01*
X115484714Y-82936766D01*
X114520279Y-83561327D01*
X113662486Y-84325789D01*
X112931441Y-85212233D01*
X112344278Y-86199883D01*
X111914761Y-87265587D01*
X111652956Y-88384367D01*
X111565001Y-89530000D01*
X99823678Y-89530000D01*
X99817387Y-88438185D01*
X99955130Y-85690536D01*
X100246036Y-82954862D01*
X100689198Y-80239686D01*
X101283234Y-77553487D01*
X102026294Y-74904626D01*
X102916054Y-72301385D01*
X103717790Y-70323967D01*
X117110000Y-70323967D01*
X117110000Y-70646033D01*
X117172832Y-70961912D01*
X117296082Y-71259463D01*
X117475013Y-71527252D01*
X117702748Y-71754987D01*
X117970537Y-71933918D01*
X118268088Y-72057168D01*
X118583967Y-72120000D01*
X118906033Y-72120000D01*
X119150504Y-72071372D01*
X120069000Y-72989868D01*
X120069000Y-74603585D01*
X120014987Y-74522748D01*
X119787252Y-74295013D01*
X119519463Y-74116082D01*
X119221912Y-73992832D01*
X118906033Y-73930000D01*
X118583967Y-73930000D01*
X118268088Y-73992832D01*
X117970537Y-74116082D01*
X117702748Y-74295013D01*
X117475013Y-74522748D01*
X117296082Y-74790537D01*
X117172832Y-75088088D01*
X117110000Y-75403967D01*
X117110000Y-75726033D01*
X117172832Y-76041912D01*
X117296082Y-76339463D01*
X117475013Y-76607252D01*
X117702748Y-76834987D01*
X117970537Y-77013918D01*
X118268088Y-77137168D01*
X118583967Y-77200000D01*
X118906033Y-77200000D01*
X119221912Y-77137168D01*
X119519463Y-77013918D01*
X119787252Y-76834987D01*
X120014987Y-76607252D01*
X120069001Y-76526415D01*
X120069001Y-77047972D01*
X120064960Y-77089000D01*
X120081082Y-77252688D01*
X120128828Y-77410086D01*
X120206364Y-77555145D01*
X120206365Y-77555146D01*
X120310710Y-77682291D01*
X120342574Y-77708441D01*
X125237563Y-82603432D01*
X125263709Y-82635291D01*
X125295568Y-82661437D01*
X125295570Y-82661439D01*
X125360574Y-82714786D01*
X125390854Y-82739636D01*
X125535913Y-82817172D01*
X125693311Y-82864918D01*
X125815981Y-82877000D01*
X125815982Y-82877000D01*
X125857000Y-82881040D01*
X125898018Y-82877000D01*
X135099888Y-82877000D01*
X135251392Y-83061608D01*
X135469899Y-83240932D01*
X135719192Y-83374182D01*
X135989691Y-83456236D01*
X136200508Y-83477000D01*
X136341492Y-83477000D01*
X136552309Y-83456236D01*
X136822808Y-83374182D01*
X137072101Y-83240932D01*
X137290608Y-83061608D01*
X137469932Y-82843101D01*
X137541000Y-82710142D01*
X137612068Y-82843101D01*
X137791392Y-83061608D01*
X138009899Y-83240932D01*
X138259192Y-83374182D01*
X138529691Y-83456236D01*
X138740508Y-83477000D01*
X138881492Y-83477000D01*
X139092309Y-83456236D01*
X139136906Y-83442708D01*
X139194001Y-83499803D01*
X139194000Y-95898611D01*
X139092309Y-95867764D01*
X138881492Y-95847000D01*
X138740508Y-95847000D01*
X138529691Y-95867764D01*
X138259192Y-95949818D01*
X138009899Y-96083068D01*
X137791392Y-96262392D01*
X137612068Y-96480899D01*
X137541000Y-96613858D01*
X137469932Y-96480899D01*
X137290608Y-96262392D01*
X137072101Y-96083068D01*
X136822808Y-95949818D01*
X136552309Y-95867764D01*
X136341492Y-95847000D01*
X136200508Y-95847000D01*
X135989691Y-95867764D01*
X135719192Y-95949818D01*
X135469899Y-96083068D01*
X135251392Y-96262392D01*
X135072068Y-96480899D01*
X134938818Y-96730192D01*
X134856764Y-97000691D01*
X134829057Y-97282000D01*
X134856764Y-97563309D01*
X134938818Y-97833808D01*
X135072068Y-98083101D01*
X135251392Y-98301608D01*
X135469899Y-98480932D01*
X135719192Y-98614182D01*
X135989691Y-98696236D01*
X136200508Y-98717000D01*
X136341492Y-98717000D01*
X136552309Y-98696236D01*
X136822808Y-98614182D01*
X137072101Y-98480932D01*
X137290608Y-98301608D01*
X137469932Y-98083101D01*
X137541000Y-97950142D01*
X137612068Y-98083101D01*
X137791392Y-98301608D01*
X138009899Y-98480932D01*
X138259192Y-98614182D01*
X138529691Y-98696236D01*
X138740508Y-98717000D01*
X138881492Y-98717000D01*
X139092309Y-98696236D01*
X139191593Y-98666119D01*
X139190324Y-98679000D01*
X139194000Y-98716322D01*
X139194000Y-98716332D01*
X139204997Y-98827985D01*
X139243448Y-98954742D01*
X139248454Y-98971246D01*
X139319026Y-99103276D01*
X139338501Y-99127006D01*
X139413999Y-99219001D01*
X139443003Y-99242804D01*
X140568122Y-100367924D01*
X140611033Y-100471521D01*
X140702413Y-100608281D01*
X140818719Y-100724587D01*
X140955479Y-100815967D01*
X141107440Y-100878911D01*
X141268760Y-100911000D01*
X141433240Y-100911000D01*
X141594560Y-100878911D01*
X141746521Y-100815967D01*
X141883281Y-100724587D01*
X141922500Y-100685368D01*
X141961719Y-100724587D01*
X142098479Y-100815967D01*
X142250440Y-100878911D01*
X142411760Y-100911000D01*
X142576240Y-100911000D01*
X142737560Y-100878911D01*
X142889521Y-100815967D01*
X143026281Y-100724587D01*
X143142587Y-100608281D01*
X143233967Y-100471521D01*
X143296911Y-100319560D01*
X143329000Y-100158240D01*
X143329000Y-99993760D01*
X143296911Y-99832440D01*
X143254000Y-99728843D01*
X143254000Y-98568646D01*
X143339192Y-98614182D01*
X143609691Y-98696236D01*
X143820508Y-98717000D01*
X143961492Y-98717000D01*
X144172309Y-98696236D01*
X144256002Y-98670848D01*
X144256002Y-99710842D01*
X144213090Y-99814441D01*
X144181001Y-99975761D01*
X144181001Y-100140241D01*
X144213090Y-100301561D01*
X144276034Y-100453522D01*
X144367414Y-100590282D01*
X144483720Y-100706588D01*
X144620480Y-100797968D01*
X144772441Y-100860912D01*
X144933761Y-100893001D01*
X145098241Y-100893001D01*
X145259561Y-100860912D01*
X145411522Y-100797968D01*
X145548282Y-100706588D01*
X145664588Y-100590282D01*
X145755968Y-100453522D01*
X145818912Y-100301561D01*
X145851001Y-100140241D01*
X145851001Y-99975761D01*
X145818912Y-99814441D01*
X145776001Y-99710844D01*
X145776001Y-98559025D01*
X145879192Y-98614182D01*
X146149691Y-98696236D01*
X146360508Y-98717000D01*
X146501492Y-98717000D01*
X146712309Y-98696236D01*
X146982808Y-98614182D01*
X147232101Y-98480932D01*
X147450608Y-98301608D01*
X147629932Y-98083101D01*
X147701000Y-97950142D01*
X147772068Y-98083101D01*
X147951392Y-98301608D01*
X148169899Y-98480932D01*
X148419192Y-98614182D01*
X148689691Y-98696236D01*
X148900508Y-98717000D01*
X149041492Y-98717000D01*
X149252309Y-98696236D01*
X149522808Y-98614182D01*
X149772101Y-98480932D01*
X149990608Y-98301608D01*
X150169932Y-98083101D01*
X150241000Y-97950142D01*
X150312068Y-98083101D01*
X150491392Y-98301608D01*
X150709899Y-98480932D01*
X150959192Y-98614182D01*
X151229691Y-98696236D01*
X151440508Y-98717000D01*
X151581492Y-98717000D01*
X151792309Y-98696236D01*
X152062808Y-98614182D01*
X152312101Y-98480932D01*
X152530608Y-98301608D01*
X152709932Y-98083101D01*
X152781000Y-97950142D01*
X152852068Y-98083101D01*
X153031392Y-98301608D01*
X153249899Y-98480932D01*
X153499192Y-98614182D01*
X153769691Y-98696236D01*
X153980508Y-98717000D01*
X154121492Y-98717000D01*
X154332309Y-98696236D01*
X154602808Y-98614182D01*
X154852101Y-98480932D01*
X155070608Y-98301608D01*
X155249932Y-98083101D01*
X155321000Y-97950142D01*
X155392068Y-98083101D01*
X155571392Y-98301608D01*
X155789899Y-98480932D01*
X156039192Y-98614182D01*
X156309691Y-98696236D01*
X156520508Y-98717000D01*
X156661492Y-98717000D01*
X156872309Y-98696236D01*
X157142808Y-98614182D01*
X157392101Y-98480932D01*
X157500867Y-98391670D01*
X159442199Y-100333003D01*
X159465997Y-100362001D01*
X159581722Y-100456974D01*
X159713751Y-100527546D01*
X159857012Y-100571003D01*
X159968665Y-100582000D01*
X159968675Y-100582000D01*
X160005998Y-100585676D01*
X160043321Y-100582000D01*
X162466843Y-100582000D01*
X162570440Y-100624911D01*
X162731760Y-100657000D01*
X162896240Y-100657000D01*
X163057560Y-100624911D01*
X163209521Y-100561967D01*
X163346281Y-100470587D01*
X163462587Y-100354281D01*
X163553967Y-100217521D01*
X163616911Y-100065560D01*
X163649000Y-99904240D01*
X163649000Y-99739760D01*
X163616911Y-99578440D01*
X163553967Y-99426479D01*
X163462587Y-99289719D01*
X163346281Y-99173413D01*
X163336685Y-99167001D01*
X167793232Y-99167001D01*
X168394145Y-99767915D01*
X168437056Y-99871511D01*
X168528436Y-100008271D01*
X168644742Y-100124577D01*
X168781502Y-100215957D01*
X168933463Y-100278901D01*
X169094783Y-100310990D01*
X169259263Y-100310990D01*
X169420583Y-100278901D01*
X169572544Y-100215957D01*
X169709304Y-100124577D01*
X169825610Y-100008271D01*
X169916990Y-99871511D01*
X169979934Y-99719550D01*
X170012023Y-99558230D01*
X170012023Y-99393750D01*
X169979934Y-99232430D01*
X169916990Y-99080469D01*
X169825610Y-98943709D01*
X169709304Y-98827403D01*
X169572544Y-98736023D01*
X169494897Y-98703861D01*
X169572309Y-98696236D01*
X169842808Y-98614182D01*
X170092101Y-98480932D01*
X170310608Y-98301608D01*
X170489932Y-98083101D01*
X170561000Y-97950142D01*
X170632068Y-98083101D01*
X170811392Y-98301608D01*
X171029899Y-98480932D01*
X171279192Y-98614182D01*
X171549691Y-98696236D01*
X171760508Y-98717000D01*
X171901492Y-98717000D01*
X172112309Y-98696236D01*
X172382808Y-98614182D01*
X172632101Y-98480932D01*
X172850608Y-98301608D01*
X173029932Y-98083101D01*
X173163182Y-97833808D01*
X173245236Y-97563309D01*
X173272943Y-97282000D01*
X173245236Y-97000691D01*
X173163182Y-96730192D01*
X173029932Y-96480899D01*
X172850608Y-96262392D01*
X172632101Y-96083068D01*
X172382808Y-95949818D01*
X172112309Y-95867764D01*
X171901492Y-95847000D01*
X171760508Y-95847000D01*
X171549691Y-95867764D01*
X171279192Y-95949818D01*
X171029899Y-96083068D01*
X170811392Y-96262392D01*
X170632068Y-96480899D01*
X170561000Y-96613858D01*
X170489932Y-96480899D01*
X170310608Y-96262392D01*
X170092101Y-96083068D01*
X169842808Y-95949818D01*
X169572309Y-95867764D01*
X169361492Y-95847000D01*
X169220508Y-95847000D01*
X169009691Y-95867764D01*
X168739192Y-95949818D01*
X168489899Y-96083068D01*
X168271392Y-96262392D01*
X168092068Y-96480899D01*
X168021000Y-96613858D01*
X167949932Y-96480899D01*
X167770608Y-96262392D01*
X167552101Y-96083068D01*
X167302808Y-95949818D01*
X167032309Y-95867764D01*
X166821492Y-95847000D01*
X166680508Y-95847000D01*
X166469691Y-95867764D01*
X166199192Y-95949818D01*
X165949899Y-96083068D01*
X165731392Y-96262392D01*
X165552068Y-96480899D01*
X165478421Y-96618682D01*
X165363385Y-96426869D01*
X165174414Y-96218481D01*
X164948420Y-96050963D01*
X164694087Y-95930754D01*
X164560039Y-95890096D01*
X164338000Y-96012085D01*
X164338000Y-97155000D01*
X164358000Y-97155000D01*
X164358000Y-97409000D01*
X164338000Y-97409000D01*
X164338000Y-97429000D01*
X164084000Y-97429000D01*
X164084000Y-97409000D01*
X164064000Y-97409000D01*
X164064000Y-97155000D01*
X164084000Y-97155000D01*
X164084000Y-96012085D01*
X163861961Y-95890096D01*
X163727913Y-95930754D01*
X163473580Y-96050963D01*
X163247586Y-96218481D01*
X163058615Y-96426869D01*
X162943579Y-96618682D01*
X162869932Y-96480899D01*
X162690608Y-96262392D01*
X162472101Y-96083068D01*
X162222808Y-95949818D01*
X161952309Y-95867764D01*
X161741492Y-95847000D01*
X161600508Y-95847000D01*
X161389691Y-95867764D01*
X161119192Y-95949818D01*
X161016001Y-96004975D01*
X161016001Y-89530000D01*
X171565001Y-89530000D01*
X171652956Y-90675633D01*
X171914761Y-91794413D01*
X172344278Y-92860117D01*
X172931441Y-93847767D01*
X173662486Y-94734211D01*
X174520279Y-95498673D01*
X175484714Y-96123234D01*
X176533184Y-96593256D01*
X177641116Y-96897721D01*
X177994898Y-96938564D01*
X177959862Y-96953076D01*
X177576005Y-97209561D01*
X177249561Y-97536005D01*
X176993076Y-97919862D01*
X176816407Y-98346381D01*
X176726341Y-98799171D01*
X176726341Y-99260831D01*
X176816407Y-99713621D01*
X176993076Y-100140140D01*
X177249561Y-100523997D01*
X177576005Y-100850441D01*
X177959862Y-101106926D01*
X178386381Y-101283595D01*
X178839171Y-101373661D01*
X179300831Y-101373661D01*
X179753621Y-101283595D01*
X180180140Y-101106926D01*
X180563997Y-100850441D01*
X180890441Y-100523997D01*
X181146926Y-100140140D01*
X181323595Y-99713621D01*
X181413661Y-99260831D01*
X181413661Y-98799171D01*
X181323595Y-98346381D01*
X181146926Y-97919862D01*
X180890441Y-97536005D01*
X180563997Y-97209561D01*
X180180140Y-96953076D01*
X180153881Y-96942199D01*
X181058687Y-96766722D01*
X182140061Y-96378340D01*
X183149475Y-95829438D01*
X184063270Y-95132882D01*
X184860027Y-94305000D01*
X185521071Y-93365195D01*
X186030907Y-92335497D01*
X186377585Y-91240041D01*
X186552980Y-90104502D01*
X186552980Y-88955498D01*
X186377585Y-87819959D01*
X186030907Y-86724503D01*
X185521071Y-85694805D01*
X184860027Y-84755000D01*
X184063270Y-83927118D01*
X183149475Y-83230562D01*
X182140061Y-82681660D01*
X181058687Y-82293278D01*
X180153883Y-82117801D01*
X180180140Y-82106925D01*
X180563997Y-81850440D01*
X180890441Y-81523996D01*
X181146926Y-81140139D01*
X181323595Y-80713620D01*
X181413661Y-80260830D01*
X181413661Y-79799170D01*
X181323595Y-79346380D01*
X181146926Y-78919861D01*
X180890441Y-78536004D01*
X180563997Y-78209560D01*
X180180140Y-77953075D01*
X179753621Y-77776406D01*
X179300831Y-77686340D01*
X178839171Y-77686340D01*
X178386381Y-77776406D01*
X177959862Y-77953075D01*
X177576005Y-78209560D01*
X177249561Y-78536004D01*
X176993076Y-78919861D01*
X176816407Y-79346380D01*
X176726341Y-79799170D01*
X176726341Y-80260830D01*
X176816407Y-80713620D01*
X176993076Y-81140139D01*
X177249561Y-81523996D01*
X177576005Y-81850440D01*
X177959862Y-82106925D01*
X177994896Y-82121437D01*
X177641116Y-82162279D01*
X176533184Y-82466744D01*
X175484714Y-82936766D01*
X174520279Y-83561327D01*
X173662486Y-84325789D01*
X172931441Y-85212233D01*
X172344278Y-86199883D01*
X171914761Y-87265587D01*
X171652956Y-88384367D01*
X171565001Y-89530000D01*
X161016001Y-89530000D01*
X161016001Y-88284334D01*
X161019678Y-88247001D01*
X161005004Y-88098015D01*
X160961547Y-87954754D01*
X160890975Y-87822725D01*
X160819800Y-87735998D01*
X160796002Y-87707000D01*
X160767005Y-87683203D01*
X156560801Y-83477000D01*
X156661492Y-83477000D01*
X156872309Y-83456236D01*
X157142808Y-83374182D01*
X157392101Y-83240932D01*
X157610608Y-83061608D01*
X157789932Y-82843101D01*
X157861000Y-82710142D01*
X157932068Y-82843101D01*
X158111392Y-83061608D01*
X158329899Y-83240932D01*
X158579192Y-83374182D01*
X158849691Y-83456236D01*
X159060508Y-83477000D01*
X159201492Y-83477000D01*
X159412309Y-83456236D01*
X159682808Y-83374182D01*
X159932101Y-83240932D01*
X160150608Y-83061608D01*
X160329932Y-82843101D01*
X160401000Y-82710142D01*
X160472068Y-82843101D01*
X160651392Y-83061608D01*
X160869899Y-83240932D01*
X161119192Y-83374182D01*
X161389691Y-83456236D01*
X161600508Y-83477000D01*
X161741492Y-83477000D01*
X161952309Y-83456236D01*
X162222808Y-83374182D01*
X162472101Y-83240932D01*
X162690608Y-83061608D01*
X162869932Y-82843101D01*
X162941000Y-82710142D01*
X163012068Y-82843101D01*
X163191392Y-83061608D01*
X163409899Y-83240932D01*
X163659192Y-83374182D01*
X163929691Y-83456236D01*
X164140508Y-83477000D01*
X164281492Y-83477000D01*
X164492309Y-83456236D01*
X164762808Y-83374182D01*
X165012101Y-83240932D01*
X165230608Y-83061608D01*
X165409932Y-82843101D01*
X165481000Y-82710142D01*
X165552068Y-82843101D01*
X165731392Y-83061608D01*
X165949899Y-83240932D01*
X166199192Y-83374182D01*
X166469691Y-83456236D01*
X166680508Y-83477000D01*
X166821492Y-83477000D01*
X167032309Y-83456236D01*
X167302808Y-83374182D01*
X167552101Y-83240932D01*
X167770608Y-83061608D01*
X167949932Y-82843101D01*
X168021000Y-82710142D01*
X168092068Y-82843101D01*
X168271392Y-83061608D01*
X168489899Y-83240932D01*
X168739192Y-83374182D01*
X169009691Y-83456236D01*
X169220508Y-83477000D01*
X169361492Y-83477000D01*
X169572309Y-83456236D01*
X169842808Y-83374182D01*
X170092101Y-83240932D01*
X170310608Y-83061608D01*
X170403419Y-82948518D01*
X170405188Y-82966482D01*
X170441498Y-83086180D01*
X170500463Y-83196494D01*
X170579815Y-83293185D01*
X170676506Y-83372537D01*
X170786820Y-83431502D01*
X170906518Y-83467812D01*
X171031000Y-83480072D01*
X172631000Y-83480072D01*
X172755482Y-83467812D01*
X172875180Y-83431502D01*
X172985494Y-83372537D01*
X173082185Y-83293185D01*
X173161537Y-83196494D01*
X173220502Y-83086180D01*
X173256812Y-82966482D01*
X173269072Y-82842000D01*
X173269072Y-81242000D01*
X173256812Y-81117518D01*
X173220502Y-80997820D01*
X173161537Y-80887506D01*
X173082185Y-80790815D01*
X172985494Y-80711463D01*
X172875180Y-80652498D01*
X172755482Y-80616188D01*
X172631000Y-80603928D01*
X171031000Y-80603928D01*
X170906518Y-80616188D01*
X170786820Y-80652498D01*
X170676506Y-80711463D01*
X170579815Y-80790815D01*
X170500463Y-80887506D01*
X170441498Y-80997820D01*
X170405188Y-81117518D01*
X170403419Y-81135482D01*
X170310608Y-81022392D01*
X170092101Y-80843068D01*
X169842808Y-80709818D01*
X169572309Y-80627764D01*
X169361492Y-80607000D01*
X169220508Y-80607000D01*
X169009691Y-80627764D01*
X168739192Y-80709818D01*
X168489899Y-80843068D01*
X168271392Y-81022392D01*
X168092068Y-81240899D01*
X168021000Y-81373858D01*
X167949932Y-81240899D01*
X167770608Y-81022392D01*
X167552101Y-80843068D01*
X167302808Y-80709818D01*
X167032309Y-80627764D01*
X166821492Y-80607000D01*
X166680508Y-80607000D01*
X166469691Y-80627764D01*
X166199192Y-80709818D01*
X165949899Y-80843068D01*
X165731392Y-81022392D01*
X165552068Y-81240899D01*
X165481000Y-81373858D01*
X165409932Y-81240899D01*
X165230608Y-81022392D01*
X165012101Y-80843068D01*
X164762808Y-80709818D01*
X164492309Y-80627764D01*
X164281492Y-80607000D01*
X164140508Y-80607000D01*
X163929691Y-80627764D01*
X163659192Y-80709818D01*
X163409899Y-80843068D01*
X163191392Y-81022392D01*
X163012068Y-81240899D01*
X162941000Y-81373858D01*
X162869932Y-81240899D01*
X162690608Y-81022392D01*
X162472101Y-80843068D01*
X162222808Y-80709818D01*
X161952309Y-80627764D01*
X161741492Y-80607000D01*
X161600508Y-80607000D01*
X161389691Y-80627764D01*
X161119192Y-80709818D01*
X160869899Y-80843068D01*
X160651392Y-81022392D01*
X160472068Y-81240899D01*
X160401000Y-81373858D01*
X160329932Y-81240899D01*
X160150608Y-81022392D01*
X159932101Y-80843068D01*
X159682808Y-80709818D01*
X159412309Y-80627764D01*
X159201492Y-80607000D01*
X159060508Y-80607000D01*
X158849691Y-80627764D01*
X158579192Y-80709818D01*
X158329899Y-80843068D01*
X158111392Y-81022392D01*
X157932068Y-81240899D01*
X157861000Y-81373858D01*
X157789932Y-81240899D01*
X157610608Y-81022392D01*
X157392101Y-80843068D01*
X157142808Y-80709818D01*
X156872309Y-80627764D01*
X156661492Y-80607000D01*
X156520508Y-80607000D01*
X156309691Y-80627764D01*
X156039192Y-80709818D01*
X155789899Y-80843068D01*
X155571392Y-81022392D01*
X155392068Y-81240899D01*
X155321000Y-81373858D01*
X155249932Y-81240899D01*
X155070608Y-81022392D01*
X154852101Y-80843068D01*
X154602808Y-80709818D01*
X154332309Y-80627764D01*
X154121492Y-80607000D01*
X153980508Y-80607000D01*
X153769691Y-80627764D01*
X153499192Y-80709818D01*
X153249899Y-80843068D01*
X153031392Y-81022392D01*
X152852068Y-81240899D01*
X152781000Y-81373858D01*
X152709932Y-81240899D01*
X152530608Y-81022392D01*
X152312101Y-80843068D01*
X152062808Y-80709818D01*
X151792309Y-80627764D01*
X151581492Y-80607000D01*
X151440508Y-80607000D01*
X151229691Y-80627764D01*
X150959192Y-80709818D01*
X150709899Y-80843068D01*
X150491392Y-81022392D01*
X150312068Y-81240899D01*
X150241000Y-81373858D01*
X150169932Y-81240899D01*
X149990608Y-81022392D01*
X149772101Y-80843068D01*
X149522808Y-80709818D01*
X149252309Y-80627764D01*
X149041492Y-80607000D01*
X148900508Y-80607000D01*
X148689691Y-80627764D01*
X148645094Y-80641292D01*
X142528302Y-74524500D01*
X155102928Y-74524500D01*
X155102928Y-76224500D01*
X155115188Y-76348982D01*
X155151498Y-76468680D01*
X155210463Y-76578994D01*
X155289815Y-76675685D01*
X155386506Y-76755037D01*
X155496820Y-76814002D01*
X155616518Y-76850312D01*
X155741000Y-76862572D01*
X157441000Y-76862572D01*
X157565482Y-76850312D01*
X157685180Y-76814002D01*
X157795494Y-76755037D01*
X157892185Y-76675685D01*
X157971537Y-76578994D01*
X158030502Y-76468680D01*
X158051393Y-76399813D01*
X158075866Y-76429634D01*
X158301986Y-76615206D01*
X158559966Y-76753099D01*
X158839889Y-76838013D01*
X159058050Y-76859500D01*
X159203950Y-76859500D01*
X159422111Y-76838013D01*
X159702034Y-76753099D01*
X159960014Y-76615206D01*
X160186134Y-76429634D01*
X160371706Y-76203514D01*
X160406201Y-76138977D01*
X160475822Y-76255855D01*
X160670731Y-76472088D01*
X160904080Y-76646141D01*
X161166901Y-76771325D01*
X161314110Y-76815976D01*
X161544000Y-76694655D01*
X161544000Y-75501500D01*
X161798000Y-75501500D01*
X161798000Y-76694655D01*
X162027890Y-76815976D01*
X162175099Y-76771325D01*
X162437920Y-76646141D01*
X162671269Y-76472088D01*
X162866178Y-76255855D01*
X162941000Y-76130245D01*
X163015822Y-76255855D01*
X163210731Y-76472088D01*
X163444080Y-76646141D01*
X163706901Y-76771325D01*
X163854110Y-76815976D01*
X164084000Y-76694655D01*
X164084000Y-75501500D01*
X161798000Y-75501500D01*
X161544000Y-75501500D01*
X161524000Y-75501500D01*
X161524000Y-75247500D01*
X161544000Y-75247500D01*
X161544000Y-74054345D01*
X161798000Y-74054345D01*
X161798000Y-75247500D01*
X164084000Y-75247500D01*
X164084000Y-74054345D01*
X164338000Y-74054345D01*
X164338000Y-75247500D01*
X164358000Y-75247500D01*
X164358000Y-75501500D01*
X164338000Y-75501500D01*
X164338000Y-76694655D01*
X164567890Y-76815976D01*
X164715099Y-76771325D01*
X164977920Y-76646141D01*
X165211269Y-76472088D01*
X165406178Y-76255855D01*
X165475799Y-76138977D01*
X165510294Y-76203514D01*
X165695866Y-76429634D01*
X165921986Y-76615206D01*
X166179966Y-76753099D01*
X166459889Y-76838013D01*
X166678050Y-76859500D01*
X166823950Y-76859500D01*
X167042111Y-76838013D01*
X167322034Y-76753099D01*
X167580014Y-76615206D01*
X167806134Y-76429634D01*
X167991706Y-76203514D01*
X168021000Y-76148709D01*
X168050294Y-76203514D01*
X168235866Y-76429634D01*
X168461986Y-76615206D01*
X168719966Y-76753099D01*
X168999889Y-76838013D01*
X169218050Y-76859500D01*
X169363950Y-76859500D01*
X169582111Y-76838013D01*
X169862034Y-76753099D01*
X170120014Y-76615206D01*
X170346134Y-76429634D01*
X170531706Y-76203514D01*
X170561000Y-76148709D01*
X170590294Y-76203514D01*
X170775866Y-76429634D01*
X171001986Y-76615206D01*
X171259966Y-76753099D01*
X171539889Y-76838013D01*
X171758050Y-76859500D01*
X171903950Y-76859500D01*
X172122111Y-76838013D01*
X172402034Y-76753099D01*
X172660014Y-76615206D01*
X172886134Y-76429634D01*
X173071706Y-76203514D01*
X173101000Y-76148709D01*
X173130294Y-76203514D01*
X173315866Y-76429634D01*
X173541986Y-76615206D01*
X173799966Y-76753099D01*
X174079889Y-76838013D01*
X174298050Y-76859500D01*
X174443950Y-76859500D01*
X174662111Y-76838013D01*
X174942034Y-76753099D01*
X175200014Y-76615206D01*
X175426134Y-76429634D01*
X175611706Y-76203514D01*
X175749599Y-75945534D01*
X175834513Y-75665611D01*
X175863185Y-75374500D01*
X175834513Y-75083389D01*
X175749599Y-74803466D01*
X175611706Y-74545486D01*
X175426134Y-74319366D01*
X175200014Y-74133794D01*
X174942034Y-73995901D01*
X174662111Y-73910987D01*
X174443950Y-73889500D01*
X174298050Y-73889500D01*
X174079889Y-73910987D01*
X173799966Y-73995901D01*
X173541986Y-74133794D01*
X173315866Y-74319366D01*
X173130294Y-74545486D01*
X173101000Y-74600291D01*
X173071706Y-74545486D01*
X172886134Y-74319366D01*
X172660014Y-74133794D01*
X172402034Y-73995901D01*
X172122111Y-73910987D01*
X171903950Y-73889500D01*
X171758050Y-73889500D01*
X171539889Y-73910987D01*
X171259966Y-73995901D01*
X171001986Y-74133794D01*
X170775866Y-74319366D01*
X170590294Y-74545486D01*
X170561000Y-74600291D01*
X170531706Y-74545486D01*
X170346134Y-74319366D01*
X170120014Y-74133794D01*
X169862034Y-73995901D01*
X169582111Y-73910987D01*
X169363950Y-73889500D01*
X169218050Y-73889500D01*
X168999889Y-73910987D01*
X168719966Y-73995901D01*
X168461986Y-74133794D01*
X168235866Y-74319366D01*
X168050294Y-74545486D01*
X168021000Y-74600291D01*
X167991706Y-74545486D01*
X167806134Y-74319366D01*
X167580014Y-74133794D01*
X167322034Y-73995901D01*
X167042111Y-73910987D01*
X166823950Y-73889500D01*
X166678050Y-73889500D01*
X166459889Y-73910987D01*
X166179966Y-73995901D01*
X165921986Y-74133794D01*
X165695866Y-74319366D01*
X165510294Y-74545486D01*
X165475799Y-74610023D01*
X165406178Y-74493145D01*
X165211269Y-74276912D01*
X164977920Y-74102859D01*
X164715099Y-73977675D01*
X164567890Y-73933024D01*
X164338000Y-74054345D01*
X164084000Y-74054345D01*
X163854110Y-73933024D01*
X163706901Y-73977675D01*
X163444080Y-74102859D01*
X163210731Y-74276912D01*
X163015822Y-74493145D01*
X162941000Y-74618755D01*
X162866178Y-74493145D01*
X162671269Y-74276912D01*
X162437920Y-74102859D01*
X162175099Y-73977675D01*
X162027890Y-73933024D01*
X161798000Y-74054345D01*
X161544000Y-74054345D01*
X161314110Y-73933024D01*
X161166901Y-73977675D01*
X160904080Y-74102859D01*
X160670731Y-74276912D01*
X160475822Y-74493145D01*
X160406201Y-74610023D01*
X160371706Y-74545486D01*
X160186134Y-74319366D01*
X159960014Y-74133794D01*
X159702034Y-73995901D01*
X159422111Y-73910987D01*
X159203950Y-73889500D01*
X159058050Y-73889500D01*
X158839889Y-73910987D01*
X158559966Y-73995901D01*
X158301986Y-74133794D01*
X158075866Y-74319366D01*
X158051393Y-74349187D01*
X158030502Y-74280320D01*
X157971537Y-74170006D01*
X157892185Y-74073315D01*
X157795494Y-73993963D01*
X157685180Y-73934998D01*
X157565482Y-73898688D01*
X157441000Y-73886428D01*
X155741000Y-73886428D01*
X155616518Y-73898688D01*
X155496820Y-73934998D01*
X155386506Y-73993963D01*
X155289815Y-74073315D01*
X155210463Y-74170006D01*
X155151498Y-74280320D01*
X155115188Y-74400018D01*
X155102928Y-74524500D01*
X142528302Y-74524500D01*
X138771805Y-70768004D01*
X138748002Y-70739000D01*
X138632277Y-70644027D01*
X138500248Y-70573455D01*
X138356987Y-70529998D01*
X138245334Y-70519001D01*
X138245323Y-70519001D01*
X138208001Y-70515325D01*
X138170679Y-70519001D01*
X135156931Y-70519001D01*
X135194513Y-70395111D01*
X135223185Y-70104000D01*
X135194513Y-69812889D01*
X135109599Y-69532966D01*
X134971706Y-69274986D01*
X134786134Y-69048866D01*
X134560014Y-68863294D01*
X134302034Y-68725401D01*
X134022111Y-68640487D01*
X133803950Y-68619000D01*
X133658050Y-68619000D01*
X133439889Y-68640487D01*
X133159966Y-68725401D01*
X132901986Y-68863294D01*
X132675866Y-69048866D01*
X132490294Y-69274986D01*
X132352401Y-69532966D01*
X132267487Y-69812889D01*
X132238815Y-70104000D01*
X132267487Y-70395111D01*
X132305069Y-70519001D01*
X131346931Y-70519001D01*
X131384513Y-70395111D01*
X131413185Y-70104000D01*
X131384513Y-69812889D01*
X131299599Y-69532966D01*
X131161706Y-69274986D01*
X130976134Y-69048866D01*
X130750014Y-68863294D01*
X130492034Y-68725401D01*
X130212111Y-68640487D01*
X129993950Y-68619000D01*
X129848050Y-68619000D01*
X129629889Y-68640487D01*
X129349966Y-68725401D01*
X129091986Y-68863294D01*
X128865866Y-69048866D01*
X128680294Y-69274986D01*
X128542401Y-69532966D01*
X128457487Y-69812889D01*
X128428815Y-70104000D01*
X128457487Y-70395111D01*
X128495069Y-70519001D01*
X127536931Y-70519001D01*
X127574513Y-70395111D01*
X127603185Y-70104000D01*
X127574513Y-69812889D01*
X127489599Y-69532966D01*
X127351706Y-69274986D01*
X127166134Y-69048866D01*
X126940014Y-68863294D01*
X126682034Y-68725401D01*
X126402111Y-68640487D01*
X126183950Y-68619000D01*
X126038050Y-68619000D01*
X125819889Y-68640487D01*
X125539966Y-68725401D01*
X125281986Y-68863294D01*
X125055866Y-69048866D01*
X124870294Y-69274986D01*
X124732401Y-69532966D01*
X124647487Y-69812889D01*
X124618815Y-70104000D01*
X124647487Y-70395111D01*
X124732401Y-70675034D01*
X124870294Y-70933014D01*
X124932448Y-71008748D01*
X123721905Y-72219291D01*
X123697825Y-72139901D01*
X123572641Y-71877080D01*
X123398588Y-71643731D01*
X123182355Y-71448822D01*
X123065477Y-71379201D01*
X123130014Y-71344706D01*
X123356134Y-71159134D01*
X123541706Y-70933014D01*
X123679599Y-70675034D01*
X123764513Y-70395111D01*
X123793185Y-70104000D01*
X123764513Y-69812889D01*
X123679599Y-69532966D01*
X123541706Y-69274986D01*
X123356134Y-69048866D01*
X123130014Y-68863294D01*
X122872034Y-68725401D01*
X122592111Y-68640487D01*
X122373950Y-68619000D01*
X122228050Y-68619000D01*
X122009889Y-68640487D01*
X121729966Y-68725401D01*
X121471986Y-68863294D01*
X121245866Y-69048866D01*
X121060294Y-69274986D01*
X120922401Y-69532966D01*
X120837487Y-69812889D01*
X120808815Y-70104000D01*
X120837487Y-70395111D01*
X120922401Y-70675034D01*
X121060294Y-70933014D01*
X121245866Y-71159134D01*
X121471986Y-71344706D01*
X121536523Y-71379201D01*
X121419645Y-71448822D01*
X121203412Y-71643731D01*
X121152652Y-71711784D01*
X120331372Y-70890504D01*
X120380000Y-70646033D01*
X120380000Y-70323967D01*
X120317168Y-70008088D01*
X120193918Y-69710537D01*
X120014987Y-69442748D01*
X119787252Y-69215013D01*
X119519463Y-69036082D01*
X119221912Y-68912832D01*
X118906033Y-68850000D01*
X118583967Y-68850000D01*
X118268088Y-68912832D01*
X117970537Y-69036082D01*
X117702748Y-69215013D01*
X117475013Y-69442748D01*
X117296082Y-69710537D01*
X117172832Y-70008088D01*
X117110000Y-70323967D01*
X103717790Y-70323967D01*
X103949748Y-69751864D01*
X105124150Y-67264015D01*
X105516541Y-66540413D01*
X117789192Y-66540413D01*
X117884956Y-66804814D01*
X118174571Y-66945704D01*
X118486108Y-67027384D01*
X118807595Y-67046718D01*
X119126675Y-67002961D01*
X119431088Y-66897795D01*
X119605044Y-66804814D01*
X119700808Y-66540413D01*
X118745000Y-65584605D01*
X117789192Y-66540413D01*
X105516541Y-66540413D01*
X106098304Y-65467595D01*
X117103282Y-65467595D01*
X117147039Y-65786675D01*
X117252205Y-66091088D01*
X117345186Y-66265044D01*
X117609587Y-66360808D01*
X118565395Y-65405000D01*
X118924605Y-65405000D01*
X119880413Y-66360808D01*
X120144814Y-66265044D01*
X120285704Y-65975429D01*
X120367384Y-65663892D01*
X120386718Y-65342405D01*
X120342961Y-65023325D01*
X120237795Y-64718912D01*
X120144814Y-64544956D01*
X119880413Y-64449192D01*
X118924605Y-65405000D01*
X118565395Y-65405000D01*
X117609587Y-64449192D01*
X117345186Y-64544956D01*
X117204296Y-64834571D01*
X117122616Y-65146108D01*
X117103282Y-65467595D01*
X106098304Y-65467595D01*
X106435591Y-64845611D01*
X106790932Y-64269587D01*
X117789192Y-64269587D01*
X118745000Y-65225395D01*
X119700808Y-64269587D01*
X119605044Y-64005186D01*
X119315429Y-63864296D01*
X119003892Y-63782616D01*
X118682405Y-63763282D01*
X118363325Y-63807039D01*
X118058912Y-63912205D01*
X117884956Y-64005186D01*
X117789192Y-64269587D01*
X106790932Y-64269587D01*
X107879992Y-62504176D01*
X109452835Y-60247034D01*
X110195251Y-59299170D01*
X116726341Y-59299170D01*
X116726341Y-59760830D01*
X116816407Y-60213620D01*
X116993076Y-60640139D01*
X117249561Y-61023996D01*
X117576005Y-61350440D01*
X117959862Y-61606925D01*
X118386381Y-61783594D01*
X118839171Y-61873660D01*
X119300831Y-61873660D01*
X119753621Y-61783594D01*
X120180140Y-61606925D01*
X120563997Y-61350440D01*
X120890441Y-61023996D01*
X121146926Y-60640139D01*
X121323595Y-60213620D01*
X121413661Y-59760830D01*
X121413661Y-59299170D01*
X131726341Y-59299170D01*
X131726341Y-59760830D01*
X131816407Y-60213620D01*
X131993076Y-60640139D01*
X132249561Y-61023996D01*
X132576005Y-61350440D01*
X132959862Y-61606925D01*
X133386381Y-61783594D01*
X133839171Y-61873660D01*
X134300831Y-61873660D01*
X134753621Y-61783594D01*
X135180140Y-61606925D01*
X135563997Y-61350440D01*
X135890441Y-61023996D01*
X136146926Y-60640139D01*
X136323595Y-60213620D01*
X136413661Y-59760830D01*
X136413661Y-59299170D01*
X161726342Y-59299170D01*
X161726342Y-59760830D01*
X161816407Y-60213620D01*
X161993077Y-60640139D01*
X162249562Y-61023996D01*
X162576005Y-61350439D01*
X162959862Y-61606924D01*
X163386381Y-61783594D01*
X163839171Y-61873659D01*
X164300831Y-61873659D01*
X164753621Y-61783594D01*
X165180140Y-61606924D01*
X165563997Y-61350439D01*
X165890440Y-61023996D01*
X166146925Y-60640139D01*
X166323595Y-60213620D01*
X166413660Y-59760830D01*
X166413660Y-59299170D01*
X176726341Y-59299170D01*
X176726341Y-59760830D01*
X176816407Y-60213620D01*
X176993076Y-60640139D01*
X177249561Y-61023996D01*
X177576005Y-61350440D01*
X177959862Y-61606925D01*
X178386381Y-61783594D01*
X178839171Y-61873660D01*
X179300831Y-61873660D01*
X179753621Y-61783594D01*
X180180140Y-61606925D01*
X180563997Y-61350440D01*
X180890441Y-61023996D01*
X181146926Y-60640139D01*
X181323595Y-60213620D01*
X181413661Y-59760830D01*
X181413661Y-59299170D01*
X181323595Y-58846380D01*
X181146926Y-58419861D01*
X180890441Y-58036004D01*
X180563997Y-57709560D01*
X180180140Y-57453075D01*
X179753621Y-57276406D01*
X179300831Y-57186340D01*
X178839171Y-57186340D01*
X178386381Y-57276406D01*
X177959862Y-57453075D01*
X177576005Y-57709560D01*
X177249561Y-58036004D01*
X176993076Y-58419861D01*
X176816407Y-58846380D01*
X176726341Y-59299170D01*
X166413660Y-59299170D01*
X166323595Y-58846380D01*
X166146925Y-58419861D01*
X165890440Y-58036004D01*
X165563997Y-57709561D01*
X165180140Y-57453076D01*
X164753621Y-57276406D01*
X164300831Y-57186341D01*
X163839171Y-57186341D01*
X163386381Y-57276406D01*
X162959862Y-57453076D01*
X162576005Y-57709561D01*
X162249562Y-58036004D01*
X161993077Y-58419861D01*
X161816407Y-58846380D01*
X161726342Y-59299170D01*
X136413661Y-59299170D01*
X136323595Y-58846380D01*
X136146926Y-58419861D01*
X135890441Y-58036004D01*
X135563997Y-57709560D01*
X135180140Y-57453075D01*
X134753621Y-57276406D01*
X134300831Y-57186340D01*
X133839171Y-57186340D01*
X133386381Y-57276406D01*
X132959862Y-57453075D01*
X132576005Y-57709560D01*
X132249561Y-58036004D01*
X131993076Y-58419861D01*
X131816407Y-58846380D01*
X131726341Y-59299170D01*
X121413661Y-59299170D01*
X121323595Y-58846380D01*
X121146926Y-58419861D01*
X120890441Y-58036004D01*
X120563997Y-57709560D01*
X120180140Y-57453075D01*
X119753621Y-57276406D01*
X119300831Y-57186340D01*
X118839171Y-57186340D01*
X118386381Y-57276406D01*
X117959862Y-57453075D01*
X117576005Y-57709560D01*
X117249561Y-58036004D01*
X116993076Y-58419861D01*
X116816407Y-58846380D01*
X116726341Y-59299170D01*
X110195251Y-59299170D01*
X111149218Y-58081214D01*
X112963867Y-56013452D01*
X114891115Y-54050208D01*
X116924953Y-52197603D01*
X119065317Y-50456308D01*
X119317356Y-50265000D01*
X178813543Y-50265000D01*
X180782758Y-51829696D01*
X180782758Y-51829696D01*
G37*
X180782758Y-51829696D02*
X182837808Y-53658742D01*
X184787539Y-55599639D01*
X186625885Y-57646344D01*
X188347119Y-59792483D01*
X189945881Y-62031376D01*
X191417155Y-64355998D01*
X192756377Y-66759130D01*
X193959366Y-69233282D01*
X195022365Y-71770716D01*
X195942064Y-74363534D01*
X196715590Y-77003638D01*
X197340543Y-79682838D01*
X197814962Y-82392728D01*
X198137370Y-85124870D01*
X198306763Y-87870740D01*
X198322614Y-90621815D01*
X198184871Y-93369464D01*
X197893965Y-96105141D01*
X197450803Y-98820314D01*
X196856766Y-101506517D01*
X196113707Y-104155374D01*
X195223945Y-106758621D01*
X194190247Y-109308151D01*
X193015851Y-111795985D01*
X191704410Y-114214389D01*
X190260014Y-116555816D01*
X188687175Y-118812955D01*
X186990776Y-120978795D01*
X185176134Y-123046548D01*
X183248886Y-125009792D01*
X181215056Y-126862389D01*
X179074684Y-128603692D01*
X178822645Y-128795000D01*
X119326458Y-128795000D01*
X117357243Y-127230304D01*
X115302193Y-125401258D01*
X113352470Y-123460369D01*
X111514116Y-121413656D01*
X109818270Y-119299170D01*
X116726341Y-119299170D01*
X116726341Y-119760830D01*
X116816407Y-120213620D01*
X116993076Y-120640139D01*
X117249561Y-121023996D01*
X117576005Y-121350440D01*
X117959862Y-121606925D01*
X118386381Y-121783594D01*
X118839171Y-121873660D01*
X119300831Y-121873660D01*
X119753621Y-121783594D01*
X120180140Y-121606925D01*
X120563997Y-121350440D01*
X120890441Y-121023996D01*
X121146926Y-120640139D01*
X121323595Y-120213620D01*
X121413661Y-119760830D01*
X121413661Y-119299170D01*
X131726341Y-119299170D01*
X131726341Y-119760830D01*
X131816407Y-120213620D01*
X131993076Y-120640139D01*
X132249561Y-121023996D01*
X132576005Y-121350440D01*
X132959862Y-121606925D01*
X133386381Y-121783594D01*
X133839171Y-121873660D01*
X134300831Y-121873660D01*
X134753621Y-121783594D01*
X135180140Y-121606925D01*
X135563997Y-121350440D01*
X135890441Y-121023996D01*
X136146926Y-120640139D01*
X136323595Y-120213620D01*
X136413661Y-119760830D01*
X136413661Y-119299170D01*
X161726342Y-119299170D01*
X161726342Y-119760830D01*
X161816407Y-120213620D01*
X161993077Y-120640139D01*
X162249562Y-121023996D01*
X162576005Y-121350439D01*
X162959862Y-121606924D01*
X163386381Y-121783594D01*
X163839171Y-121873659D01*
X164300831Y-121873659D01*
X164753621Y-121783594D01*
X165180140Y-121606924D01*
X165563997Y-121350439D01*
X165890440Y-121023996D01*
X166146925Y-120640139D01*
X166323595Y-120213620D01*
X166413660Y-119760830D01*
X166413660Y-119299170D01*
X176726341Y-119299170D01*
X176726341Y-119760830D01*
X176816407Y-120213620D01*
X176993076Y-120640139D01*
X177249561Y-121023996D01*
X177576005Y-121350440D01*
X177959862Y-121606925D01*
X178386381Y-121783594D01*
X178839171Y-121873660D01*
X179300831Y-121873660D01*
X179753621Y-121783594D01*
X180180140Y-121606925D01*
X180563997Y-121350440D01*
X180890441Y-121023996D01*
X181146926Y-120640139D01*
X181323595Y-120213620D01*
X181413661Y-119760830D01*
X181413661Y-119299170D01*
X181323595Y-118846380D01*
X181146926Y-118419861D01*
X180890441Y-118036004D01*
X180563997Y-117709560D01*
X180180140Y-117453075D01*
X179753621Y-117276406D01*
X179300831Y-117186340D01*
X178839171Y-117186340D01*
X178386381Y-117276406D01*
X177959862Y-117453075D01*
X177576005Y-117709560D01*
X177249561Y-118036004D01*
X176993076Y-118419861D01*
X176816407Y-118846380D01*
X176726341Y-119299170D01*
X166413660Y-119299170D01*
X166323595Y-118846380D01*
X166146925Y-118419861D01*
X165890440Y-118036004D01*
X165563997Y-117709561D01*
X165180140Y-117453076D01*
X164753621Y-117276406D01*
X164300831Y-117186341D01*
X163839171Y-117186341D01*
X163386381Y-117276406D01*
X162959862Y-117453076D01*
X162576005Y-117709561D01*
X162249562Y-118036004D01*
X161993077Y-118419861D01*
X161816407Y-118846380D01*
X161726342Y-119299170D01*
X136413661Y-119299170D01*
X136323595Y-118846380D01*
X136146926Y-118419861D01*
X135890441Y-118036004D01*
X135563997Y-117709560D01*
X135180140Y-117453075D01*
X134753621Y-117276406D01*
X134300831Y-117186340D01*
X133839171Y-117186340D01*
X133386381Y-117276406D01*
X132959862Y-117453075D01*
X132576005Y-117709560D01*
X132249561Y-118036004D01*
X131993076Y-118419861D01*
X131816407Y-118846380D01*
X131726341Y-119299170D01*
X121413661Y-119299170D01*
X121323595Y-118846380D01*
X121146926Y-118419861D01*
X120890441Y-118036004D01*
X120563997Y-117709560D01*
X120180140Y-117453075D01*
X119753621Y-117276406D01*
X119300831Y-117186340D01*
X118839171Y-117186340D01*
X118386381Y-117276406D01*
X117959862Y-117453075D01*
X117576005Y-117709560D01*
X117249561Y-118036004D01*
X116993076Y-118419861D01*
X116816407Y-118846380D01*
X116726341Y-119299170D01*
X109818270Y-119299170D01*
X109792867Y-119267497D01*
X108194120Y-117028624D01*
X106783865Y-114800413D01*
X117789192Y-114800413D01*
X117884956Y-115064814D01*
X118174571Y-115205704D01*
X118486108Y-115287384D01*
X118807595Y-115306718D01*
X119126675Y-115262961D01*
X119431088Y-115157795D01*
X119605044Y-115064814D01*
X119700808Y-114800413D01*
X119542395Y-114642000D01*
X122082928Y-114642000D01*
X122095188Y-114766482D01*
X122131498Y-114886180D01*
X122190463Y-114996494D01*
X122269815Y-115093185D01*
X122366506Y-115172537D01*
X122476820Y-115231502D01*
X122596518Y-115267812D01*
X122721000Y-115280072D01*
X123285250Y-115277000D01*
X123444000Y-115118250D01*
X123444000Y-113919000D01*
X123698000Y-113919000D01*
X123698000Y-115118250D01*
X123856750Y-115277000D01*
X124421000Y-115280072D01*
X124545482Y-115267812D01*
X124665180Y-115231502D01*
X124775494Y-115172537D01*
X124872185Y-115093185D01*
X124951537Y-114996494D01*
X125010502Y-114886180D01*
X125046812Y-114766482D01*
X125059072Y-114642000D01*
X126654928Y-114642000D01*
X126667188Y-114766482D01*
X126703498Y-114886180D01*
X126762463Y-114996494D01*
X126841815Y-115093185D01*
X126938506Y-115172537D01*
X127048820Y-115231502D01*
X127168518Y-115267812D01*
X127293000Y-115280072D01*
X127857250Y-115277000D01*
X128016000Y-115118250D01*
X128016000Y-113919000D01*
X128270000Y-113919000D01*
X128270000Y-115118250D01*
X128428750Y-115277000D01*
X128993000Y-115280072D01*
X129117482Y-115267812D01*
X129237180Y-115231502D01*
X129347494Y-115172537D01*
X129444185Y-115093185D01*
X129523537Y-114996494D01*
X129582502Y-114886180D01*
X129618812Y-114766482D01*
X129631072Y-114642000D01*
X129628000Y-114077750D01*
X129469250Y-113919000D01*
X128270000Y-113919000D01*
X128016000Y-113919000D01*
X126816750Y-113919000D01*
X126658000Y-114077750D01*
X126654928Y-114642000D01*
X125059072Y-114642000D01*
X125056000Y-114077750D01*
X124897250Y-113919000D01*
X123698000Y-113919000D01*
X123444000Y-113919000D01*
X122244750Y-113919000D01*
X122086000Y-114077750D01*
X122082928Y-114642000D01*
X119542395Y-114642000D01*
X118745000Y-113844605D01*
X117789192Y-114800413D01*
X106783865Y-114800413D01*
X106722850Y-114704010D01*
X106178713Y-113727595D01*
X117103282Y-113727595D01*
X117147039Y-114046675D01*
X117252205Y-114351088D01*
X117345186Y-114525044D01*
X117609587Y-114620808D01*
X118565395Y-113665000D01*
X118924605Y-113665000D01*
X119880413Y-114620808D01*
X120144814Y-114525044D01*
X120285704Y-114235429D01*
X120367384Y-113923892D01*
X120386718Y-113602405D01*
X120342961Y-113283325D01*
X120237795Y-112978912D01*
X120144814Y-112804956D01*
X119880413Y-112709192D01*
X118924605Y-113665000D01*
X118565395Y-113665000D01*
X117609587Y-112709192D01*
X117345186Y-112804956D01*
X117204296Y-113094571D01*
X117122616Y-113406108D01*
X117103282Y-113727595D01*
X106178713Y-113727595D01*
X105511085Y-112529587D01*
X117789192Y-112529587D01*
X118745000Y-113485395D01*
X119700808Y-112529587D01*
X119605044Y-112265186D01*
X119315429Y-112124296D01*
X119003892Y-112042616D01*
X118682405Y-112023282D01*
X118363325Y-112067039D01*
X118058912Y-112172205D01*
X117884956Y-112265186D01*
X117789192Y-112529587D01*
X105511085Y-112529587D01*
X105383617Y-112300856D01*
X104180638Y-109826725D01*
X103592986Y-108423967D01*
X117110000Y-108423967D01*
X117110000Y-108746033D01*
X117172832Y-109061912D01*
X117296082Y-109359463D01*
X117475013Y-109627252D01*
X117702748Y-109854987D01*
X117970537Y-110033918D01*
X118268088Y-110157168D01*
X118583967Y-110220000D01*
X118906033Y-110220000D01*
X119221912Y-110157168D01*
X119519463Y-110033918D01*
X119787252Y-109854987D01*
X120014987Y-109627252D01*
X120193918Y-109359463D01*
X120317168Y-109061912D01*
X120380000Y-108746033D01*
X120380000Y-108423967D01*
X120317168Y-108108088D01*
X120193918Y-107810537D01*
X120014987Y-107542748D01*
X119787252Y-107315013D01*
X119519463Y-107136082D01*
X119221912Y-107012832D01*
X118906033Y-106950000D01*
X118583967Y-106950000D01*
X118268088Y-107012832D01*
X117970537Y-107136082D01*
X117702748Y-107315013D01*
X117475013Y-107542748D01*
X117296082Y-107810537D01*
X117172832Y-108108088D01*
X117110000Y-108423967D01*
X103592986Y-108423967D01*
X103117643Y-107289299D01*
X102197937Y-104696466D01*
X101801668Y-103343967D01*
X117110000Y-103343967D01*
X117110000Y-103666033D01*
X117172832Y-103981912D01*
X117296082Y-104279463D01*
X117475013Y-104547252D01*
X117702748Y-104774987D01*
X117970537Y-104953918D01*
X118268088Y-105077168D01*
X118583967Y-105140000D01*
X118906033Y-105140000D01*
X119221912Y-105077168D01*
X119519463Y-104953918D01*
X119787252Y-104774987D01*
X120014987Y-104547252D01*
X120193918Y-104279463D01*
X120317168Y-103981912D01*
X120380000Y-103666033D01*
X120380000Y-103632000D01*
X122078815Y-103632000D01*
X122107487Y-103923111D01*
X122192401Y-104203034D01*
X122330294Y-104461014D01*
X122515866Y-104687134D01*
X122741986Y-104872706D01*
X122796791Y-104902000D01*
X122741986Y-104931294D01*
X122515866Y-105116866D01*
X122330294Y-105342986D01*
X122192401Y-105600966D01*
X122107487Y-105880889D01*
X122078815Y-106172000D01*
X122107487Y-106463111D01*
X122192401Y-106743034D01*
X122330294Y-107001014D01*
X122515866Y-107227134D01*
X122741986Y-107412706D01*
X122796791Y-107442000D01*
X122741986Y-107471294D01*
X122515866Y-107656866D01*
X122330294Y-107882986D01*
X122192401Y-108140966D01*
X122107487Y-108420889D01*
X122078815Y-108712000D01*
X122107487Y-109003111D01*
X122192401Y-109283034D01*
X122330294Y-109541014D01*
X122515866Y-109767134D01*
X122741986Y-109952706D01*
X122796791Y-109982000D01*
X122741986Y-110011294D01*
X122515866Y-110196866D01*
X122330294Y-110422986D01*
X122192401Y-110680966D01*
X122107487Y-110960889D01*
X122078815Y-111252000D01*
X122107487Y-111543111D01*
X122192401Y-111823034D01*
X122330294Y-112081014D01*
X122515866Y-112307134D01*
X122545687Y-112331607D01*
X122476820Y-112352498D01*
X122366506Y-112411463D01*
X122269815Y-112490815D01*
X122190463Y-112587506D01*
X122131498Y-112697820D01*
X122095188Y-112817518D01*
X122082928Y-112942000D01*
X122086000Y-113506250D01*
X122244750Y-113665000D01*
X123444000Y-113665000D01*
X123444000Y-113645000D01*
X123698000Y-113645000D01*
X123698000Y-113665000D01*
X124897250Y-113665000D01*
X125056000Y-113506250D01*
X125059072Y-112942000D01*
X125046812Y-112817518D01*
X125010502Y-112697820D01*
X124951537Y-112587506D01*
X124872185Y-112490815D01*
X124775494Y-112411463D01*
X124665180Y-112352498D01*
X124596313Y-112331607D01*
X124626134Y-112307134D01*
X124811706Y-112081014D01*
X124949599Y-111823034D01*
X125034513Y-111543111D01*
X125063185Y-111252000D01*
X125034513Y-110960889D01*
X124949599Y-110680966D01*
X124811706Y-110422986D01*
X124626134Y-110196866D01*
X124400014Y-110011294D01*
X124345209Y-109982000D01*
X124400014Y-109952706D01*
X124626134Y-109767134D01*
X124811706Y-109541014D01*
X124949599Y-109283034D01*
X125034513Y-109003111D01*
X125063185Y-108712000D01*
X125034513Y-108420889D01*
X124949599Y-108140966D01*
X124811706Y-107882986D01*
X124626134Y-107656866D01*
X124400014Y-107471294D01*
X124345209Y-107442000D01*
X124400014Y-107412706D01*
X124626134Y-107227134D01*
X124811706Y-107001014D01*
X124949599Y-106743034D01*
X125034513Y-106463111D01*
X125063185Y-106172000D01*
X125034513Y-105880889D01*
X124949599Y-105600966D01*
X124811706Y-105342986D01*
X124626134Y-105116866D01*
X124400014Y-104931294D01*
X124345209Y-104902000D01*
X124400014Y-104872706D01*
X124626134Y-104687134D01*
X124811706Y-104461014D01*
X124949599Y-104203034D01*
X125034513Y-103923111D01*
X125063185Y-103632000D01*
X126650815Y-103632000D01*
X126679487Y-103923111D01*
X126764401Y-104203034D01*
X126902294Y-104461014D01*
X127087866Y-104687134D01*
X127313986Y-104872706D01*
X127368791Y-104902000D01*
X127313986Y-104931294D01*
X127087866Y-105116866D01*
X126902294Y-105342986D01*
X126764401Y-105600966D01*
X126679487Y-105880889D01*
X126650815Y-106172000D01*
X126679487Y-106463111D01*
X126764401Y-106743034D01*
X126902294Y-107001014D01*
X127087866Y-107227134D01*
X127313986Y-107412706D01*
X127368791Y-107442000D01*
X127313986Y-107471294D01*
X127087866Y-107656866D01*
X126902294Y-107882986D01*
X126764401Y-108140966D01*
X126679487Y-108420889D01*
X126650815Y-108712000D01*
X126679487Y-109003111D01*
X126764401Y-109283034D01*
X126902294Y-109541014D01*
X127087866Y-109767134D01*
X127313986Y-109952706D01*
X127368791Y-109982000D01*
X127313986Y-110011294D01*
X127087866Y-110196866D01*
X126902294Y-110422986D01*
X126764401Y-110680966D01*
X126679487Y-110960889D01*
X126650815Y-111252000D01*
X126679487Y-111543111D01*
X126764401Y-111823034D01*
X126902294Y-112081014D01*
X127087866Y-112307134D01*
X127117687Y-112331607D01*
X127048820Y-112352498D01*
X126938506Y-112411463D01*
X126841815Y-112490815D01*
X126762463Y-112587506D01*
X126703498Y-112697820D01*
X126667188Y-112817518D01*
X126654928Y-112942000D01*
X126658000Y-113506250D01*
X126816750Y-113665000D01*
X128016000Y-113665000D01*
X128016000Y-113645000D01*
X128270000Y-113645000D01*
X128270000Y-113665000D01*
X129469250Y-113665000D01*
X129532750Y-113601500D01*
X161766315Y-113601500D01*
X161794987Y-113892611D01*
X161879901Y-114172534D01*
X162017794Y-114430514D01*
X162203366Y-114656634D01*
X162429486Y-114842206D01*
X162687466Y-114980099D01*
X162967389Y-115065013D01*
X163185550Y-115086500D01*
X163331450Y-115086500D01*
X163549611Y-115065013D01*
X163829534Y-114980099D01*
X164087514Y-114842206D01*
X164313634Y-114656634D01*
X164499206Y-114430514D01*
X164528500Y-114375709D01*
X164557794Y-114430514D01*
X164743366Y-114656634D01*
X164969486Y-114842206D01*
X165227466Y-114980099D01*
X165507389Y-115065013D01*
X165725550Y-115086500D01*
X165871450Y-115086500D01*
X166089611Y-115065013D01*
X166369534Y-114980099D01*
X166627514Y-114842206D01*
X166853634Y-114656634D01*
X167039206Y-114430514D01*
X167068500Y-114375709D01*
X167097794Y-114430514D01*
X167283366Y-114656634D01*
X167509486Y-114842206D01*
X167767466Y-114980099D01*
X168047389Y-115065013D01*
X168265550Y-115086500D01*
X168411450Y-115086500D01*
X168629611Y-115065013D01*
X168909534Y-114980099D01*
X169167514Y-114842206D01*
X169393634Y-114656634D01*
X169418107Y-114626813D01*
X169438998Y-114695680D01*
X169497963Y-114805994D01*
X169577315Y-114902685D01*
X169674006Y-114982037D01*
X169784320Y-115041002D01*
X169904018Y-115077312D01*
X170028500Y-115089572D01*
X171728500Y-115089572D01*
X171852982Y-115077312D01*
X171972680Y-115041002D01*
X172082994Y-114982037D01*
X172179685Y-114902685D01*
X172259037Y-114805994D01*
X172318002Y-114695680D01*
X172354312Y-114575982D01*
X172366572Y-114451500D01*
X172366572Y-112751500D01*
X172354312Y-112627018D01*
X172318002Y-112507320D01*
X172259037Y-112397006D01*
X172179685Y-112300315D01*
X172082994Y-112220963D01*
X171972680Y-112161998D01*
X171852982Y-112125688D01*
X171728500Y-112113428D01*
X170028500Y-112113428D01*
X169904018Y-112125688D01*
X169784320Y-112161998D01*
X169674006Y-112220963D01*
X169577315Y-112300315D01*
X169497963Y-112397006D01*
X169438998Y-112507320D01*
X169418107Y-112576187D01*
X169393634Y-112546366D01*
X169167514Y-112360794D01*
X168909534Y-112222901D01*
X168629611Y-112137987D01*
X168411450Y-112116500D01*
X168265550Y-112116500D01*
X168047389Y-112137987D01*
X167767466Y-112222901D01*
X167509486Y-112360794D01*
X167283366Y-112546366D01*
X167097794Y-112772486D01*
X167068500Y-112827291D01*
X167039206Y-112772486D01*
X166853634Y-112546366D01*
X166627514Y-112360794D01*
X166369534Y-112222901D01*
X166089611Y-112137987D01*
X165871450Y-112116500D01*
X165725550Y-112116500D01*
X165507389Y-112137987D01*
X165227466Y-112222901D01*
X164969486Y-112360794D01*
X164743366Y-112546366D01*
X164557794Y-112772486D01*
X164528500Y-112827291D01*
X164499206Y-112772486D01*
X164313634Y-112546366D01*
X164087514Y-112360794D01*
X163829534Y-112222901D01*
X163549611Y-112137987D01*
X163331450Y-112116500D01*
X163185550Y-112116500D01*
X162967389Y-112137987D01*
X162687466Y-112222901D01*
X162429486Y-112360794D01*
X162203366Y-112546366D01*
X162017794Y-112772486D01*
X161879901Y-113030466D01*
X161794987Y-113310389D01*
X161766315Y-113601500D01*
X129532750Y-113601500D01*
X129628000Y-113506250D01*
X129631072Y-112942000D01*
X129618812Y-112817518D01*
X129582502Y-112697820D01*
X129523537Y-112587506D01*
X129444185Y-112490815D01*
X129347494Y-112411463D01*
X129237180Y-112352498D01*
X129168313Y-112331607D01*
X129198134Y-112307134D01*
X129383706Y-112081014D01*
X129521599Y-111823034D01*
X129606513Y-111543111D01*
X129610168Y-111506000D01*
X150145815Y-111506000D01*
X150174487Y-111797111D01*
X150259401Y-112077034D01*
X150397294Y-112335014D01*
X150582866Y-112561134D01*
X150808986Y-112746706D01*
X151066966Y-112884599D01*
X151346889Y-112969513D01*
X151565050Y-112991000D01*
X151710950Y-112991000D01*
X151929111Y-112969513D01*
X152209034Y-112884599D01*
X152467014Y-112746706D01*
X152693134Y-112561134D01*
X152878706Y-112335014D01*
X152908000Y-112280209D01*
X152937294Y-112335014D01*
X153122866Y-112561134D01*
X153348986Y-112746706D01*
X153606966Y-112884599D01*
X153886889Y-112969513D01*
X154105050Y-112991000D01*
X154250950Y-112991000D01*
X154469111Y-112969513D01*
X154749034Y-112884599D01*
X155007014Y-112746706D01*
X155233134Y-112561134D01*
X155418706Y-112335014D01*
X155448000Y-112280209D01*
X155477294Y-112335014D01*
X155662866Y-112561134D01*
X155888986Y-112746706D01*
X156146966Y-112884599D01*
X156426889Y-112969513D01*
X156645050Y-112991000D01*
X156790950Y-112991000D01*
X157009111Y-112969513D01*
X157289034Y-112884599D01*
X157547014Y-112746706D01*
X157773134Y-112561134D01*
X157797607Y-112531313D01*
X157818498Y-112600180D01*
X157877463Y-112710494D01*
X157956815Y-112807185D01*
X158053506Y-112886537D01*
X158163820Y-112945502D01*
X158283518Y-112981812D01*
X158408000Y-112994072D01*
X160108000Y-112994072D01*
X160232482Y-112981812D01*
X160352180Y-112945502D01*
X160462494Y-112886537D01*
X160559185Y-112807185D01*
X160638537Y-112710494D01*
X160697502Y-112600180D01*
X160733812Y-112480482D01*
X160746072Y-112356000D01*
X160746072Y-110656000D01*
X160733812Y-110531518D01*
X160697502Y-110411820D01*
X160638537Y-110301506D01*
X160559185Y-110204815D01*
X160462494Y-110125463D01*
X160352180Y-110066498D01*
X160232482Y-110030188D01*
X160108000Y-110017928D01*
X158408000Y-110017928D01*
X158283518Y-110030188D01*
X158163820Y-110066498D01*
X158053506Y-110125463D01*
X157956815Y-110204815D01*
X157877463Y-110301506D01*
X157818498Y-110411820D01*
X157797607Y-110480687D01*
X157773134Y-110450866D01*
X157547014Y-110265294D01*
X157289034Y-110127401D01*
X157009111Y-110042487D01*
X156790950Y-110021000D01*
X156645050Y-110021000D01*
X156426889Y-110042487D01*
X156146966Y-110127401D01*
X155888986Y-110265294D01*
X155662866Y-110450866D01*
X155477294Y-110676986D01*
X155448000Y-110731791D01*
X155418706Y-110676986D01*
X155233134Y-110450866D01*
X155007014Y-110265294D01*
X154749034Y-110127401D01*
X154469111Y-110042487D01*
X154250950Y-110021000D01*
X154105050Y-110021000D01*
X153886889Y-110042487D01*
X153606966Y-110127401D01*
X153348986Y-110265294D01*
X153122866Y-110450866D01*
X152937294Y-110676986D01*
X152908000Y-110731791D01*
X152878706Y-110676986D01*
X152693134Y-110450866D01*
X152467014Y-110265294D01*
X152209034Y-110127401D01*
X151929111Y-110042487D01*
X151710950Y-110021000D01*
X151565050Y-110021000D01*
X151346889Y-110042487D01*
X151066966Y-110127401D01*
X150808986Y-110265294D01*
X150582866Y-110450866D01*
X150397294Y-110676986D01*
X150259401Y-110934966D01*
X150174487Y-111214889D01*
X150145815Y-111506000D01*
X129610168Y-111506000D01*
X129635185Y-111252000D01*
X129606513Y-110960889D01*
X129521599Y-110680966D01*
X129383706Y-110422986D01*
X129198134Y-110196866D01*
X128972014Y-110011294D01*
X128917209Y-109982000D01*
X128972014Y-109952706D01*
X129198134Y-109767134D01*
X129383706Y-109541014D01*
X129521599Y-109283034D01*
X129606513Y-109003111D01*
X129635185Y-108712000D01*
X129606513Y-108420889D01*
X129521599Y-108140966D01*
X129383706Y-107882986D01*
X129198134Y-107656866D01*
X128972014Y-107471294D01*
X128917209Y-107442000D01*
X128972014Y-107412706D01*
X129198134Y-107227134D01*
X129383706Y-107001014D01*
X129521599Y-106743034D01*
X129606513Y-106463111D01*
X129635185Y-106172000D01*
X129606513Y-105880889D01*
X129521599Y-105600966D01*
X129383706Y-105342986D01*
X129198134Y-105116866D01*
X128972014Y-104931294D01*
X128917209Y-104902000D01*
X128972014Y-104872706D01*
X129198134Y-104687134D01*
X129297743Y-104565760D01*
X140389000Y-104565760D01*
X140389000Y-104730240D01*
X140421089Y-104891560D01*
X140484033Y-105043521D01*
X140575413Y-105180281D01*
X140691719Y-105296587D01*
X140828479Y-105387967D01*
X140980440Y-105450911D01*
X141141760Y-105483000D01*
X141306240Y-105483000D01*
X141467560Y-105450911D01*
X141571157Y-105408000D01*
X155664678Y-105408000D01*
X155702000Y-105411676D01*
X155739322Y-105408000D01*
X155739333Y-105408000D01*
X155850986Y-105397003D01*
X155994247Y-105353546D01*
X156126276Y-105282974D01*
X156242001Y-105188001D01*
X156265804Y-105158997D01*
X157263924Y-104160878D01*
X157367521Y-104117967D01*
X157504281Y-104026587D01*
X157620587Y-103910281D01*
X157711967Y-103773521D01*
X157774911Y-103621560D01*
X157807000Y-103460240D01*
X157807000Y-103295760D01*
X160455000Y-103295760D01*
X160455000Y-103460240D01*
X160487089Y-103621560D01*
X160550033Y-103773521D01*
X160641413Y-103910281D01*
X160757719Y-104026587D01*
X160894479Y-104117967D01*
X161046440Y-104180911D01*
X161207760Y-104213000D01*
X161372240Y-104213000D01*
X161533560Y-104180911D01*
X161637157Y-104138000D01*
X167800843Y-104138000D01*
X167904440Y-104180911D01*
X168065760Y-104213000D01*
X168230240Y-104213000D01*
X168391560Y-104180911D01*
X168543521Y-104117967D01*
X168680281Y-104026587D01*
X168796587Y-103910281D01*
X168887967Y-103773521D01*
X168950911Y-103621560D01*
X168983000Y-103460240D01*
X168983000Y-103295760D01*
X168950911Y-103134440D01*
X168887967Y-102982479D01*
X168796587Y-102845719D01*
X168680281Y-102729413D01*
X168543521Y-102638033D01*
X168391560Y-102575089D01*
X168230240Y-102543000D01*
X168065760Y-102543000D01*
X167904440Y-102575089D01*
X167800843Y-102618000D01*
X161637157Y-102618000D01*
X161533560Y-102575089D01*
X161372240Y-102543000D01*
X161207760Y-102543000D01*
X161046440Y-102575089D01*
X160894479Y-102638033D01*
X160757719Y-102729413D01*
X160641413Y-102845719D01*
X160550033Y-102982479D01*
X160487089Y-103134440D01*
X160455000Y-103295760D01*
X157807000Y-103295760D01*
X157774911Y-103134440D01*
X157711967Y-102982479D01*
X157620587Y-102845719D01*
X157504281Y-102729413D01*
X157367521Y-102638033D01*
X157215560Y-102575089D01*
X157054240Y-102543000D01*
X156889760Y-102543000D01*
X156728440Y-102575089D01*
X156576479Y-102638033D01*
X156439719Y-102729413D01*
X156323413Y-102845719D01*
X156232033Y-102982479D01*
X156189122Y-103086076D01*
X155387199Y-103888000D01*
X155222475Y-103888000D01*
X155298967Y-103773521D01*
X155361911Y-103621560D01*
X155394000Y-103460240D01*
X155394000Y-103295760D01*
X155361911Y-103134440D01*
X155298967Y-102982479D01*
X155207587Y-102845719D01*
X155091281Y-102729413D01*
X154954521Y-102638033D01*
X154802560Y-102575089D01*
X154641240Y-102543000D01*
X154476760Y-102543000D01*
X154315440Y-102575089D01*
X154211843Y-102618000D01*
X142968157Y-102618000D01*
X142864560Y-102575089D01*
X142703240Y-102543000D01*
X142538760Y-102543000D01*
X142377440Y-102575089D01*
X142225479Y-102638033D01*
X142088719Y-102729413D01*
X141972413Y-102845719D01*
X141881033Y-102982479D01*
X141818089Y-103134440D01*
X141807137Y-103189500D01*
X141698157Y-103189500D01*
X141594560Y-103146589D01*
X141433240Y-103114500D01*
X141268760Y-103114500D01*
X141107440Y-103146589D01*
X140955479Y-103209533D01*
X140818719Y-103300913D01*
X140702413Y-103417219D01*
X140611033Y-103553979D01*
X140548089Y-103705940D01*
X140516000Y-103867260D01*
X140516000Y-104031740D01*
X140542502Y-104164974D01*
X140484033Y-104252479D01*
X140421089Y-104404440D01*
X140389000Y-104565760D01*
X129297743Y-104565760D01*
X129383706Y-104461014D01*
X129521599Y-104203034D01*
X129606513Y-103923111D01*
X129635185Y-103632000D01*
X129606513Y-103340889D01*
X129521599Y-103060966D01*
X129383706Y-102802986D01*
X129198134Y-102576866D01*
X128972014Y-102391294D01*
X128714034Y-102253401D01*
X128434111Y-102168487D01*
X128215950Y-102147000D01*
X128070050Y-102147000D01*
X127851889Y-102168487D01*
X127571966Y-102253401D01*
X127313986Y-102391294D01*
X127087866Y-102576866D01*
X126902294Y-102802986D01*
X126764401Y-103060966D01*
X126679487Y-103340889D01*
X126650815Y-103632000D01*
X125063185Y-103632000D01*
X125034513Y-103340889D01*
X124949599Y-103060966D01*
X124811706Y-102802986D01*
X124626134Y-102576866D01*
X124400014Y-102391294D01*
X124142034Y-102253401D01*
X123862111Y-102168487D01*
X123643950Y-102147000D01*
X123498050Y-102147000D01*
X123279889Y-102168487D01*
X122999966Y-102253401D01*
X122741986Y-102391294D01*
X122515866Y-102576866D01*
X122330294Y-102802986D01*
X122192401Y-103060966D01*
X122107487Y-103340889D01*
X122078815Y-103632000D01*
X120380000Y-103632000D01*
X120380000Y-103343967D01*
X120317168Y-103028088D01*
X120193918Y-102730537D01*
X120014987Y-102462748D01*
X119787252Y-102235013D01*
X119519463Y-102056082D01*
X119221912Y-101932832D01*
X118906033Y-101870000D01*
X118583967Y-101870000D01*
X118268088Y-101932832D01*
X117970537Y-102056082D01*
X117702748Y-102235013D01*
X117475013Y-102462748D01*
X117296082Y-102730537D01*
X117172832Y-103028088D01*
X117110000Y-103343967D01*
X101801668Y-103343967D01*
X101424410Y-102056357D01*
X100799458Y-99377162D01*
X100325039Y-96667272D01*
X100002631Y-93935128D01*
X99833238Y-91189260D01*
X99823678Y-89530000D01*
X111565001Y-89530000D01*
X111652956Y-90675633D01*
X111914761Y-91794413D01*
X112344278Y-92860117D01*
X112931441Y-93847767D01*
X113662486Y-94734211D01*
X114520279Y-95498673D01*
X115484714Y-96123234D01*
X116533184Y-96593256D01*
X117641116Y-96897721D01*
X117994896Y-96938563D01*
X117959862Y-96953075D01*
X117576005Y-97209560D01*
X117249561Y-97536004D01*
X116993076Y-97919861D01*
X116816407Y-98346380D01*
X116726341Y-98799170D01*
X116726341Y-99260830D01*
X116816407Y-99713620D01*
X116993076Y-100140139D01*
X117249561Y-100523996D01*
X117576005Y-100850440D01*
X117959862Y-101106925D01*
X118386381Y-101283594D01*
X118839171Y-101373660D01*
X119300831Y-101373660D01*
X119753621Y-101283594D01*
X120180140Y-101106925D01*
X120563997Y-100850440D01*
X120890441Y-100523996D01*
X121146926Y-100140139D01*
X121323595Y-99713620D01*
X121413661Y-99260830D01*
X121413661Y-98799170D01*
X121323595Y-98346380D01*
X121146926Y-97919861D01*
X120890441Y-97536004D01*
X120563997Y-97209560D01*
X120180140Y-96953075D01*
X120153883Y-96942199D01*
X121058687Y-96766722D01*
X122140061Y-96378340D01*
X123149475Y-95829438D01*
X124063270Y-95132882D01*
X124860027Y-94305000D01*
X125521071Y-93365195D01*
X126030907Y-92335497D01*
X126233011Y-91696875D01*
X126267294Y-91761014D01*
X126452866Y-91987134D01*
X126678986Y-92172706D01*
X126733791Y-92202000D01*
X126678986Y-92231294D01*
X126452866Y-92416866D01*
X126267294Y-92642986D01*
X126129401Y-92900966D01*
X126044487Y-93180889D01*
X126015815Y-93472000D01*
X126044487Y-93763111D01*
X126129401Y-94043034D01*
X126267294Y-94301014D01*
X126452866Y-94527134D01*
X126678986Y-94712706D01*
X126936966Y-94850599D01*
X127216889Y-94935513D01*
X127435050Y-94957000D01*
X127580950Y-94957000D01*
X127799111Y-94935513D01*
X128079034Y-94850599D01*
X128337014Y-94712706D01*
X128563134Y-94527134D01*
X128748706Y-94301014D01*
X128886599Y-94043034D01*
X128971513Y-93763111D01*
X129000185Y-93472000D01*
X128971513Y-93180889D01*
X128886599Y-92900966D01*
X128748706Y-92642986D01*
X128563134Y-92416866D01*
X128337014Y-92231294D01*
X128282209Y-92202000D01*
X128337014Y-92172706D01*
X128563134Y-91987134D01*
X128748706Y-91761014D01*
X128886599Y-91503034D01*
X128971513Y-91223111D01*
X129000185Y-90932000D01*
X128971513Y-90640889D01*
X128886599Y-90360966D01*
X128748706Y-90102986D01*
X128563134Y-89876866D01*
X128337014Y-89691294D01*
X128282209Y-89662000D01*
X128337014Y-89632706D01*
X128563134Y-89447134D01*
X128748706Y-89221014D01*
X128886599Y-88963034D01*
X128971513Y-88683111D01*
X129000185Y-88392000D01*
X128971513Y-88100889D01*
X128886599Y-87820966D01*
X128748706Y-87562986D01*
X128563134Y-87336866D01*
X128533313Y-87312393D01*
X128602180Y-87291502D01*
X128712494Y-87232537D01*
X128809185Y-87153185D01*
X128888537Y-87056494D01*
X128947502Y-86946180D01*
X128983812Y-86826482D01*
X128996072Y-86702000D01*
X128993000Y-86137750D01*
X128834250Y-85979000D01*
X127635000Y-85979000D01*
X127635000Y-85999000D01*
X127381000Y-85999000D01*
X127381000Y-85979000D01*
X126181750Y-85979000D01*
X126023000Y-86137750D01*
X126019928Y-86702000D01*
X126019968Y-86702411D01*
X125521071Y-85694805D01*
X125033763Y-85002000D01*
X126019928Y-85002000D01*
X126023000Y-85566250D01*
X126181750Y-85725000D01*
X127381000Y-85725000D01*
X127381000Y-84525750D01*
X127635000Y-84525750D01*
X127635000Y-85725000D01*
X128834250Y-85725000D01*
X128993000Y-85566250D01*
X128996072Y-85002000D01*
X128983812Y-84877518D01*
X128947502Y-84757820D01*
X128888537Y-84647506D01*
X128809185Y-84550815D01*
X128712494Y-84471463D01*
X128602180Y-84412498D01*
X128482482Y-84376188D01*
X128358000Y-84363928D01*
X127793750Y-84367000D01*
X127635000Y-84525750D01*
X127381000Y-84525750D01*
X127222250Y-84367000D01*
X126658000Y-84363928D01*
X126533518Y-84376188D01*
X126413820Y-84412498D01*
X126303506Y-84471463D01*
X126206815Y-84550815D01*
X126127463Y-84647506D01*
X126068498Y-84757820D01*
X126032188Y-84877518D01*
X126019928Y-85002000D01*
X125033763Y-85002000D01*
X124860027Y-84755000D01*
X124063270Y-83927118D01*
X123149475Y-83230562D01*
X122140061Y-82681660D01*
X121058687Y-82293278D01*
X120153883Y-82117801D01*
X120180140Y-82106925D01*
X120563997Y-81850440D01*
X120890441Y-81523996D01*
X121146926Y-81140139D01*
X121323595Y-80713620D01*
X121413661Y-80260830D01*
X121413661Y-79799170D01*
X121323595Y-79346380D01*
X121146926Y-78919861D01*
X120890441Y-78536004D01*
X120563997Y-78209560D01*
X120180140Y-77953075D01*
X119753621Y-77776406D01*
X119300831Y-77686340D01*
X118839171Y-77686340D01*
X118386381Y-77776406D01*
X117959862Y-77953075D01*
X117576005Y-78209560D01*
X117249561Y-78536004D01*
X116993076Y-78919861D01*
X116816407Y-79346380D01*
X116726341Y-79799170D01*
X116726341Y-80260830D01*
X116816407Y-80713620D01*
X116993076Y-81140139D01*
X117249561Y-81523996D01*
X117576005Y-81850440D01*
X117959862Y-82106925D01*
X117994896Y-82121437D01*
X117641116Y-82162279D01*
X116533184Y-82466744D01*
X115484714Y-82936766D01*
X114520279Y-83561327D01*
X113662486Y-84325789D01*
X112931441Y-85212233D01*
X112344278Y-86199883D01*
X111914761Y-87265587D01*
X111652956Y-88384367D01*
X111565001Y-89530000D01*
X99823678Y-89530000D01*
X99817387Y-88438185D01*
X99955130Y-85690536D01*
X100246036Y-82954862D01*
X100689198Y-80239686D01*
X101283234Y-77553487D01*
X102026294Y-74904626D01*
X102916054Y-72301385D01*
X103717790Y-70323967D01*
X117110000Y-70323967D01*
X117110000Y-70646033D01*
X117172832Y-70961912D01*
X117296082Y-71259463D01*
X117475013Y-71527252D01*
X117702748Y-71754987D01*
X117970537Y-71933918D01*
X118268088Y-72057168D01*
X118583967Y-72120000D01*
X118906033Y-72120000D01*
X119150504Y-72071372D01*
X120069000Y-72989868D01*
X120069000Y-74603585D01*
X120014987Y-74522748D01*
X119787252Y-74295013D01*
X119519463Y-74116082D01*
X119221912Y-73992832D01*
X118906033Y-73930000D01*
X118583967Y-73930000D01*
X118268088Y-73992832D01*
X117970537Y-74116082D01*
X117702748Y-74295013D01*
X117475013Y-74522748D01*
X117296082Y-74790537D01*
X117172832Y-75088088D01*
X117110000Y-75403967D01*
X117110000Y-75726033D01*
X117172832Y-76041912D01*
X117296082Y-76339463D01*
X117475013Y-76607252D01*
X117702748Y-76834987D01*
X117970537Y-77013918D01*
X118268088Y-77137168D01*
X118583967Y-77200000D01*
X118906033Y-77200000D01*
X119221912Y-77137168D01*
X119519463Y-77013918D01*
X119787252Y-76834987D01*
X120014987Y-76607252D01*
X120069001Y-76526415D01*
X120069001Y-77047972D01*
X120064960Y-77089000D01*
X120081082Y-77252688D01*
X120128828Y-77410086D01*
X120206364Y-77555145D01*
X120206365Y-77555146D01*
X120310710Y-77682291D01*
X120342574Y-77708441D01*
X125237563Y-82603432D01*
X125263709Y-82635291D01*
X125295568Y-82661437D01*
X125295570Y-82661439D01*
X125360574Y-82714786D01*
X125390854Y-82739636D01*
X125535913Y-82817172D01*
X125693311Y-82864918D01*
X125815981Y-82877000D01*
X125815982Y-82877000D01*
X125857000Y-82881040D01*
X125898018Y-82877000D01*
X135099888Y-82877000D01*
X135251392Y-83061608D01*
X135469899Y-83240932D01*
X135719192Y-83374182D01*
X135989691Y-83456236D01*
X136200508Y-83477000D01*
X136341492Y-83477000D01*
X136552309Y-83456236D01*
X136822808Y-83374182D01*
X137072101Y-83240932D01*
X137290608Y-83061608D01*
X137469932Y-82843101D01*
X137541000Y-82710142D01*
X137612068Y-82843101D01*
X137791392Y-83061608D01*
X138009899Y-83240932D01*
X138259192Y-83374182D01*
X138529691Y-83456236D01*
X138740508Y-83477000D01*
X138881492Y-83477000D01*
X139092309Y-83456236D01*
X139136906Y-83442708D01*
X139194001Y-83499803D01*
X139194000Y-95898611D01*
X139092309Y-95867764D01*
X138881492Y-95847000D01*
X138740508Y-95847000D01*
X138529691Y-95867764D01*
X138259192Y-95949818D01*
X138009899Y-96083068D01*
X137791392Y-96262392D01*
X137612068Y-96480899D01*
X137541000Y-96613858D01*
X137469932Y-96480899D01*
X137290608Y-96262392D01*
X137072101Y-96083068D01*
X136822808Y-95949818D01*
X136552309Y-95867764D01*
X136341492Y-95847000D01*
X136200508Y-95847000D01*
X135989691Y-95867764D01*
X135719192Y-95949818D01*
X135469899Y-96083068D01*
X135251392Y-96262392D01*
X135072068Y-96480899D01*
X134938818Y-96730192D01*
X134856764Y-97000691D01*
X134829057Y-97282000D01*
X134856764Y-97563309D01*
X134938818Y-97833808D01*
X135072068Y-98083101D01*
X135251392Y-98301608D01*
X135469899Y-98480932D01*
X135719192Y-98614182D01*
X135989691Y-98696236D01*
X136200508Y-98717000D01*
X136341492Y-98717000D01*
X136552309Y-98696236D01*
X136822808Y-98614182D01*
X137072101Y-98480932D01*
X137290608Y-98301608D01*
X137469932Y-98083101D01*
X137541000Y-97950142D01*
X137612068Y-98083101D01*
X137791392Y-98301608D01*
X138009899Y-98480932D01*
X138259192Y-98614182D01*
X138529691Y-98696236D01*
X138740508Y-98717000D01*
X138881492Y-98717000D01*
X139092309Y-98696236D01*
X139191593Y-98666119D01*
X139190324Y-98679000D01*
X139194000Y-98716322D01*
X139194000Y-98716332D01*
X139204997Y-98827985D01*
X139243448Y-98954742D01*
X139248454Y-98971246D01*
X139319026Y-99103276D01*
X139338501Y-99127006D01*
X139413999Y-99219001D01*
X139443003Y-99242804D01*
X140568122Y-100367924D01*
X140611033Y-100471521D01*
X140702413Y-100608281D01*
X140818719Y-100724587D01*
X140955479Y-100815967D01*
X141107440Y-100878911D01*
X141268760Y-100911000D01*
X141433240Y-100911000D01*
X141594560Y-100878911D01*
X141746521Y-100815967D01*
X141883281Y-100724587D01*
X141922500Y-100685368D01*
X141961719Y-100724587D01*
X142098479Y-100815967D01*
X142250440Y-100878911D01*
X142411760Y-100911000D01*
X142576240Y-100911000D01*
X142737560Y-100878911D01*
X142889521Y-100815967D01*
X143026281Y-100724587D01*
X143142587Y-100608281D01*
X143233967Y-100471521D01*
X143296911Y-100319560D01*
X143329000Y-100158240D01*
X143329000Y-99993760D01*
X143296911Y-99832440D01*
X143254000Y-99728843D01*
X143254000Y-98568646D01*
X143339192Y-98614182D01*
X143609691Y-98696236D01*
X143820508Y-98717000D01*
X143961492Y-98717000D01*
X144172309Y-98696236D01*
X144256002Y-98670848D01*
X144256002Y-99710842D01*
X144213090Y-99814441D01*
X144181001Y-99975761D01*
X144181001Y-100140241D01*
X144213090Y-100301561D01*
X144276034Y-100453522D01*
X144367414Y-100590282D01*
X144483720Y-100706588D01*
X144620480Y-100797968D01*
X144772441Y-100860912D01*
X144933761Y-100893001D01*
X145098241Y-100893001D01*
X145259561Y-100860912D01*
X145411522Y-100797968D01*
X145548282Y-100706588D01*
X145664588Y-100590282D01*
X145755968Y-100453522D01*
X145818912Y-100301561D01*
X145851001Y-100140241D01*
X145851001Y-99975761D01*
X145818912Y-99814441D01*
X145776001Y-99710844D01*
X145776001Y-98559025D01*
X145879192Y-98614182D01*
X146149691Y-98696236D01*
X146360508Y-98717000D01*
X146501492Y-98717000D01*
X146712309Y-98696236D01*
X146982808Y-98614182D01*
X147232101Y-98480932D01*
X147450608Y-98301608D01*
X147629932Y-98083101D01*
X147701000Y-97950142D01*
X147772068Y-98083101D01*
X147951392Y-98301608D01*
X148169899Y-98480932D01*
X148419192Y-98614182D01*
X148689691Y-98696236D01*
X148900508Y-98717000D01*
X149041492Y-98717000D01*
X149252309Y-98696236D01*
X149522808Y-98614182D01*
X149772101Y-98480932D01*
X149990608Y-98301608D01*
X150169932Y-98083101D01*
X150241000Y-97950142D01*
X150312068Y-98083101D01*
X150491392Y-98301608D01*
X150709899Y-98480932D01*
X150959192Y-98614182D01*
X151229691Y-98696236D01*
X151440508Y-98717000D01*
X151581492Y-98717000D01*
X151792309Y-98696236D01*
X152062808Y-98614182D01*
X152312101Y-98480932D01*
X152530608Y-98301608D01*
X152709932Y-98083101D01*
X152781000Y-97950142D01*
X152852068Y-98083101D01*
X153031392Y-98301608D01*
X153249899Y-98480932D01*
X153499192Y-98614182D01*
X153769691Y-98696236D01*
X153980508Y-98717000D01*
X154121492Y-98717000D01*
X154332309Y-98696236D01*
X154602808Y-98614182D01*
X154852101Y-98480932D01*
X155070608Y-98301608D01*
X155249932Y-98083101D01*
X155321000Y-97950142D01*
X155392068Y-98083101D01*
X155571392Y-98301608D01*
X155789899Y-98480932D01*
X156039192Y-98614182D01*
X156309691Y-98696236D01*
X156520508Y-98717000D01*
X156661492Y-98717000D01*
X156872309Y-98696236D01*
X157142808Y-98614182D01*
X157392101Y-98480932D01*
X157500867Y-98391670D01*
X159442199Y-100333003D01*
X159465997Y-100362001D01*
X159581722Y-100456974D01*
X159713751Y-100527546D01*
X159857012Y-100571003D01*
X159968665Y-100582000D01*
X159968675Y-100582000D01*
X160005998Y-100585676D01*
X160043321Y-100582000D01*
X162466843Y-100582000D01*
X162570440Y-100624911D01*
X162731760Y-100657000D01*
X162896240Y-100657000D01*
X163057560Y-100624911D01*
X163209521Y-100561967D01*
X163346281Y-100470587D01*
X163462587Y-100354281D01*
X163553967Y-100217521D01*
X163616911Y-100065560D01*
X163649000Y-99904240D01*
X163649000Y-99739760D01*
X163616911Y-99578440D01*
X163553967Y-99426479D01*
X163462587Y-99289719D01*
X163346281Y-99173413D01*
X163336685Y-99167001D01*
X167793232Y-99167001D01*
X168394145Y-99767915D01*
X168437056Y-99871511D01*
X168528436Y-100008271D01*
X168644742Y-100124577D01*
X168781502Y-100215957D01*
X168933463Y-100278901D01*
X169094783Y-100310990D01*
X169259263Y-100310990D01*
X169420583Y-100278901D01*
X169572544Y-100215957D01*
X169709304Y-100124577D01*
X169825610Y-100008271D01*
X169916990Y-99871511D01*
X169979934Y-99719550D01*
X170012023Y-99558230D01*
X170012023Y-99393750D01*
X169979934Y-99232430D01*
X169916990Y-99080469D01*
X169825610Y-98943709D01*
X169709304Y-98827403D01*
X169572544Y-98736023D01*
X169494897Y-98703861D01*
X169572309Y-98696236D01*
X169842808Y-98614182D01*
X170092101Y-98480932D01*
X170310608Y-98301608D01*
X170489932Y-98083101D01*
X170561000Y-97950142D01*
X170632068Y-98083101D01*
X170811392Y-98301608D01*
X171029899Y-98480932D01*
X171279192Y-98614182D01*
X171549691Y-98696236D01*
X171760508Y-98717000D01*
X171901492Y-98717000D01*
X172112309Y-98696236D01*
X172382808Y-98614182D01*
X172632101Y-98480932D01*
X172850608Y-98301608D01*
X173029932Y-98083101D01*
X173163182Y-97833808D01*
X173245236Y-97563309D01*
X173272943Y-97282000D01*
X173245236Y-97000691D01*
X173163182Y-96730192D01*
X173029932Y-96480899D01*
X172850608Y-96262392D01*
X172632101Y-96083068D01*
X172382808Y-95949818D01*
X172112309Y-95867764D01*
X171901492Y-95847000D01*
X171760508Y-95847000D01*
X171549691Y-95867764D01*
X171279192Y-95949818D01*
X171029899Y-96083068D01*
X170811392Y-96262392D01*
X170632068Y-96480899D01*
X170561000Y-96613858D01*
X170489932Y-96480899D01*
X170310608Y-96262392D01*
X170092101Y-96083068D01*
X169842808Y-95949818D01*
X169572309Y-95867764D01*
X169361492Y-95847000D01*
X169220508Y-95847000D01*
X169009691Y-95867764D01*
X168739192Y-95949818D01*
X168489899Y-96083068D01*
X168271392Y-96262392D01*
X168092068Y-96480899D01*
X168021000Y-96613858D01*
X167949932Y-96480899D01*
X167770608Y-96262392D01*
X167552101Y-96083068D01*
X167302808Y-95949818D01*
X167032309Y-95867764D01*
X166821492Y-95847000D01*
X166680508Y-95847000D01*
X166469691Y-95867764D01*
X166199192Y-95949818D01*
X165949899Y-96083068D01*
X165731392Y-96262392D01*
X165552068Y-96480899D01*
X165478421Y-96618682D01*
X165363385Y-96426869D01*
X165174414Y-96218481D01*
X164948420Y-96050963D01*
X164694087Y-95930754D01*
X164560039Y-95890096D01*
X164338000Y-96012085D01*
X164338000Y-97155000D01*
X164358000Y-97155000D01*
X164358000Y-97409000D01*
X164338000Y-97409000D01*
X164338000Y-97429000D01*
X164084000Y-97429000D01*
X164084000Y-97409000D01*
X164064000Y-97409000D01*
X164064000Y-97155000D01*
X164084000Y-97155000D01*
X164084000Y-96012085D01*
X163861961Y-95890096D01*
X163727913Y-95930754D01*
X163473580Y-96050963D01*
X163247586Y-96218481D01*
X163058615Y-96426869D01*
X162943579Y-96618682D01*
X162869932Y-96480899D01*
X162690608Y-96262392D01*
X162472101Y-96083068D01*
X162222808Y-95949818D01*
X161952309Y-95867764D01*
X161741492Y-95847000D01*
X161600508Y-95847000D01*
X161389691Y-95867764D01*
X161119192Y-95949818D01*
X161016001Y-96004975D01*
X161016001Y-89530000D01*
X171565001Y-89530000D01*
X171652956Y-90675633D01*
X171914761Y-91794413D01*
X172344278Y-92860117D01*
X172931441Y-93847767D01*
X173662486Y-94734211D01*
X174520279Y-95498673D01*
X175484714Y-96123234D01*
X176533184Y-96593256D01*
X177641116Y-96897721D01*
X177994898Y-96938564D01*
X177959862Y-96953076D01*
X177576005Y-97209561D01*
X177249561Y-97536005D01*
X176993076Y-97919862D01*
X176816407Y-98346381D01*
X176726341Y-98799171D01*
X176726341Y-99260831D01*
X176816407Y-99713621D01*
X176993076Y-100140140D01*
X177249561Y-100523997D01*
X177576005Y-100850441D01*
X177959862Y-101106926D01*
X178386381Y-101283595D01*
X178839171Y-101373661D01*
X179300831Y-101373661D01*
X179753621Y-101283595D01*
X180180140Y-101106926D01*
X180563997Y-100850441D01*
X180890441Y-100523997D01*
X181146926Y-100140140D01*
X181323595Y-99713621D01*
X181413661Y-99260831D01*
X181413661Y-98799171D01*
X181323595Y-98346381D01*
X181146926Y-97919862D01*
X180890441Y-97536005D01*
X180563997Y-97209561D01*
X180180140Y-96953076D01*
X180153881Y-96942199D01*
X181058687Y-96766722D01*
X182140061Y-96378340D01*
X183149475Y-95829438D01*
X184063270Y-95132882D01*
X184860027Y-94305000D01*
X185521071Y-93365195D01*
X186030907Y-92335497D01*
X186377585Y-91240041D01*
X186552980Y-90104502D01*
X186552980Y-88955498D01*
X186377585Y-87819959D01*
X186030907Y-86724503D01*
X185521071Y-85694805D01*
X184860027Y-84755000D01*
X184063270Y-83927118D01*
X183149475Y-83230562D01*
X182140061Y-82681660D01*
X181058687Y-82293278D01*
X180153883Y-82117801D01*
X180180140Y-82106925D01*
X180563997Y-81850440D01*
X180890441Y-81523996D01*
X181146926Y-81140139D01*
X181323595Y-80713620D01*
X181413661Y-80260830D01*
X181413661Y-79799170D01*
X181323595Y-79346380D01*
X181146926Y-78919861D01*
X180890441Y-78536004D01*
X180563997Y-78209560D01*
X180180140Y-77953075D01*
X179753621Y-77776406D01*
X179300831Y-77686340D01*
X178839171Y-77686340D01*
X178386381Y-77776406D01*
X177959862Y-77953075D01*
X177576005Y-78209560D01*
X177249561Y-78536004D01*
X176993076Y-78919861D01*
X176816407Y-79346380D01*
X176726341Y-79799170D01*
X176726341Y-80260830D01*
X176816407Y-80713620D01*
X176993076Y-81140139D01*
X177249561Y-81523996D01*
X177576005Y-81850440D01*
X177959862Y-82106925D01*
X177994896Y-82121437D01*
X177641116Y-82162279D01*
X176533184Y-82466744D01*
X175484714Y-82936766D01*
X174520279Y-83561327D01*
X173662486Y-84325789D01*
X172931441Y-85212233D01*
X172344278Y-86199883D01*
X171914761Y-87265587D01*
X171652956Y-88384367D01*
X171565001Y-89530000D01*
X161016001Y-89530000D01*
X161016001Y-88284334D01*
X161019678Y-88247001D01*
X161005004Y-88098015D01*
X160961547Y-87954754D01*
X160890975Y-87822725D01*
X160819800Y-87735998D01*
X160796002Y-87707000D01*
X160767005Y-87683203D01*
X156560801Y-83477000D01*
X156661492Y-83477000D01*
X156872309Y-83456236D01*
X157142808Y-83374182D01*
X157392101Y-83240932D01*
X157610608Y-83061608D01*
X157789932Y-82843101D01*
X157861000Y-82710142D01*
X157932068Y-82843101D01*
X158111392Y-83061608D01*
X158329899Y-83240932D01*
X158579192Y-83374182D01*
X158849691Y-83456236D01*
X159060508Y-83477000D01*
X159201492Y-83477000D01*
X159412309Y-83456236D01*
X159682808Y-83374182D01*
X159932101Y-83240932D01*
X160150608Y-83061608D01*
X160329932Y-82843101D01*
X160401000Y-82710142D01*
X160472068Y-82843101D01*
X160651392Y-83061608D01*
X160869899Y-83240932D01*
X161119192Y-83374182D01*
X161389691Y-83456236D01*
X161600508Y-83477000D01*
X161741492Y-83477000D01*
X161952309Y-83456236D01*
X162222808Y-83374182D01*
X162472101Y-83240932D01*
X162690608Y-83061608D01*
X162869932Y-82843101D01*
X162941000Y-82710142D01*
X163012068Y-82843101D01*
X163191392Y-83061608D01*
X163409899Y-83240932D01*
X163659192Y-83374182D01*
X163929691Y-83456236D01*
X164140508Y-83477000D01*
X164281492Y-83477000D01*
X164492309Y-83456236D01*
X164762808Y-83374182D01*
X165012101Y-83240932D01*
X165230608Y-83061608D01*
X165409932Y-82843101D01*
X165481000Y-82710142D01*
X165552068Y-82843101D01*
X165731392Y-83061608D01*
X165949899Y-83240932D01*
X166199192Y-83374182D01*
X166469691Y-83456236D01*
X166680508Y-83477000D01*
X166821492Y-83477000D01*
X167032309Y-83456236D01*
X167302808Y-83374182D01*
X167552101Y-83240932D01*
X167770608Y-83061608D01*
X167949932Y-82843101D01*
X168021000Y-82710142D01*
X168092068Y-82843101D01*
X168271392Y-83061608D01*
X168489899Y-83240932D01*
X168739192Y-83374182D01*
X169009691Y-83456236D01*
X169220508Y-83477000D01*
X169361492Y-83477000D01*
X169572309Y-83456236D01*
X169842808Y-83374182D01*
X170092101Y-83240932D01*
X170310608Y-83061608D01*
X170403419Y-82948518D01*
X170405188Y-82966482D01*
X170441498Y-83086180D01*
X170500463Y-83196494D01*
X170579815Y-83293185D01*
X170676506Y-83372537D01*
X170786820Y-83431502D01*
X170906518Y-83467812D01*
X171031000Y-83480072D01*
X172631000Y-83480072D01*
X172755482Y-83467812D01*
X172875180Y-83431502D01*
X172985494Y-83372537D01*
X173082185Y-83293185D01*
X173161537Y-83196494D01*
X173220502Y-83086180D01*
X173256812Y-82966482D01*
X173269072Y-82842000D01*
X173269072Y-81242000D01*
X173256812Y-81117518D01*
X173220502Y-80997820D01*
X173161537Y-80887506D01*
X173082185Y-80790815D01*
X172985494Y-80711463D01*
X172875180Y-80652498D01*
X172755482Y-80616188D01*
X172631000Y-80603928D01*
X171031000Y-80603928D01*
X170906518Y-80616188D01*
X170786820Y-80652498D01*
X170676506Y-80711463D01*
X170579815Y-80790815D01*
X170500463Y-80887506D01*
X170441498Y-80997820D01*
X170405188Y-81117518D01*
X170403419Y-81135482D01*
X170310608Y-81022392D01*
X170092101Y-80843068D01*
X169842808Y-80709818D01*
X169572309Y-80627764D01*
X169361492Y-80607000D01*
X169220508Y-80607000D01*
X169009691Y-80627764D01*
X168739192Y-80709818D01*
X168489899Y-80843068D01*
X168271392Y-81022392D01*
X168092068Y-81240899D01*
X168021000Y-81373858D01*
X167949932Y-81240899D01*
X167770608Y-81022392D01*
X167552101Y-80843068D01*
X167302808Y-80709818D01*
X167032309Y-80627764D01*
X166821492Y-80607000D01*
X166680508Y-80607000D01*
X166469691Y-80627764D01*
X166199192Y-80709818D01*
X165949899Y-80843068D01*
X165731392Y-81022392D01*
X165552068Y-81240899D01*
X165481000Y-81373858D01*
X165409932Y-81240899D01*
X165230608Y-81022392D01*
X165012101Y-80843068D01*
X164762808Y-80709818D01*
X164492309Y-80627764D01*
X164281492Y-80607000D01*
X164140508Y-80607000D01*
X163929691Y-80627764D01*
X163659192Y-80709818D01*
X163409899Y-80843068D01*
X163191392Y-81022392D01*
X163012068Y-81240899D01*
X162941000Y-81373858D01*
X162869932Y-81240899D01*
X162690608Y-81022392D01*
X162472101Y-80843068D01*
X162222808Y-80709818D01*
X161952309Y-80627764D01*
X161741492Y-80607000D01*
X161600508Y-80607000D01*
X161389691Y-80627764D01*
X161119192Y-80709818D01*
X160869899Y-80843068D01*
X160651392Y-81022392D01*
X160472068Y-81240899D01*
X160401000Y-81373858D01*
X160329932Y-81240899D01*
X160150608Y-81022392D01*
X159932101Y-80843068D01*
X159682808Y-80709818D01*
X159412309Y-80627764D01*
X159201492Y-80607000D01*
X159060508Y-80607000D01*
X158849691Y-80627764D01*
X158579192Y-80709818D01*
X158329899Y-80843068D01*
X158111392Y-81022392D01*
X157932068Y-81240899D01*
X157861000Y-81373858D01*
X157789932Y-81240899D01*
X157610608Y-81022392D01*
X157392101Y-80843068D01*
X157142808Y-80709818D01*
X156872309Y-80627764D01*
X156661492Y-80607000D01*
X156520508Y-80607000D01*
X156309691Y-80627764D01*
X156039192Y-80709818D01*
X155789899Y-80843068D01*
X155571392Y-81022392D01*
X155392068Y-81240899D01*
X155321000Y-81373858D01*
X155249932Y-81240899D01*
X155070608Y-81022392D01*
X154852101Y-80843068D01*
X154602808Y-80709818D01*
X154332309Y-80627764D01*
X154121492Y-80607000D01*
X153980508Y-80607000D01*
X153769691Y-80627764D01*
X153499192Y-80709818D01*
X153249899Y-80843068D01*
X153031392Y-81022392D01*
X152852068Y-81240899D01*
X152781000Y-81373858D01*
X152709932Y-81240899D01*
X152530608Y-81022392D01*
X152312101Y-80843068D01*
X152062808Y-80709818D01*
X151792309Y-80627764D01*
X151581492Y-80607000D01*
X151440508Y-80607000D01*
X151229691Y-80627764D01*
X150959192Y-80709818D01*
X150709899Y-80843068D01*
X150491392Y-81022392D01*
X150312068Y-81240899D01*
X150241000Y-81373858D01*
X150169932Y-81240899D01*
X149990608Y-81022392D01*
X149772101Y-80843068D01*
X149522808Y-80709818D01*
X149252309Y-80627764D01*
X149041492Y-80607000D01*
X148900508Y-80607000D01*
X148689691Y-80627764D01*
X148645094Y-80641292D01*
X142528302Y-74524500D01*
X155102928Y-74524500D01*
X155102928Y-76224500D01*
X155115188Y-76348982D01*
X155151498Y-76468680D01*
X155210463Y-76578994D01*
X155289815Y-76675685D01*
X155386506Y-76755037D01*
X155496820Y-76814002D01*
X155616518Y-76850312D01*
X155741000Y-76862572D01*
X157441000Y-76862572D01*
X157565482Y-76850312D01*
X157685180Y-76814002D01*
X157795494Y-76755037D01*
X157892185Y-76675685D01*
X157971537Y-76578994D01*
X158030502Y-76468680D01*
X158051393Y-76399813D01*
X158075866Y-76429634D01*
X158301986Y-76615206D01*
X158559966Y-76753099D01*
X158839889Y-76838013D01*
X159058050Y-76859500D01*
X159203950Y-76859500D01*
X159422111Y-76838013D01*
X159702034Y-76753099D01*
X159960014Y-76615206D01*
X160186134Y-76429634D01*
X160371706Y-76203514D01*
X160406201Y-76138977D01*
X160475822Y-76255855D01*
X160670731Y-76472088D01*
X160904080Y-76646141D01*
X161166901Y-76771325D01*
X161314110Y-76815976D01*
X161544000Y-76694655D01*
X161544000Y-75501500D01*
X161798000Y-75501500D01*
X161798000Y-76694655D01*
X162027890Y-76815976D01*
X162175099Y-76771325D01*
X162437920Y-76646141D01*
X162671269Y-76472088D01*
X162866178Y-76255855D01*
X162941000Y-76130245D01*
X163015822Y-76255855D01*
X163210731Y-76472088D01*
X163444080Y-76646141D01*
X163706901Y-76771325D01*
X163854110Y-76815976D01*
X164084000Y-76694655D01*
X164084000Y-75501500D01*
X161798000Y-75501500D01*
X161544000Y-75501500D01*
X161524000Y-75501500D01*
X161524000Y-75247500D01*
X161544000Y-75247500D01*
X161544000Y-74054345D01*
X161798000Y-74054345D01*
X161798000Y-75247500D01*
X164084000Y-75247500D01*
X164084000Y-74054345D01*
X164338000Y-74054345D01*
X164338000Y-75247500D01*
X164358000Y-75247500D01*
X164358000Y-75501500D01*
X164338000Y-75501500D01*
X164338000Y-76694655D01*
X164567890Y-76815976D01*
X164715099Y-76771325D01*
X164977920Y-76646141D01*
X165211269Y-76472088D01*
X165406178Y-76255855D01*
X165475799Y-76138977D01*
X165510294Y-76203514D01*
X165695866Y-76429634D01*
X165921986Y-76615206D01*
X166179966Y-76753099D01*
X166459889Y-76838013D01*
X166678050Y-76859500D01*
X166823950Y-76859500D01*
X167042111Y-76838013D01*
X167322034Y-76753099D01*
X167580014Y-76615206D01*
X167806134Y-76429634D01*
X167991706Y-76203514D01*
X168021000Y-76148709D01*
X168050294Y-76203514D01*
X168235866Y-76429634D01*
X168461986Y-76615206D01*
X168719966Y-76753099D01*
X168999889Y-76838013D01*
X169218050Y-76859500D01*
X169363950Y-76859500D01*
X169582111Y-76838013D01*
X169862034Y-76753099D01*
X170120014Y-76615206D01*
X170346134Y-76429634D01*
X170531706Y-76203514D01*
X170561000Y-76148709D01*
X170590294Y-76203514D01*
X170775866Y-76429634D01*
X171001986Y-76615206D01*
X171259966Y-76753099D01*
X171539889Y-76838013D01*
X171758050Y-76859500D01*
X171903950Y-76859500D01*
X172122111Y-76838013D01*
X172402034Y-76753099D01*
X172660014Y-76615206D01*
X172886134Y-76429634D01*
X173071706Y-76203514D01*
X173101000Y-76148709D01*
X173130294Y-76203514D01*
X173315866Y-76429634D01*
X173541986Y-76615206D01*
X173799966Y-76753099D01*
X174079889Y-76838013D01*
X174298050Y-76859500D01*
X174443950Y-76859500D01*
X174662111Y-76838013D01*
X174942034Y-76753099D01*
X175200014Y-76615206D01*
X175426134Y-76429634D01*
X175611706Y-76203514D01*
X175749599Y-75945534D01*
X175834513Y-75665611D01*
X175863185Y-75374500D01*
X175834513Y-75083389D01*
X175749599Y-74803466D01*
X175611706Y-74545486D01*
X175426134Y-74319366D01*
X175200014Y-74133794D01*
X174942034Y-73995901D01*
X174662111Y-73910987D01*
X174443950Y-73889500D01*
X174298050Y-73889500D01*
X174079889Y-73910987D01*
X173799966Y-73995901D01*
X173541986Y-74133794D01*
X173315866Y-74319366D01*
X173130294Y-74545486D01*
X173101000Y-74600291D01*
X173071706Y-74545486D01*
X172886134Y-74319366D01*
X172660014Y-74133794D01*
X172402034Y-73995901D01*
X172122111Y-73910987D01*
X171903950Y-73889500D01*
X171758050Y-73889500D01*
X171539889Y-73910987D01*
X171259966Y-73995901D01*
X171001986Y-74133794D01*
X170775866Y-74319366D01*
X170590294Y-74545486D01*
X170561000Y-74600291D01*
X170531706Y-74545486D01*
X170346134Y-74319366D01*
X170120014Y-74133794D01*
X169862034Y-73995901D01*
X169582111Y-73910987D01*
X169363950Y-73889500D01*
X169218050Y-73889500D01*
X168999889Y-73910987D01*
X168719966Y-73995901D01*
X168461986Y-74133794D01*
X168235866Y-74319366D01*
X168050294Y-74545486D01*
X168021000Y-74600291D01*
X167991706Y-74545486D01*
X167806134Y-74319366D01*
X167580014Y-74133794D01*
X167322034Y-73995901D01*
X167042111Y-73910987D01*
X166823950Y-73889500D01*
X166678050Y-73889500D01*
X166459889Y-73910987D01*
X166179966Y-73995901D01*
X165921986Y-74133794D01*
X165695866Y-74319366D01*
X165510294Y-74545486D01*
X165475799Y-74610023D01*
X165406178Y-74493145D01*
X165211269Y-74276912D01*
X164977920Y-74102859D01*
X164715099Y-73977675D01*
X164567890Y-73933024D01*
X164338000Y-74054345D01*
X164084000Y-74054345D01*
X163854110Y-73933024D01*
X163706901Y-73977675D01*
X163444080Y-74102859D01*
X163210731Y-74276912D01*
X163015822Y-74493145D01*
X162941000Y-74618755D01*
X162866178Y-74493145D01*
X162671269Y-74276912D01*
X162437920Y-74102859D01*
X162175099Y-73977675D01*
X162027890Y-73933024D01*
X161798000Y-74054345D01*
X161544000Y-74054345D01*
X161314110Y-73933024D01*
X161166901Y-73977675D01*
X160904080Y-74102859D01*
X160670731Y-74276912D01*
X160475822Y-74493145D01*
X160406201Y-74610023D01*
X160371706Y-74545486D01*
X160186134Y-74319366D01*
X159960014Y-74133794D01*
X159702034Y-73995901D01*
X159422111Y-73910987D01*
X159203950Y-73889500D01*
X159058050Y-73889500D01*
X158839889Y-73910987D01*
X158559966Y-73995901D01*
X158301986Y-74133794D01*
X158075866Y-74319366D01*
X158051393Y-74349187D01*
X158030502Y-74280320D01*
X157971537Y-74170006D01*
X157892185Y-74073315D01*
X157795494Y-73993963D01*
X157685180Y-73934998D01*
X157565482Y-73898688D01*
X157441000Y-73886428D01*
X155741000Y-73886428D01*
X155616518Y-73898688D01*
X155496820Y-73934998D01*
X155386506Y-73993963D01*
X155289815Y-74073315D01*
X155210463Y-74170006D01*
X155151498Y-74280320D01*
X155115188Y-74400018D01*
X155102928Y-74524500D01*
X142528302Y-74524500D01*
X138771805Y-70768004D01*
X138748002Y-70739000D01*
X138632277Y-70644027D01*
X138500248Y-70573455D01*
X138356987Y-70529998D01*
X138245334Y-70519001D01*
X138245323Y-70519001D01*
X138208001Y-70515325D01*
X138170679Y-70519001D01*
X135156931Y-70519001D01*
X135194513Y-70395111D01*
X135223185Y-70104000D01*
X135194513Y-69812889D01*
X135109599Y-69532966D01*
X134971706Y-69274986D01*
X134786134Y-69048866D01*
X134560014Y-68863294D01*
X134302034Y-68725401D01*
X134022111Y-68640487D01*
X133803950Y-68619000D01*
X133658050Y-68619000D01*
X133439889Y-68640487D01*
X133159966Y-68725401D01*
X132901986Y-68863294D01*
X132675866Y-69048866D01*
X132490294Y-69274986D01*
X132352401Y-69532966D01*
X132267487Y-69812889D01*
X132238815Y-70104000D01*
X132267487Y-70395111D01*
X132305069Y-70519001D01*
X131346931Y-70519001D01*
X131384513Y-70395111D01*
X131413185Y-70104000D01*
X131384513Y-69812889D01*
X131299599Y-69532966D01*
X131161706Y-69274986D01*
X130976134Y-69048866D01*
X130750014Y-68863294D01*
X130492034Y-68725401D01*
X130212111Y-68640487D01*
X129993950Y-68619000D01*
X129848050Y-68619000D01*
X129629889Y-68640487D01*
X129349966Y-68725401D01*
X129091986Y-68863294D01*
X128865866Y-69048866D01*
X128680294Y-69274986D01*
X128542401Y-69532966D01*
X128457487Y-69812889D01*
X128428815Y-70104000D01*
X128457487Y-70395111D01*
X128495069Y-70519001D01*
X127536931Y-70519001D01*
X127574513Y-70395111D01*
X127603185Y-70104000D01*
X127574513Y-69812889D01*
X127489599Y-69532966D01*
X127351706Y-69274986D01*
X127166134Y-69048866D01*
X126940014Y-68863294D01*
X126682034Y-68725401D01*
X126402111Y-68640487D01*
X126183950Y-68619000D01*
X126038050Y-68619000D01*
X125819889Y-68640487D01*
X125539966Y-68725401D01*
X125281986Y-68863294D01*
X125055866Y-69048866D01*
X124870294Y-69274986D01*
X124732401Y-69532966D01*
X124647487Y-69812889D01*
X124618815Y-70104000D01*
X124647487Y-70395111D01*
X124732401Y-70675034D01*
X124870294Y-70933014D01*
X124932448Y-71008748D01*
X123721905Y-72219291D01*
X123697825Y-72139901D01*
X123572641Y-71877080D01*
X123398588Y-71643731D01*
X123182355Y-71448822D01*
X123065477Y-71379201D01*
X123130014Y-71344706D01*
X123356134Y-71159134D01*
X123541706Y-70933014D01*
X123679599Y-70675034D01*
X123764513Y-70395111D01*
X123793185Y-70104000D01*
X123764513Y-69812889D01*
X123679599Y-69532966D01*
X123541706Y-69274986D01*
X123356134Y-69048866D01*
X123130014Y-68863294D01*
X122872034Y-68725401D01*
X122592111Y-68640487D01*
X122373950Y-68619000D01*
X122228050Y-68619000D01*
X122009889Y-68640487D01*
X121729966Y-68725401D01*
X121471986Y-68863294D01*
X121245866Y-69048866D01*
X121060294Y-69274986D01*
X120922401Y-69532966D01*
X120837487Y-69812889D01*
X120808815Y-70104000D01*
X120837487Y-70395111D01*
X120922401Y-70675034D01*
X121060294Y-70933014D01*
X121245866Y-71159134D01*
X121471986Y-71344706D01*
X121536523Y-71379201D01*
X121419645Y-71448822D01*
X121203412Y-71643731D01*
X121152652Y-71711784D01*
X120331372Y-70890504D01*
X120380000Y-70646033D01*
X120380000Y-70323967D01*
X120317168Y-70008088D01*
X120193918Y-69710537D01*
X120014987Y-69442748D01*
X119787252Y-69215013D01*
X119519463Y-69036082D01*
X119221912Y-68912832D01*
X118906033Y-68850000D01*
X118583967Y-68850000D01*
X118268088Y-68912832D01*
X117970537Y-69036082D01*
X117702748Y-69215013D01*
X117475013Y-69442748D01*
X117296082Y-69710537D01*
X117172832Y-70008088D01*
X117110000Y-70323967D01*
X103717790Y-70323967D01*
X103949748Y-69751864D01*
X105124150Y-67264015D01*
X105516541Y-66540413D01*
X117789192Y-66540413D01*
X117884956Y-66804814D01*
X118174571Y-66945704D01*
X118486108Y-67027384D01*
X118807595Y-67046718D01*
X119126675Y-67002961D01*
X119431088Y-66897795D01*
X119605044Y-66804814D01*
X119700808Y-66540413D01*
X118745000Y-65584605D01*
X117789192Y-66540413D01*
X105516541Y-66540413D01*
X106098304Y-65467595D01*
X117103282Y-65467595D01*
X117147039Y-65786675D01*
X117252205Y-66091088D01*
X117345186Y-66265044D01*
X117609587Y-66360808D01*
X118565395Y-65405000D01*
X118924605Y-65405000D01*
X119880413Y-66360808D01*
X120144814Y-66265044D01*
X120285704Y-65975429D01*
X120367384Y-65663892D01*
X120386718Y-65342405D01*
X120342961Y-65023325D01*
X120237795Y-64718912D01*
X120144814Y-64544956D01*
X119880413Y-64449192D01*
X118924605Y-65405000D01*
X118565395Y-65405000D01*
X117609587Y-64449192D01*
X117345186Y-64544956D01*
X117204296Y-64834571D01*
X117122616Y-65146108D01*
X117103282Y-65467595D01*
X106098304Y-65467595D01*
X106435591Y-64845611D01*
X106790932Y-64269587D01*
X117789192Y-64269587D01*
X118745000Y-65225395D01*
X119700808Y-64269587D01*
X119605044Y-64005186D01*
X119315429Y-63864296D01*
X119003892Y-63782616D01*
X118682405Y-63763282D01*
X118363325Y-63807039D01*
X118058912Y-63912205D01*
X117884956Y-64005186D01*
X117789192Y-64269587D01*
X106790932Y-64269587D01*
X107879992Y-62504176D01*
X109452835Y-60247034D01*
X110195251Y-59299170D01*
X116726341Y-59299170D01*
X116726341Y-59760830D01*
X116816407Y-60213620D01*
X116993076Y-60640139D01*
X117249561Y-61023996D01*
X117576005Y-61350440D01*
X117959862Y-61606925D01*
X118386381Y-61783594D01*
X118839171Y-61873660D01*
X119300831Y-61873660D01*
X119753621Y-61783594D01*
X120180140Y-61606925D01*
X120563997Y-61350440D01*
X120890441Y-61023996D01*
X121146926Y-60640139D01*
X121323595Y-60213620D01*
X121413661Y-59760830D01*
X121413661Y-59299170D01*
X131726341Y-59299170D01*
X131726341Y-59760830D01*
X131816407Y-60213620D01*
X131993076Y-60640139D01*
X132249561Y-61023996D01*
X132576005Y-61350440D01*
X132959862Y-61606925D01*
X133386381Y-61783594D01*
X133839171Y-61873660D01*
X134300831Y-61873660D01*
X134753621Y-61783594D01*
X135180140Y-61606925D01*
X135563997Y-61350440D01*
X135890441Y-61023996D01*
X136146926Y-60640139D01*
X136323595Y-60213620D01*
X136413661Y-59760830D01*
X136413661Y-59299170D01*
X161726342Y-59299170D01*
X161726342Y-59760830D01*
X161816407Y-60213620D01*
X161993077Y-60640139D01*
X162249562Y-61023996D01*
X162576005Y-61350439D01*
X162959862Y-61606924D01*
X163386381Y-61783594D01*
X163839171Y-61873659D01*
X164300831Y-61873659D01*
X164753621Y-61783594D01*
X165180140Y-61606924D01*
X165563997Y-61350439D01*
X165890440Y-61023996D01*
X166146925Y-60640139D01*
X166323595Y-60213620D01*
X166413660Y-59760830D01*
X166413660Y-59299170D01*
X176726341Y-59299170D01*
X176726341Y-59760830D01*
X176816407Y-60213620D01*
X176993076Y-60640139D01*
X177249561Y-61023996D01*
X177576005Y-61350440D01*
X177959862Y-61606925D01*
X178386381Y-61783594D01*
X178839171Y-61873660D01*
X179300831Y-61873660D01*
X179753621Y-61783594D01*
X180180140Y-61606925D01*
X180563997Y-61350440D01*
X180890441Y-61023996D01*
X181146926Y-60640139D01*
X181323595Y-60213620D01*
X181413661Y-59760830D01*
X181413661Y-59299170D01*
X181323595Y-58846380D01*
X181146926Y-58419861D01*
X180890441Y-58036004D01*
X180563997Y-57709560D01*
X180180140Y-57453075D01*
X179753621Y-57276406D01*
X179300831Y-57186340D01*
X178839171Y-57186340D01*
X178386381Y-57276406D01*
X177959862Y-57453075D01*
X177576005Y-57709560D01*
X177249561Y-58036004D01*
X176993076Y-58419861D01*
X176816407Y-58846380D01*
X176726341Y-59299170D01*
X166413660Y-59299170D01*
X166323595Y-58846380D01*
X166146925Y-58419861D01*
X165890440Y-58036004D01*
X165563997Y-57709561D01*
X165180140Y-57453076D01*
X164753621Y-57276406D01*
X164300831Y-57186341D01*
X163839171Y-57186341D01*
X163386381Y-57276406D01*
X162959862Y-57453076D01*
X162576005Y-57709561D01*
X162249562Y-58036004D01*
X161993077Y-58419861D01*
X161816407Y-58846380D01*
X161726342Y-59299170D01*
X136413661Y-59299170D01*
X136323595Y-58846380D01*
X136146926Y-58419861D01*
X135890441Y-58036004D01*
X135563997Y-57709560D01*
X135180140Y-57453075D01*
X134753621Y-57276406D01*
X134300831Y-57186340D01*
X133839171Y-57186340D01*
X133386381Y-57276406D01*
X132959862Y-57453075D01*
X132576005Y-57709560D01*
X132249561Y-58036004D01*
X131993076Y-58419861D01*
X131816407Y-58846380D01*
X131726341Y-59299170D01*
X121413661Y-59299170D01*
X121323595Y-58846380D01*
X121146926Y-58419861D01*
X120890441Y-58036004D01*
X120563997Y-57709560D01*
X120180140Y-57453075D01*
X119753621Y-57276406D01*
X119300831Y-57186340D01*
X118839171Y-57186340D01*
X118386381Y-57276406D01*
X117959862Y-57453075D01*
X117576005Y-57709560D01*
X117249561Y-58036004D01*
X116993076Y-58419861D01*
X116816407Y-58846380D01*
X116726341Y-59299170D01*
X110195251Y-59299170D01*
X111149218Y-58081214D01*
X112963867Y-56013452D01*
X114891115Y-54050208D01*
X116924953Y-52197603D01*
X119065317Y-50456308D01*
X119317356Y-50265000D01*
X178813543Y-50265000D01*
X180782758Y-51829696D01*
G36*
X128524175Y-72139901D02*
G01*
X128479524Y-72287110D01*
X128600845Y-72517000D01*
X129794000Y-72517000D01*
X129794000Y-72497000D01*
X130048000Y-72497000D01*
X130048000Y-72517000D01*
X131241155Y-72517000D01*
X131362476Y-72287110D01*
X131317825Y-72139901D01*
X131269765Y-72039001D01*
X132382235Y-72039001D01*
X132334175Y-72139901D01*
X132289524Y-72287110D01*
X132410845Y-72517000D01*
X133604000Y-72517000D01*
X133604000Y-72497000D01*
X133858000Y-72497000D01*
X133858000Y-72517000D01*
X135051155Y-72517000D01*
X135172476Y-72287110D01*
X135127825Y-72139901D01*
X135079765Y-72039001D01*
X137893200Y-72039001D01*
X146461198Y-80607000D01*
X146360508Y-80607000D01*
X146149691Y-80627764D01*
X146105094Y-80641292D01*
X138961803Y-73498002D01*
X138938000Y-73468998D01*
X138822275Y-73374025D01*
X138690246Y-73303453D01*
X138546985Y-73259996D01*
X138435332Y-73248999D01*
X138435321Y-73248999D01*
X138397999Y-73245323D01*
X138360677Y-73248999D01*
X135079765Y-73248999D01*
X135127825Y-73148099D01*
X135172476Y-73000890D01*
X135051155Y-72771000D01*
X133858000Y-72771000D01*
X133858000Y-72791000D01*
X133604000Y-72791000D01*
X133604000Y-72771000D01*
X132410845Y-72771000D01*
X132289524Y-73000890D01*
X132334175Y-73148099D01*
X132382235Y-73248999D01*
X131269765Y-73248999D01*
X131317825Y-73148099D01*
X131362476Y-73000890D01*
X131241155Y-72771000D01*
X130048000Y-72771000D01*
X130048000Y-72791000D01*
X129794000Y-72791000D01*
X129794000Y-72771000D01*
X128600845Y-72771000D01*
X128479524Y-73000890D01*
X128524175Y-73148099D01*
X128572235Y-73248999D01*
X128423323Y-73248999D01*
X128386000Y-73245323D01*
X128348677Y-73248999D01*
X128348668Y-73248999D01*
X128237015Y-73259996D01*
X128093754Y-73303453D01*
X127961725Y-73374025D01*
X127846000Y-73468998D01*
X127822202Y-73497996D01*
X127423543Y-73896655D01*
X127412185Y-73882815D01*
X127315494Y-73803463D01*
X127205180Y-73744498D01*
X127124534Y-73720034D01*
X127208588Y-73644269D01*
X127382641Y-73410920D01*
X127507825Y-73148099D01*
X127552476Y-73000890D01*
X127431155Y-72771000D01*
X126238000Y-72771000D01*
X126238000Y-72791000D01*
X125984000Y-72791000D01*
X125984000Y-72771000D01*
X125964000Y-72771000D01*
X125964000Y-72517000D01*
X125984000Y-72517000D01*
X125984000Y-72497000D01*
X126238000Y-72497000D01*
X126238000Y-72517000D01*
X127431155Y-72517000D01*
X127552476Y-72287110D01*
X127507825Y-72139901D01*
X127459765Y-72039001D01*
X128572235Y-72039001D01*
X128524175Y-72139901D01*
X128524175Y-72139901D01*
G37*
X128524175Y-72139901D02*
X128479524Y-72287110D01*
X128600845Y-72517000D01*
X129794000Y-72517000D01*
X129794000Y-72497000D01*
X130048000Y-72497000D01*
X130048000Y-72517000D01*
X131241155Y-72517000D01*
X131362476Y-72287110D01*
X131317825Y-72139901D01*
X131269765Y-72039001D01*
X132382235Y-72039001D01*
X132334175Y-72139901D01*
X132289524Y-72287110D01*
X132410845Y-72517000D01*
X133604000Y-72517000D01*
X133604000Y-72497000D01*
X133858000Y-72497000D01*
X133858000Y-72517000D01*
X135051155Y-72517000D01*
X135172476Y-72287110D01*
X135127825Y-72139901D01*
X135079765Y-72039001D01*
X137893200Y-72039001D01*
X146461198Y-80607000D01*
X146360508Y-80607000D01*
X146149691Y-80627764D01*
X146105094Y-80641292D01*
X138961803Y-73498002D01*
X138938000Y-73468998D01*
X138822275Y-73374025D01*
X138690246Y-73303453D01*
X138546985Y-73259996D01*
X138435332Y-73248999D01*
X138435321Y-73248999D01*
X138397999Y-73245323D01*
X138360677Y-73248999D01*
X135079765Y-73248999D01*
X135127825Y-73148099D01*
X135172476Y-73000890D01*
X135051155Y-72771000D01*
X133858000Y-72771000D01*
X133858000Y-72791000D01*
X133604000Y-72791000D01*
X133604000Y-72771000D01*
X132410845Y-72771000D01*
X132289524Y-73000890D01*
X132334175Y-73148099D01*
X132382235Y-73248999D01*
X131269765Y-73248999D01*
X131317825Y-73148099D01*
X131362476Y-73000890D01*
X131241155Y-72771000D01*
X130048000Y-72771000D01*
X130048000Y-72791000D01*
X129794000Y-72791000D01*
X129794000Y-72771000D01*
X128600845Y-72771000D01*
X128479524Y-73000890D01*
X128524175Y-73148099D01*
X128572235Y-73248999D01*
X128423323Y-73248999D01*
X128386000Y-73245323D01*
X128348677Y-73248999D01*
X128348668Y-73248999D01*
X128237015Y-73259996D01*
X128093754Y-73303453D01*
X127961725Y-73374025D01*
X127846000Y-73468998D01*
X127822202Y-73497996D01*
X127423543Y-73896655D01*
X127412185Y-73882815D01*
X127315494Y-73803463D01*
X127205180Y-73744498D01*
X127124534Y-73720034D01*
X127208588Y-73644269D01*
X127382641Y-73410920D01*
X127507825Y-73148099D01*
X127552476Y-73000890D01*
X127431155Y-72771000D01*
X126238000Y-72771000D01*
X126238000Y-72791000D01*
X125984000Y-72791000D01*
X125984000Y-72771000D01*
X125964000Y-72771000D01*
X125964000Y-72517000D01*
X125984000Y-72517000D01*
X125984000Y-72497000D01*
X126238000Y-72497000D01*
X126238000Y-72517000D01*
X127431155Y-72517000D01*
X127552476Y-72287110D01*
X127507825Y-72139901D01*
X127459765Y-72039001D01*
X128572235Y-72039001D01*
X128524175Y-72139901D01*
G36*
X122428000Y-72517000D02*
G01*
X122448000Y-72517000D01*
X122448000Y-72771000D01*
X122428000Y-72771000D01*
X122428000Y-72791000D01*
X122174000Y-72791000D01*
X122174000Y-72771000D01*
X122154000Y-72771000D01*
X122154000Y-72517000D01*
X122174000Y-72517000D01*
X122174000Y-72497000D01*
X122428000Y-72497000D01*
X122428000Y-72517000D01*
X122428000Y-72517000D01*
G37*
X122428000Y-72517000D02*
X122448000Y-72517000D01*
X122448000Y-72771000D01*
X122428000Y-72771000D01*
X122428000Y-72791000D01*
X122174000Y-72791000D01*
X122174000Y-72771000D01*
X122154000Y-72771000D01*
X122154000Y-72517000D01*
X122174000Y-72517000D01*
X122174000Y-72497000D01*
X122428000Y-72497000D01*
X122428000Y-72517000D01*
M02*
